<?xml version="1.0" encoding="UTF-8"?><svg id="uuid-5298180a-b896-4d8e-b51a-ce39d5040d5b" xmlns="http://www.w3.org/2000/svg" viewBox="0 0 832.2 321.9"><defs><style>.uuid-0c64a3f0-cc02-4223-9734-7c6dc0af2a8a{stroke-dasharray:0 0 2.86 1.91;}.uuid-0c64a3f0-cc02-4223-9734-7c6dc0af2a8a,.uuid-e89e1d48-c19d-4d78-9aad-c9f06a4ba90b,.uuid-7ff6acec-853a-4e4e-9878-eda67b454932,.uuid-60924209-a1f8-48b0-9fb5-517990565db5,.uuid-36cf0c5a-a401-498e-9562-919ac59bca23,.uuid-688803f9-886e-4385-ba9e-add96bbf9ba6,.uuid-5ac65350-83bb-42b7-b7aa-df0e2de6d9ee,.uuid-a165a644-4f64-4630-bb63-84650aecbaec,.uuid-a547f7ce-e13c-4e94-8025-146665073651,.uuid-a56f6151-33b2-4917-9013-3a1162403819,.uuid-295037f6-5266-486e-bb8b-fa12faffaee8{stroke:#444e59;stroke-linejoin:round;}.uuid-0c64a3f0-cc02-4223-9734-7c6dc0af2a8a,.uuid-e89e1d48-c19d-4d78-9aad-c9f06a4ba90b,.uuid-7ff6acec-853a-4e4e-9878-eda67b454932,.uuid-60924209-a1f8-48b0-9fb5-517990565db5,.uuid-688803f9-886e-4385-ba9e-add96bbf9ba6,.uuid-5ac65350-83bb-42b7-b7aa-df0e2de6d9ee,.uuid-a165a644-4f64-4630-bb63-84650aecbaec,.uuid-a547f7ce-e13c-4e94-8025-146665073651,.uuid-a56f6151-33b2-4917-9013-3a1162403819,.uuid-295037f6-5266-486e-bb8b-fa12faffaee8{fill:none;}.uuid-0c64a3f0-cc02-4223-9734-7c6dc0af2a8a,.uuid-7ff6acec-853a-4e4e-9878-eda67b454932,.uuid-a56f6151-33b2-4917-9013-3a1162403819{stroke-width:2px;}.uuid-e89e1d48-c19d-4d78-9aad-c9f06a4ba90b,.uuid-36cf0c5a-a401-498e-9562-919ac59bca23,.uuid-688803f9-886e-4385-ba9e-add96bbf9ba6,.uuid-5ac65350-83bb-42b7-b7aa-df0e2de6d9ee,.uuid-a165a644-4f64-4630-bb63-84650aecbaec,.uuid-a547f7ce-e13c-4e94-8025-146665073651{stroke-linecap:round;}.uuid-7ff6acec-853a-4e4e-9878-eda67b454932{stroke-dasharray:0 0 3 2;}.uuid-915eb2fc-5401-4a36-a22b-f253a2f3b394{opacity:.09;}.uuid-902a47df-aad2-4954-a3f6-5cf193a59660{fill:#ed8b3b;}.uuid-ffc5a39e-2e8a-4590-91d6-fa1b9f55914d,.uuid-02235f91-4217-482a-846a-f80f785adc3f{fill:#fff;}.uuid-82128440-60b4-457b-acb8-e774f9f66f5c{fill:#f09f54;}.uuid-7989f89c-44a5-4648-8f17-f6aa468c06c6{fill:#ff6c37;}.uuid-fcc6a83a-b794-472f-b13f-334472e442a2{fill:#6567c3;}.uuid-818088cf-55a1-4c69-9700-3eb48616149d{fill:#8d91db;}.uuid-ec01daae-133e-4a29-a89f-726ca0e90272{fill:#aeaeaf;}.uuid-2ffe7488-fa2a-40a3-a46b-0b8ff4a09c7d,.uuid-c3b1f618-4569-40dc-ac31-d975914eadae{fill:#bbbfc2;}.uuid-21e450ec-3872-4ac1-8796-c37b5204b019{fill:#afb1b2;}.uuid-c3b62adf-42b6-4d67-9edd-186690454805,.uuid-92a28b30-c589-4183-ae68-5dc424f00936{fill:#444e59;}.uuid-10234ad0-addd-486d-96ea-c326bf44363d{fill:#28a8e0;}.uuid-09b85e48-3903-4506-b269-895b28fa5dac{opacity:.32;}.uuid-09b85e48-3903-4506-b269-895b28fa5dac,.uuid-92a28b30-c589-4183-ae68-5dc424f00936,.uuid-3c13e96e-a7bf-4e48-91a4-6858bca486b5,.uuid-c3b1f618-4569-40dc-ac31-d975914eadae,.uuid-02235f91-4217-482a-846a-f80f785adc3f,.uuid-645969bd-2518-4f04-b0ca-f00c00e48b3a,.uuid-a165a644-4f64-4630-bb63-84650aecbaec,.uuid-a547f7ce-e13c-4e94-8025-146665073651{isolation:isolate;}.uuid-09b85e48-3903-4506-b269-895b28fa5dac,.uuid-645969bd-2518-4f04-b0ca-f00c00e48b3a{fill:#848484;}.uuid-92a28b30-c589-4183-ae68-5dc424f00936,.uuid-a165a644-4f64-4630-bb63-84650aecbaec,.uuid-975bc187-01ec-415a-91c8-05d28c9ce731{opacity:.2;}.uuid-36cf0c5a-a401-498e-9562-919ac59bca23{fill:#beccd5;}.uuid-36cf0c5a-a401-498e-9562-919ac59bca23,.uuid-688803f9-886e-4385-ba9e-add96bbf9ba6{stroke-width:4px;}.uuid-3c13e96e-a7bf-4e48-91a4-6858bca486b5{fill:#5d5d5d;opacity:.71;}.uuid-c3b1f618-4569-40dc-ac31-d975914eadae{opacity:.8;}.uuid-02235f91-4217-482a-846a-f80f785adc3f{opacity:.62;}.uuid-645969bd-2518-4f04-b0ca-f00c00e48b3a{opacity:.4;}.uuid-5ac65350-83bb-42b7-b7aa-df0e2de6d9ee,.uuid-a165a644-4f64-4630-bb63-84650aecbaec,.uuid-a547f7ce-e13c-4e94-8025-146665073651{stroke-width:4px;}.uuid-e5ab82b3-4a0f-455e-8196-75148b1710df,.uuid-a547f7ce-e13c-4e94-8025-146665073651{opacity:.3;}.uuid-295037f6-5266-486e-bb8b-fa12faffaee8{stroke-width:1px;}</style></defs><path class="uuid-c3b62adf-42b6-4d67-9edd-186690454805" d="M823.1,321.9H9c-5,0-9-4-9-9H0c0-5,4-9,9-9H823.2c5,0,9,4,9,9h0c-.1,5-4.1,9-9.1,9Z"/><g><rect class="uuid-c3b62adf-42b6-4d67-9edd-186690454805" x="320.7" y="303.4" width="140.8" height="8.4"/><g><path class="uuid-2ffe7488-fa2a-40a3-a46b-0b8ff4a09c7d" d="M559.3,248.5H227.1c-6.6,0-12-5.4-12-12V14c0-6.6,5.4-12,12-12h332.2c6.6,0,12,5.4,12,12V236.4c0,6.7-5.3,12.1-12,12.1Z"/><rect class="uuid-10234ad0-addd-486d-96ea-c326bf44363d" x="237.59" y="24.58" width="312.6" height="181.7"/><path class="uuid-645969bd-2518-4f04-b0ca-f00c00e48b3a" d="M560.1,248.5h-52.1v-94.8c0-7.6,6.1-13.7,13.7-13.7h38.4v108.5h0Z"/><path class="uuid-645969bd-2518-4f04-b0ca-f00c00e48b3a" d="M240.4,156.9h-25.3v74.7c0,9.3,8,16.9,17.4,16.9h29.1v-70c-.1-11.7-9.6-21.6-21.2-21.6Z"/><path class="uuid-5ac65350-83bb-42b7-b7aa-df0e2de6d9ee" d="M560.3,248.5H227.5c-6.6,0-12-5.4-12-12V14c0-6.6,5.4-12,12-12h332.8c6.6,0,12,5.4,12,12V236.4c0,6.7-5.4,12.1-12,12.1Z"/><rect class="uuid-5ac65350-83bb-42b7-b7aa-df0e2de6d9ee" x="238.08" y="24.58" width="311.7" height="181.7"/></g><path class="uuid-09b85e48-3903-4506-b269-895b28fa5dac" d="M489.2,197.5h-171.8c-3.9,0-7-3.2-7-7V67.9c0-3.9,3.2-7,7-7h171.8c3.9,0,7,3.2,7,7v122.5c0,3.9-3.1,7.1-7,7.1Z"/><path class="uuid-21e450ec-3872-4ac1-8796-c37b5204b019" d="M481.2,190.7h-171.8c-3.9,0-7-3.2-7-7V61.2c0-3.9,3.2-7,7-7h171.8c3.9,0,7,3.2,7,7v122.5c.1,3.9-3.1,7-7,7Z"/><path class="uuid-5ac65350-83bb-42b7-b7aa-df0e2de6d9ee" d="M481.2,190.7h-171.8c-3.9,0-7-3.2-7-7V61.2c0-3.9,3.2-7,7-7h171.8c3.9,0,7,3.2,7,7v122.5c.1,3.9-3.1,7-7,7Z"/><polygon class="uuid-ec01daae-133e-4a29-a89f-726ca0e90272" points="435.8 303.4 352 303.4 362.4 248.5 425.4 248.5 435.8 303.4"/><polygon class="uuid-09b85e48-3903-4506-b269-895b28fa5dac" points="428.2 264 425.4 248.5 362.4 248.5 359.6 264 428.2 264"/><polygon class="uuid-5ac65350-83bb-42b7-b7aa-df0e2de6d9ee" points="435.8 303.4 352 303.4 362.4 248.5 425.4 248.5 435.8 303.4"/><rect class="uuid-5ac65350-83bb-42b7-b7aa-df0e2de6d9ee" x="320.7" y="303.4" width="140.8" height="8.4"/><circle class="uuid-c3b62adf-42b6-4d67-9edd-186690454805" cx="393.4" cy="223.3" r="6.2"/><path class="uuid-ffc5a39e-2e8a-4590-91d6-fa1b9f55914d" d="M467.1,178.1h-171.8c-3.9,0-7-3.2-7-7V48.5c0-3.9,3.2-7,7-7h171.8c3.9,0,7,3.2,7,7v122.5c.1,3.9-3.1,7.1-7,7.1Z"/><path class="uuid-5ac65350-83bb-42b7-b7aa-df0e2de6d9ee" d="M467.1,178.1h-171.8c-3.9,0-7-3.2-7-7V48.5c0-3.9,3.2-7,7-7h171.8c3.9,0,7,3.2,7,7v122.5c.1,3.9-3.1,7.1-7,7.1Z"/><path class="uuid-2ffe7488-fa2a-40a3-a46b-0b8ff4a09c7d" d="M474.2,62.6h-185.9v-13.8c0-4,3.3-7.4,7.4-7.4h171.6c3.8,0,6.9,3.1,6.9,6.9v14.3Z"/><path class="uuid-5ac65350-83bb-42b7-b7aa-df0e2de6d9ee" d="M474.2,62.6h-185.9v-13.8c0-4,3.3-7.4,7.4-7.4h171.6c3.8,0,6.9,3.1,6.9,6.9v14.3Z"/><g><circle class="uuid-c3b62adf-42b6-4d67-9edd-186690454805" cx="306.2" cy="52.1" r="3.3"/><circle class="uuid-c3b62adf-42b6-4d67-9edd-186690454805" cx="317.1" cy="52.1" r="3.3"/><circle class="uuid-c3b62adf-42b6-4d67-9edd-186690454805" cx="327.9" cy="52.1" r="3.3"/></g><path class="uuid-fcc6a83a-b794-472f-b13f-334472e442a2" d="M456.7,99.2h-152.3c-1.1,0-2-.9-2-2v-21.3c0-1.1,.9-2,2-2h152.3c1.1,0,2,.9,2,2v21.3c0,1.1-.9,2-2,2Z"/><g><path class="uuid-92a28b30-c589-4183-ae68-5dc424f00936" d="M348.2,125.9h-43.9c-1.1,0-2-.9-2-2v-11.5c0-1.1,.9-2,2-2h43.9c1.1,0,2,.9,2,2v11.5c0,1.1-.8,2-2,2Z"/><line class="uuid-a165a644-4f64-4630-bb63-84650aecbaec" x1="309.4" y1="137.2" x2="344.6" y2="137.2"/><line class="uuid-a165a644-4f64-4630-bb63-84650aecbaec" x1="309.4" y1="148.5" x2="344.6" y2="148.5"/></g><g><path class="uuid-92a28b30-c589-4183-ae68-5dc424f00936" d="M403.2,125.9h-43.9c-1.1,0-2-.9-2-2v-11.5c0-1.1,.9-2,2-2h43.9c1.1,0,2,.9,2,2v11.5c0,1.1-.9,2-2,2Z"/><line class="uuid-a165a644-4f64-4630-bb63-84650aecbaec" x1="364.3" y1="137.2" x2="398.1" y2="137.2"/><line class="uuid-a165a644-4f64-4630-bb63-84650aecbaec" x1="364.3" y1="148.5" x2="398.1" y2="148.5"/></g><g class="uuid-975bc187-01ec-415a-91c8-05d28c9ce731"><path class="uuid-c3b62adf-42b6-4d67-9edd-186690454805" d="M458.1,149.9h-43.9c-1.1,0-2-.9-2-2v-35.4c0-1.1,.9-2,2-2h43.9c1.1,0,2,.9,2,2v35.4c0,1.1-.9,2-2,2Z"/></g><g class="uuid-915eb2fc-5401-4a36-a22b-f253a2f3b394"><path class="uuid-c3b62adf-42b6-4d67-9edd-186690454805" d="M456.7,161.2h-41.8c-1.6,0-2.8-1.3-2.8-2.8s1.3-2.8,2.8-2.8h41.8c1.6,0,2.8,1.3,2.8,2.8s-1.3,2.8-2.8,2.8Z"/></g></g><g><g><path class="uuid-ffc5a39e-2e8a-4590-91d6-fa1b9f55914d" d="M142.5,269H61.9c-1,0-1.9,.3-2.6,1l-19.5,17c-1.8,1.6-1.8,4.4,0,5.9l19.5,17.3c.7,.6,1.6,1.2,2.6,1.2h80.6c4.6,0,8.4-4.2,8.4-8.8v-25.5c-.1-4.4-3.8-8.1-8.4-8.1Zm-82.8,25.9c-2.7,0-5-2.2-5-5s2.2-5,5-5,5,2.2,5,5-2.2,5-5,5Z"/><rect class="uuid-82128440-60b4-457b-acb8-e774f9f66f5c" x="80.4" y="269" width="23.5" height="42.5"/><rect class="uuid-902a47df-aad2-4954-a3f6-5cf193a59660" x="103.9" y="269" width="23.5" height="42.5"/><path class="uuid-7989f89c-44a5-4648-8f17-f6aa468c06c6" d="M140.4,311.5h-13v-42.5h13.4c5.5,0,10.1,4.5,10.1,10.1v22c-.1,5.7-4.8,10.4-10.5,10.4Z"/><path class="uuid-645969bd-2518-4f04-b0ca-f00c00e48b3a" d="M144.7,271.1c-.4-.1-.8-.1-1.2-.1H62.9c-1,0-1.9,.3-2.6,1l-19.5,17c-1.8,1.6-1.8,4.4,0,5.9l12.2,10.7,13.2,3.3c.6,.2,1.3,.2,2,.2,1.3,0,2.5-.3,3.7-.9l71.8-36.6c.3-.1,.7-.3,1-.5Zm-84,25.8c-2.7,0-5-2.2-5-5s2.2-5,5-5,5,2.2,5,5-2.2,5-5,5Z"/><path class="uuid-5ac65350-83bb-42b7-b7aa-df0e2de6d9ee" d="M142.5,269H61.9c-1,0-1.9,.3-2.6,1l-19.5,17c-1.8,1.6-1.8,4.4,0,5.9l19.5,17.3c.7,.6,1.6,1.2,2.6,1.2h80.6c4.6,0,8.4-4.2,8.4-8.8v-25.5c-.1-4.4-3.8-8.1-8.4-8.1Zm-82.8,25.9c-2.7,0-5-2.2-5-5s2.2-5,5-5,5,2.2,5,5-2.2,5-5,5Z"/><rect class="uuid-5ac65350-83bb-42b7-b7aa-df0e2de6d9ee" x="80.4" y="269" width="23.5" height="42.5"/><rect class="uuid-5ac65350-83bb-42b7-b7aa-df0e2de6d9ee" x="103.9" y="269" width="23.5" height="42.5"/><path class="uuid-5ac65350-83bb-42b7-b7aa-df0e2de6d9ee" d="M140.4,311.5h-13v-42.5h13.4c5.5,0,10.1,4.5,10.1,10.1v22c-.1,5.7-4.8,10.4-10.5,10.4Z"/></g><g><path class="uuid-ffc5a39e-2e8a-4590-91d6-fa1b9f55914d" d="M121.7,228.6l-71.8,36.6c-.9,.4-1.5,1.2-1.9,2.1l-9.6,24c-.9,2.2,.4,4.7,2.7,5.3l25.1,6.4c.9,.2,1.9,.1,2.8-.3l71.8-36.6c4.1-2.1,5.7-7.1,3.6-11.1l-11.6-22.7c-2.1-4.2-7.1-5.8-11.1-3.7Z"/><rect class="uuid-818088cf-55a1-4c69-9700-3eb48616149d" x="95.5" y="238.5" width="23.5" height="42" transform="translate(-106.22 77.09) rotate(-27.03)"/><path class="uuid-5ac65350-83bb-42b7-b7aa-df0e2de6d9ee" d="M121.7,228.6l-71.8,36.6c-.9,.4-1.5,1.2-1.9,2.1l-9.6,24c-.9,2.2,.4,4.7,2.7,5.3l25.1,6.4c.9,.2,1.9,.1,2.8-.3l71.8-36.6c4.1-2.1,5.7-7.1,3.6-11.1l-11.6-22.7c-2.1-4.2-7.1-5.8-11.1-3.7Z"/><circle class="uuid-c3b62adf-42b6-4d67-9edd-186690454805" cx="57.5" cy="284.9" r="5.8"/><rect class="uuid-36cf0c5a-a401-498e-9562-919ac59bca23" x="74.52" y="249.23" width="23.5" height="42" transform="translate(-113.39 68.73) rotate(-27.03)"/><rect class="uuid-688803f9-886e-4385-ba9e-add96bbf9ba6" x="74.52" y="249.23" width="23.5" height="42" transform="translate(-113.39 68.73) rotate(-27.03)"/><rect class="uuid-688803f9-886e-4385-ba9e-add96bbf9ba6" x="95.5" y="238.5" width="23.5" height="42" transform="translate(-106.22 77.09) rotate(-27.03)"/><path class="uuid-fcc6a83a-b794-472f-b13f-334472e442a2" d="M139.2,266.8l-12,6.1-19.1-37.4,12-6.1c4.9-2.5,10.9-.6,13.5,4.4l10,19.6c2.5,4.9,.5,10.9-4.4,13.4Z"/><path class="uuid-5ac65350-83bb-42b7-b7aa-df0e2de6d9ee" d="M139.2,266.8l-12,6.1-19.1-37.4,12-6.1c4.9-2.5,10.9-.6,13.5,4.4l10,19.6c2.5,4.9,.5,10.9-4.4,13.4Z"/></g></g><g><path class="uuid-ffc5a39e-2e8a-4590-91d6-fa1b9f55914d" d="M240.3,311.8h-67.3c-5.5,0-10-4.5-10-10V166.9c0-5.5,4.5-10,10-10h67.3c5.5,0,10,4.5,10,10v134.9c0,5.6-4.5,10-10,10Z"/><path class="uuid-fcc6a83a-b794-472f-b13f-334472e442a2" d="M251.7,203.4h-88.7v-36.7c0-5.4,4.4-9.8,9.8-9.8h68.5c5.7,0,10.3,4.7,10.3,10.3v36.2h.1Z"/><path class="uuid-5ac65350-83bb-42b7-b7aa-df0e2de6d9ee" d="M240.3,311.8h-67.3c-5.5,0-10-4.5-10-10V166.9c0-5.5,4.5-10,10-10h67.3c5.5,0,10,4.5,10,10v134.9c0,5.6-4.5,10-10,10Z"/><path class="uuid-2ffe7488-fa2a-40a3-a46b-0b8ff4a09c7d" d="M240.4,311.8h-67.1c-5.7,0-10.4-4.7-10.4-10.4v-19.2h87.4v19.7c0,5.5-4.5,9.9-9.9,9.9Z"/><path class="uuid-5ac65350-83bb-42b7-b7aa-df0e2de6d9ee" d="M240.6,311.8h-67.3c-5.7,0-10.4-4.7-10.4-10.4v-19.2h87.4v19.9c0,5.4-4.4,9.7-9.7,9.7Z"/><circle class="uuid-c3b62adf-42b6-4d67-9edd-186690454805" cx="207.3" cy="296.4" r="5"/><line class="uuid-a547f7ce-e13c-4e94-8025-146665073651" x1="182.7" y1="218.9" x2="232" y2="218.9"/><line class="uuid-a547f7ce-e13c-4e94-8025-146665073651" x1="192.5" y1="234.4" x2="223.5" y2="234.4"/><line class="uuid-a547f7ce-e13c-4e94-8025-146665073651" x1="182.7" y1="248.5" x2="232" y2="248.5"/><circle class="uuid-02235f91-4217-482a-846a-f80f785adc3f" cx="207.3" cy="183.7" r="11.2"/><path class="uuid-902a47df-aad2-4954-a3f6-5cf193a59660" d="M223.5,264c0,3.1-2.5,5.6-5.6,5.6h-21.1c-3.1,0-5.6-2.5-5.6-5.6h0c0-3.1,2.5-5.6,5.6-5.6h21.1c3.1-.1,5.6,2.4,5.6,5.6h0Z"/></g><g><path class="uuid-2ffe7488-fa2a-40a3-a46b-0b8ff4a09c7d" d="M761.5,293.5h-242.3V147.9c0-4.3,3.5-7.8,7.8-7.8h226.8c4.2,0,7.6,3.4,7.6,7.6v145.8h.1Z"/><path class="uuid-5ac65350-83bb-42b7-b7aa-df0e2de6d9ee" d="M762.1,293.8h-242.2V147.8c0-4.4,3.6-8,8-8h226.2c4.4,0,8,3.6,8,8v146Z"/><rect class="uuid-3c13e96e-a7bf-4e48-91a4-6858bca486b5" x="533.33" y="152.73" width="215.5" height="128.2"/><path class="uuid-09b85e48-3903-4506-b269-895b28fa5dac" d="M586,256.5h-18.6c-1.1,0-2-.9-2-2v-63.7c0-1.1,.9-2,2-2h18.6c1.1,0,2,.9,2,2v63.8c0,1-.9,1.9-2,1.9Z"/><path class="uuid-09b85e48-3903-4506-b269-895b28fa5dac" d="M720.3,269.4h-107.4c-2.2,0-4-1.8-4-4v-82.1c0-2.2,1.8-4,4-4h107.4c2.2,0,4,1.8,4,4v82.1c0,2.2-1.7,4-4,4Z"/><rect class="uuid-5ac65350-83bb-42b7-b7aa-df0e2de6d9ee" x="533.34" y="153.22" width="215.3" height="127.1"/><path class="uuid-ffc5a39e-2e8a-4590-91d6-fa1b9f55914d" d="M788.5,293.8H493.4v9.4c0,4.4,3.6,8,8,8h279.1c4.4,0,8-3.6,8-8v-9.4h0Z"/><path class="uuid-c3b1f618-4569-40dc-ac31-d975914eadae" d="M504.7,311.8h272.6c5.5,0,10-4.2,11-9.9H493.6c1,5.7,5.6,9.9,11.1,9.9Z"/><path class="uuid-5ac65350-83bb-42b7-b7aa-df0e2de6d9ee" d="M788.5,293.8H493.4v9.4c0,4.4,3.6,8,8,8h279.1c4.4,0,8-3.6,8-8v-9.4h0Z"/><rect class="uuid-82128440-60b4-457b-acb8-e774f9f66f5c" x="560.1" y="183.7" width="22.5" height="22.5"/><rect class="uuid-5ac65350-83bb-42b7-b7aa-df0e2de6d9ee" x="560.5" y="183.9" width="22.5" height="22.5"/><rect class="uuid-5ac65350-83bb-42b7-b7aa-df0e2de6d9ee" x="560.5" y="183.9" width="22.5" height="22.5"/><rect class="uuid-818088cf-55a1-4c69-9700-3eb48616149d" x="560.1" y="206.2" width="22.5" height="22.5"/><rect class="uuid-5ac65350-83bb-42b7-b7aa-df0e2de6d9ee" x="560.5" y="206.5" width="22.5" height="22.5"/><rect class="uuid-fcc6a83a-b794-472f-b13f-334472e442a2" x="560.1" y="228.7" width="22.5" height="22.5"/><rect class="uuid-5ac65350-83bb-42b7-b7aa-df0e2de6d9ee" x="560.5" y="229" width="22.5" height="22.5"/><path class="uuid-ffc5a39e-2e8a-4590-91d6-fa1b9f55914d" d="M713.8,262.5h-107.5c-2.2,0-4-1.8-4-4v-82.1c0-2.2,1.8-4,4-4h107.5c2.2,0,4,1.8,4,4v82.1c0,2.3-1.8,4-4,4Z"/><path class="uuid-5ac65350-83bb-42b7-b7aa-df0e2de6d9ee" d="M713.8,262.5h-107.5c-2.2,0-4-1.8-4-4v-82.1c0-2.2,1.8-4,4-4h107.5c2.2,0,4,1.8,4,4v82.1c0,2.3-1.8,4-4,4Z"/><g class="uuid-e5ab82b3-4a0f-455e-8196-75148b1710df"><g><polyline class="uuid-a56f6151-33b2-4917-9013-3a1162403819" points="684 238.8 684 240.3 682.5 240.3"/><line class="uuid-0c64a3f0-cc02-4223-9734-7c6dc0af2a8a" x1="680.6" y1="240.3" x2="638.7" y2="240.3"/><polyline class="uuid-a56f6151-33b2-4917-9013-3a1162403819" points="637.7 240.3 636.2 240.3 636.2 238.8"/><line class="uuid-7ff6acec-853a-4e4e-9878-eda67b454932" x1="636.2" y1="236.7" x2="636.2" y2="197.7"/><polyline class="uuid-a56f6151-33b2-4917-9013-3a1162403819" points="636.2 196.7 636.2 195.2 637.7 195.2"/><line class="uuid-0c64a3f0-cc02-4223-9734-7c6dc0af2a8a" x1="639.6" y1="195.2" x2="681.5" y2="195.2"/><polyline class="uuid-a56f6151-33b2-4917-9013-3a1162403819" points="682.5 195.2 684 195.2 684 196.7"/><line class="uuid-7ff6acec-853a-4e4e-9878-eda67b454932" x1="684" y1="198.7" x2="684" y2="237.8"/></g></g><g><rect class="uuid-ffc5a39e-2e8a-4590-91d6-fa1b9f55914d" x="632.9" y="191.7" width="7.1" height="7.1"/><rect class="uuid-60924209-a1f8-48b0-9fb5-517990565db5" x="632.6" y="191.4" width="7" height="7"/></g><g><rect class="uuid-ffc5a39e-2e8a-4590-91d6-fa1b9f55914d" x="632.9" y="236.7" width="7.1" height="7.1"/><rect class="uuid-60924209-a1f8-48b0-9fb5-517990565db5" x="632.6" y="236.5" width="7" height="7"/></g><g><rect class="uuid-ffc5a39e-2e8a-4590-91d6-fa1b9f55914d" x="680.5" y="191.7" width="7.1" height="7.1"/><rect class="uuid-60924209-a1f8-48b0-9fb5-517990565db5" x="680.5" y="191.4" width="7" height="7"/></g><g><rect class="uuid-ffc5a39e-2e8a-4590-91d6-fa1b9f55914d" x="680.5" y="236.7" width="7.1" height="7.1"/><rect class="uuid-60924209-a1f8-48b0-9fb5-517990565db5" x="680.5" y="236.5" width="7" height="7"/></g><g><g><polygon class="uuid-ffc5a39e-2e8a-4590-91d6-fa1b9f55914d" points="571.8 218.1 578.9 233.3 585.8 236.9 590.6 232.1 587.1 225.1 571.8 218.1"/><polygon class="uuid-60924209-a1f8-48b0-9fb5-517990565db5" points="571.8 218.1 578.9 233.3 585.8 236.9 590.6 232.1 587.1 225.1 571.8 218.1"/><circle class="uuid-c3b62adf-42b6-4d67-9edd-186690454805" cx="580.8" cy="226.7" r="1.9"/><line class="uuid-e89e1d48-c19d-4d78-9aad-c9f06a4ba90b" x1="571.8" y1="218.1" x2="579.7" y2="226"/></g><rect class="uuid-ffc5a39e-2e8a-4590-91d6-fa1b9f55914d" x="586.56" y="233.71" width="6.8" height="4.9" transform="translate(5.81 486.33) rotate(-45)"/><rect class="uuid-295037f6-5266-486e-bb8b-fa12faffaee8" x="586.56" y="233.71" width="6.8" height="4.9" transform="translate(5.81 486.33) rotate(-45)"/></g></g></svg>