<?xml version="1.0" encoding="utf-8"?>
<!-- Generator: Adobe Illustrator 26.5.0, SVG Export Plug-In . SVG Version: 6.00 Build 0)  -->
<svg version="1.1" id="uuid-5298180a-b896-4d8e-b51a-ce39d5040d5b"
	 xmlns="http://www.w3.org/2000/svg" xmlns:xlink="http://www.w3.org/1999/xlink" x="0px" y="0px" viewBox="0 0 850 322"
	 style="enable-background:new 0 0 850 322;" xml:space="preserve">
<style type="text/css">
	.st0{fill:#444E59;}
	.st1{fill:#BBBFC2;}
	.st2{fill:#28A8E0;}
	.st3{opacity:0.4;fill:#848484;enable-background:new    ;}
	.st4{fill:none;stroke:#444E59;stroke-width:4;stroke-linecap:round;stroke-linejoin:round;}
	.st5{opacity:0.32;fill:#848484;enable-background:new    ;}
	.st6{fill:#AFB1B2;}
	.st7{fill:#AEAEAF;}
	.st8{fill:#FFFFFF;}
	.st9{fill:#6567C3;}
	.st10{opacity:0.2;fill:#444E59;enable-background:new    ;}
	
		.st11{opacity:0.2;fill:none;stroke:#444E59;stroke-width:4;stroke-linecap:round;stroke-linejoin:round;enable-background:new    ;}
	.st12{opacity:0.2;}
	.st13{opacity:9.000000e-02;}
	.st14{fill:#F09F54;}
	.st15{fill:#ED8B3B;}
	.st16{fill:#FF6C37;}
	.st17{fill:#8D91DB;}
	.st18{fill:#BECCD5;stroke:#444E59;stroke-width:4;stroke-linecap:round;stroke-linejoin:round;}
	
		.st19{opacity:0.3;fill:none;stroke:#444E59;stroke-width:4;stroke-linecap:round;stroke-linejoin:round;enable-background:new    ;}
	.st20{opacity:0.62;fill:#FFFFFF;enable-background:new    ;}
	.st21{opacity:0.71;fill:#5D5D5D;enable-background:new    ;}
	.st22{opacity:0.8;fill:#BBBFC2;enable-background:new    ;}
	.st23{opacity:0.3;}
	.st24{fill:none;stroke:#444E59;stroke-width:2;stroke-linejoin:round;}
	.st25{fill:none;stroke:#444E59;stroke-width:2;stroke-linejoin:round;stroke-dasharray:0,0,2.86,1.91;}
	.st26{fill:none;stroke:#444E59;stroke-width:2;stroke-linejoin:round;stroke-dasharray:0,0,3,2;}
	.st27{fill:none;stroke:#444E59;stroke-linejoin:round;}
	.st28{fill:none;stroke:#444E59;stroke-linecap:round;stroke-linejoin:round;}
</style>
<path class="st0" d="M835.1,323H21c-5,0-9-4-9-9l0,0c0-5,4-9,9-9h814.2c5,0,9,4,9,9l0,0C844.1,319,840.1,323,835.1,323L835.1,323z"
	/>
<g>
	<rect x="332.7" y="304.5" class="st0" width="140.8" height="8.4"/>
	<g>
		<path class="st1" d="M571.3,249.6H239.1c-6.6,0-12-5.4-12-12V15.1c0-6.6,5.4-12,12-12h332.2c6.6,0,12,5.4,12,12v222.4
			C583.3,244.1,578,249.6,571.3,249.6L571.3,249.6z"/>
		<rect x="249.6" y="25.6" class="st2" width="312.6" height="181.7"/>
		<path class="st3" d="M572.1,249.6H520v-94.8c0-7.6,6.1-13.7,13.7-13.7h38.4V249.6L572.1,249.6z"/>
		<path class="st3" d="M252.4,157.9h-25.3v74.7c0,9.3,8,16.9,17.4,16.9h29.1v-70C273.5,167.8,264,157.9,252.4,157.9L252.4,157.9z"/>
		<path class="st4" d="M572.3,249.6H239.5c-6.6,0-12-5.4-12-12V15.1c0-6.6,5.4-12,12-12h332.8c6.6,0,12,5.4,12,12v222.4
			C584.3,244.1,578.9,249.6,572.3,249.6z"/>
		<rect x="250.1" y="25.6" class="st4" width="311.7" height="181.7"/>
	</g>
	<path class="st5" d="M501.2,198.6H329.4c-3.9,0-7-3.2-7-7V69c0-3.9,3.2-7,7-7h171.8c3.9,0,7,3.2,7,7v122.5
		C508.2,195.3,505.1,198.6,501.2,198.6z"/>
	<path class="st6" d="M493.2,191.8H321.4c-3.9,0-7-3.2-7-7V62.3c0-3.9,3.2-7,7-7h171.8c3.9,0,7,3.2,7,7v122.5
		C500.3,188.6,497.1,191.8,493.2,191.8z"/>
	<path class="st4" d="M493.2,191.8H321.4c-3.9,0-7-3.2-7-7V62.3c0-3.9,3.2-7,7-7h171.8c3.9,0,7,3.2,7,7v122.5
		C500.3,188.6,497.1,191.8,493.2,191.8z"/>
	<polygon class="st7" points="447.8,304.5 364,304.5 374.4,249.6 437.4,249.6 	"/>
	<polygon class="st5" points="440.2,265 437.4,249.6 374.4,249.6 371.6,265 	"/>
	<polygon class="st4" points="447.8,304.5 364,304.5 374.4,249.6 437.4,249.6 	"/>
	<rect x="332.7" y="304.5" class="st4" width="140.8" height="8.4"/>
	<circle class="st0" cx="405.4" cy="224.4" r="6.2"/>
	<path class="st8" d="M479.1,179.2H307.3c-3.9,0-7-3.2-7-7V49.6c0-3.9,3.2-7,7-7h171.8c3.9,0,7,3.2,7,7v122.5
		C486.2,175.9,483,179.2,479.1,179.2L479.1,179.2z"/>
	<path class="st4" d="M479.1,179.2H307.3c-3.9,0-7-3.2-7-7V49.6c0-3.9,3.2-7,7-7h171.8c3.9,0,7,3.2,7,7v122.5
		C486.2,175.9,483,179.2,479.1,179.2L479.1,179.2z"/>
	<path class="st1" d="M486.2,63.7H300.3V49.9c0-4,3.3-7.4,7.4-7.4h171.6c3.8,0,6.9,3.1,6.9,6.9V63.7z"/>
	<path class="st4" d="M486.2,63.7H300.3V49.9c0-4,3.3-7.4,7.4-7.4h171.6c3.8,0,6.9,3.1,6.9,6.9V63.7z"/>
	<g>
		<circle class="st0" cx="318.2" cy="53.2" r="3.3"/>
		<circle class="st0" cx="329.1" cy="53.2" r="3.3"/>
		<circle class="st0" cx="339.9" cy="53.2" r="3.3"/>
	</g>
	<path class="st9" d="M468.7,100.2H316.4c-1.1,0-2-0.9-2-2V76.9c0-1.1,0.9-2,2-2h152.3c1.1,0,2,0.9,2,2v21.3
		C470.7,99.3,469.8,100.2,468.7,100.2z"/>
	<g>
		<path class="st10" d="M360.2,127h-43.9c-1.1,0-2-0.9-2-2v-11.5c0-1.1,0.9-2,2-2h43.9c1.1,0,2,0.9,2,2V125
			C362.2,126.1,361.4,127,360.2,127z"/>
		<line class="st11" x1="321.4" y1="138.2" x2="356.6" y2="138.2"/>
		<line class="st11" x1="321.4" y1="149.6" x2="356.6" y2="149.6"/>
	</g>
	<g>
		<path class="st10" d="M415.2,127h-43.9c-1.1,0-2-0.9-2-2v-11.5c0-1.1,0.9-2,2-2h43.9c1.1,0,2,0.9,2,2V125
			C417.2,126.1,416.3,127,415.2,127z"/>
		<line class="st11" x1="376.3" y1="138.2" x2="410.1" y2="138.2"/>
		<line class="st11" x1="376.3" y1="149.6" x2="410.1" y2="149.6"/>
	</g>
	<g class="st12">
		<path class="st0" d="M470.1,150.9h-43.9c-1.1,0-2-0.9-2-2v-35.4c0-1.1,0.9-2,2-2h43.9c1.1,0,2,0.9,2,2v35.4
			C472.1,150.1,471.2,150.9,470.1,150.9z"/>
	</g>
	<g class="st13">
		<path class="st0" d="M468.7,162.2h-41.8c-1.6,0-2.8-1.3-2.8-2.8s1.3-2.8,2.8-2.8h41.8c1.6,0,2.8,1.3,2.8,2.8
			S470.2,162.2,468.7,162.2z"/>
	</g>
</g>
<g>
	<g>
		<path class="st8" d="M154.5,270H73.9c-1,0-1.9,0.3-2.6,1l-19.5,17c-1.8,1.6-1.8,4.4,0,5.9l19.5,17.3c0.7,0.6,1.6,1.2,2.6,1.2h80.6
			c4.6,0,8.4-4.2,8.4-8.8v-25.5C162.8,273.8,159.1,270,154.5,270z M71.7,296c-2.7,0-5-2.2-5-5s2.2-5,5-5s5,2.2,5,5
			S74.5,296,71.7,296z"/>
		<rect x="92.4" y="270" class="st14" width="23.5" height="42.5"/>
		<rect x="115.9" y="270" class="st15" width="23.5" height="42.5"/>
		<path class="st16" d="M152.4,312.5h-13V270h13.4c5.5,0,10.1,4.5,10.1,10.1v22C162.8,307.9,158.1,312.5,152.4,312.5z"/>
		<path class="st3" d="M156.7,272.2c-0.4-0.1-0.8-0.1-1.2-0.1H74.9c-1,0-1.9,0.3-2.6,1l-19.5,17c-1.8,1.6-1.8,4.4,0,5.9L65,306.7
			l13.2,3.3c0.6,0.2,1.3,0.2,2,0.2c1.3,0,2.5-0.3,3.7-0.9l71.8-36.6C156,272.5,156.4,272.4,156.7,272.2L156.7,272.2z M72.7,298
			c-2.7,0-5-2.2-5-5s2.2-5,5-5s5,2.2,5,5S75.5,298,72.7,298z"/>
		<path class="st4" d="M154.5,270H73.9c-1,0-1.9,0.3-2.6,1l-19.5,17c-1.8,1.6-1.8,4.4,0,5.9l19.5,17.3c0.7,0.6,1.6,1.2,2.6,1.2h80.6
			c4.6,0,8.4-4.2,8.4-8.8v-25.5C162.8,273.8,159.1,270,154.5,270z M71.7,296c-2.7,0-5-2.2-5-5s2.2-5,5-5s5,2.2,5,5
			S74.5,296,71.7,296z"/>
		<rect x="92.4" y="270" class="st4" width="23.5" height="42.5"/>
		<rect x="115.9" y="270" class="st4" width="23.5" height="42.5"/>
		<path class="st4" d="M152.4,312.5h-13V270h13.4c5.5,0,10.1,4.5,10.1,10.1v22C162.8,307.9,158.1,312.5,152.4,312.5z"/>
	</g>
	<g>
		<path class="st8" d="M133.7,229.7l-71.8,36.6c-0.9,0.4-1.5,1.2-1.9,2.1l-9.6,24c-0.9,2.2,0.4,4.7,2.7,5.3l25.1,6.4
			c0.9,0.2,1.9,0.1,2.8-0.3l71.8-36.6c4.1-2.1,5.7-7.1,3.6-11.1l-11.6-22.7C142.7,229.2,137.7,227.6,133.7,229.7z"/>
		
			<rect x="107.5" y="239.6" transform="matrix(0.8908 -0.4545 0.4545 0.8908 -105.3851 82.6531)" class="st17" width="23.5" height="42"/>
		<path class="st4" d="M133.7,229.7l-71.8,36.6c-0.9,0.4-1.5,1.2-1.9,2.1l-9.6,24c-0.9,2.2,0.4,4.7,2.7,5.3l25.1,6.4
			c0.9,0.2,1.9,0.1,2.8-0.3l71.8-36.6c4.1-2.1,5.7-7.1,3.6-11.1l-11.6-22.7C142.7,229.2,137.7,227.6,133.7,229.7z"/>
		<circle class="st0" cx="69.5" cy="286" r="5.8"/>
		
			<rect x="86.5" y="250.3" transform="matrix(0.8908 -0.4545 0.4545 0.8908 -112.5544 74.29)" class="st18" width="23.5" height="42"/>
		
			<rect x="86.5" y="250.3" transform="matrix(0.8908 -0.4545 0.4545 0.8908 -112.5544 74.29)" class="st4" width="23.5" height="42"/>
		
			<rect x="107.5" y="239.6" transform="matrix(0.8908 -0.4545 0.4545 0.8908 -105.3851 82.6531)" class="st4" width="23.5" height="42"/>
		<path class="st9" d="M151.2,267.8l-12,6.1l-19.1-37.4l12-6.1c4.9-2.5,10.9-0.6,13.5,4.4l10,19.6
			C158.1,259.3,156.1,265.3,151.2,267.8L151.2,267.8z"/>
		<path class="st4" d="M151.2,267.8l-12,6.1l-19.1-37.4l12-6.1c4.9-2.5,10.9-0.6,13.5,4.4l10,19.6
			C158.1,259.3,156.1,265.3,151.2,267.8L151.2,267.8z"/>
	</g>
</g>
<g>
	<path class="st8" d="M252.3,312.8H185c-5.5,0-10-4.5-10-10V167.9c0-5.5,4.5-10,10-10h67.3c5.5,0,10,4.5,10,10v134.9
		C262.3,308.5,257.8,312.8,252.3,312.8z"/>
	<path class="st9" d="M263.7,204.4H175v-36.7c0-5.4,4.4-9.8,9.8-9.8h68.5c5.7,0,10.3,4.7,10.3,10.3v36.2H263.7L263.7,204.4z"/>
	<path class="st4" d="M252.3,312.8H185c-5.5,0-10-4.5-10-10V167.9c0-5.5,4.5-10,10-10h67.3c5.5,0,10,4.5,10,10v134.9
		C262.3,308.5,257.8,312.8,252.3,312.8z"/>
	<path class="st1" d="M252.4,312.8h-67.1c-5.7,0-10.4-4.7-10.4-10.4v-19.2h87.4V303C262.3,308.5,257.8,312.8,252.4,312.8z"/>
	<path class="st4" d="M252.6,312.8h-67.3c-5.7,0-10.4-4.7-10.4-10.4v-19.2h87.4v19.9C262.3,308.5,257.9,312.8,252.6,312.8
		L252.6,312.8z"/>
	<circle class="st0" cx="219.3" cy="297.5" r="5"/>
	<line class="st19" x1="194.7" y1="219.9" x2="244" y2="219.9"/>
	<line class="st19" x1="204.5" y1="235.4" x2="235.5" y2="235.4"/>
	<line class="st19" x1="194.7" y1="249.6" x2="244" y2="249.6"/>
	<circle class="st20" cx="219.3" cy="184.8" r="11.2"/>
	<path class="st15" d="M235.5,265c0,3.1-2.5,5.6-5.6,5.6h-21.1c-3.1,0-5.6-2.5-5.6-5.6l0,0c0-3.1,2.5-5.6,5.6-5.6h21.1
		C233,259.3,235.5,261.8,235.5,265L235.5,265z"/>
</g>
<g>
	<path class="st1" d="M773.5,294.5H531.2V148.9c0-4.3,3.5-7.8,7.8-7.8h226.8c4.2,0,7.6,3.4,7.6,7.6v145.8H773.5L773.5,294.5z"/>
	<path class="st4" d="M774.1,294.8H531.9v-146c0-4.4,3.6-8,8-8h226.2c4.4,0,8,3.6,8,8V294.8z"/>
	<rect x="545.3" y="153.8" class="st21" width="215.5" height="128.2"/>
	<path class="st5" d="M598,257.5h-18.6c-1.1,0-2-0.9-2-2v-63.7c0-1.1,0.9-2,2-2H598c1.1,0,2,0.9,2,2v63.8
		C600,256.7,599.1,257.5,598,257.5z"/>
	<path class="st5" d="M732.3,270.5H624.9c-2.2,0-4-1.8-4-4v-82.1c0-2.2,1.8-4,4-4h107.4c2.2,0,4,1.8,4,4v82.1
		C736.3,268.7,734.6,270.5,732.3,270.5z"/>
	<rect x="545.3" y="154.3" class="st4" width="215.3" height="127.1"/>
	<path class="st8" d="M800.5,294.8H505.4v9.4c0,4.4,3.6,8,8,8h279.1c4.4,0,8-3.6,8-8V294.8L800.5,294.8z"/>
	<path class="st22" d="M516.7,312.8h272.6c5.5,0,10-4.2,11-9.9H505.6C506.6,308.7,511.2,312.8,516.7,312.8z"/>
	<path class="st4" d="M800.5,294.8H505.4v9.4c0,4.4,3.6,8,8,8h279.1c4.4,0,8-3.6,8-8V294.8L800.5,294.8z"/>
	<rect x="572.1" y="184.8" class="st14" width="22.5" height="22.5"/>
	<rect x="572.5" y="184.9" class="st4" width="22.5" height="22.5"/>
	<rect x="572.5" y="184.9" class="st4" width="22.5" height="22.5"/>
	<rect x="572.1" y="207.2" class="st17" width="22.5" height="22.5"/>
	<rect x="572.5" y="207.6" class="st4" width="22.5" height="22.5"/>
	<rect x="572.1" y="229.8" class="st9" width="22.5" height="22.5"/>
	<rect x="572.5" y="230.1" class="st4" width="22.5" height="22.5"/>
	<path class="st8" d="M725.8,263.5H618.3c-2.2,0-4-1.8-4-4v-82.1c0-2.2,1.8-4,4-4h107.5c2.2,0,4,1.8,4,4v82.1
		C729.8,261.8,728,263.5,725.8,263.5z"/>
	<path class="st4" d="M725.8,263.5H618.3c-2.2,0-4-1.8-4-4v-82.1c0-2.2,1.8-4,4-4h107.5c2.2,0,4,1.8,4,4v82.1
		C729.8,261.8,728,263.5,725.8,263.5z"/>
	<g class="st23">
		<g>
			<polyline class="st24" points="696,239.9 696,241.4 694.5,241.4 			"/>
			<line class="st25" x1="692.6" y1="241.4" x2="650.7" y2="241.4"/>
			<polyline class="st24" points="649.7,241.4 648.2,241.4 648.2,239.9 			"/>
			<line class="st26" x1="648.2" y1="237.8" x2="648.2" y2="198.8"/>
			<polyline class="st24" points="648.2,197.8 648.2,196.2 649.7,196.2 			"/>
			<line class="st25" x1="651.6" y1="196.2" x2="693.5" y2="196.2"/>
			<polyline class="st24" points="694.5,196.2 696,196.2 696,197.8 			"/>
			<line class="st26" x1="696" y1="199.8" x2="696" y2="238.9"/>
		</g>
	</g>
	<g>
		<rect x="644.9" y="192.8" class="st8" width="7.1" height="7.1"/>
		<rect x="644.6" y="192.4" class="st27" width="7" height="7"/>
	</g>
	<g>
		<rect x="644.9" y="237.8" class="st8" width="7.1" height="7.1"/>
		<rect x="644.6" y="237.6" class="st27" width="7" height="7"/>
	</g>
	<g>
		<rect x="692.5" y="192.8" class="st8" width="7.1" height="7.1"/>
		<rect x="692.5" y="192.4" class="st27" width="7" height="7"/>
	</g>
	<g>
		<rect x="692.5" y="237.8" class="st8" width="7.1" height="7.1"/>
		<rect x="692.5" y="237.6" class="st27" width="7" height="7"/>
	</g>
	<g>
		<g>
			<polygon class="st8" points="583.8,219.2 590.9,234.4 597.8,237.9 602.6,233.2 599.1,226.2 			"/>
			<polygon class="st27" points="583.8,219.2 590.9,234.4 597.8,237.9 602.6,233.2 599.1,226.2 			"/>
			<circle class="st0" cx="592.8" cy="227.8" r="1.9"/>
			<line class="st28" x1="583.8" y1="219.2" x2="591.7" y2="227.1"/>
		</g>
		
			<rect x="598.6" y="234.8" transform="matrix(0.7071 -0.7071 0.7071 0.7071 8.5818 495.1295)" class="st8" width="6.8" height="4.9"/>
		
			<rect x="598.6" y="234.8" transform="matrix(0.7071 -0.7071 0.7071 0.7071 8.5818 495.1295)" class="st27" width="6.8" height="4.9"/>
	</g>
</g>
</svg>
