<?xml version="1.0" encoding="UTF-8"?><svg id="uuid-164c73cd-8a0d-44a6-b490-dc631ad8c176" xmlns="http://www.w3.org/2000/svg" viewBox="0 0 638.3 322.7"><defs><style>.uuid-7f5d0216-965d-485c-a3b2-6ed6ce1a3950{fill:#f6f9fd;}.uuid-5a3080dc-0bd2-45cc-a1f9-65ebe342ff4c{fill:#ff5252;}.uuid-44d24337-50ec-4ad2-9a8c-292bb1cd5b96{fill:#fff;}.uuid-fc30807b-48b7-4329-89c7-67c7a54837c6{fill:#ffa364;}.uuid-54729a6c-5673-4f99-9722-5a6bc85cc954{fill:#ff3e3e;}.uuid-5e88828d-f19f-4636-850c-585965fec171{fill:#6567c3;}.uuid-b502b6d3-6c84-461b-98cd-b798869d6f9e{fill:#cecece;}.uuid-b612b5d1-c772-4ed0-8f50-ceeff7adf679{fill:#bfcfe2;}.uuid-93da3d3a-1719-46f3-877a-766e7799b9b5{fill:#c9c9c9;}.uuid-24456060-de16-4ad7-9a8f-769024ee15f4{fill:#d0ddf0;}.uuid-544a264b-b9fc-4bfc-bdd9-2892b6ba4fec,.uuid-626b5f98-b470-4e39-b71c-325fd19ab0ad{fill:#1f3969;}.uuid-632ed9ad-f180-4714-976f-27ed29b2a3b1{fill:#2aa1ff;}.uuid-066bd12f-d117-4a64-8bec-1486ef93c146{fill:#2d425e;}.uuid-44c4ea2c-aebe-4236-ae56-7d1344c9f948{fill:#5f5aff;}.uuid-a1c07b0c-8cf8-4734-8f71-94d4b380c5f8{fill:#50b56f;}.uuid-0f2341ff-6be5-4df2-b1f1-d7023d4624e9,.uuid-594a2624-591e-4576-a26a-bdfe956238db{stroke-width:2px;}.uuid-0f2341ff-6be5-4df2-b1f1-d7023d4624e9,.uuid-594a2624-591e-4576-a26a-bdfe956238db,.uuid-ddd57b32-fc8b-4ce3-8ca0-cc1c6b32322c,.uuid-8a085180-663b-4c36-b22e-22d3215be660,.uuid-e6f8d6da-d1d7-4a42-af7f-0cda05ed9ad4,.uuid-c28783b8-0379-4a5f-a100-d414839141d4,.uuid-af57dcac-a855-4573-b9e3-9bb835b77792,.uuid-0e11a5f8-4420-4b29-9a2d-ef592bb3909e,.uuid-64609fbb-3fac-4702-a26e-ff0832db8b0d,.uuid-23b3a987-96e1-4889-abde-82d1268e8386{fill:none;}.uuid-0f2341ff-6be5-4df2-b1f1-d7023d4624e9,.uuid-594a2624-591e-4576-a26a-bdfe956238db,.uuid-ddd57b32-fc8b-4ce3-8ca0-cc1c6b32322c,.uuid-8a085180-663b-4c36-b22e-22d3215be660,.uuid-e6f8d6da-d1d7-4a42-af7f-0cda05ed9ad4,.uuid-c28783b8-0379-4a5f-a100-d414839141d4,.uuid-af57dcac-a855-4573-b9e3-9bb835b77792,.uuid-0e11a5f8-4420-4b29-9a2d-ef592bb3909e,.uuid-64609fbb-3fac-4702-a26e-ff0832db8b0d,.uuid-23b3a987-96e1-4889-abde-82d1268e8386,.uuid-626b5f98-b470-4e39-b71c-325fd19ab0ad{stroke-linecap:round;stroke-linejoin:round;}.uuid-0f2341ff-6be5-4df2-b1f1-d7023d4624e9,.uuid-594a2624-591e-4576-a26a-bdfe956238db,.uuid-e6f8d6da-d1d7-4a42-af7f-0cda05ed9ad4{stroke:#fff;}.uuid-0f2341ff-6be5-4df2-b1f1-d7023d4624e9,.uuid-626b5f98-b470-4e39-b71c-325fd19ab0ad{isolation:isolate;}.uuid-0f2341ff-6be5-4df2-b1f1-d7023d4624e9,.uuid-e86ff662-d45e-410b-8d2f-3fef1b8854c1{opacity:.34;}.uuid-ddd57b32-fc8b-4ce3-8ca0-cc1c6b32322c{stroke:#ffc47d;}.uuid-ddd57b32-fc8b-4ce3-8ca0-cc1c6b32322c,.uuid-8a085180-663b-4c36-b22e-22d3215be660,.uuid-e6f8d6da-d1d7-4a42-af7f-0cda05ed9ad4,.uuid-af57dcac-a855-4573-b9e3-9bb835b77792,.uuid-0e11a5f8-4420-4b29-9a2d-ef592bb3909e,.uuid-64609fbb-3fac-4702-a26e-ff0832db8b0d,.uuid-626b5f98-b470-4e39-b71c-325fd19ab0ad{stroke-width:4px;}.uuid-8a085180-663b-4c36-b22e-22d3215be660{stroke:#ff5757;}.uuid-c28783b8-0379-4a5f-a100-d414839141d4{stroke-width:4px;}.uuid-c28783b8-0379-4a5f-a100-d414839141d4,.uuid-af57dcac-a855-4573-b9e3-9bb835b77792,.uuid-23b3a987-96e1-4889-abde-82d1268e8386,.uuid-626b5f98-b470-4e39-b71c-325fd19ab0ad{stroke:#1f3969;}.uuid-0e11a5f8-4420-4b29-9a2d-ef592bb3909e{stroke:#7bffa0;}.uuid-64609fbb-3fac-4702-a26e-ff0832db8b0d{stroke:#9169ff;}.uuid-23b3a987-96e1-4889-abde-82d1268e8386{stroke-width:4px;}.uuid-626b5f98-b470-4e39-b71c-325fd19ab0ad{opacity:.28;}</style></defs><path class="uuid-93da3d3a-1719-46f3-877a-766e7799b9b5" d="M629.3,322.7H9c-5,0-9-4-9-9H0c0-5,4-9,9-9H629.3c5,0,9,4,9,9h0c0,5-4,9-9,9Z"/><g><g><path class="uuid-b502b6d3-6c84-461b-98cd-b798869d6f9e" d="M125.7,229.7c-9.6,0-17.3-7.8-17.3-17.3s7.8-17.3,17.3-17.3h98v34.7H125.7v-.1Z"/><path class="uuid-44d24337-50ec-4ad2-9a8c-292bb1cd5b96" d="M229.4,235.7H125.7c-12.9,0-23.3-10.5-23.3-23.3h0c0-12.9,10.5-23.3,23.3-23.3h103.7v46.6h0Z"/><line class="uuid-af57dcac-a855-4573-b9e3-9bb835b77792" x1="119.3" y1="207" x2="223.7" y2="207"/><line class="uuid-af57dcac-a855-4573-b9e3-9bb835b77792" x1="119.3" y1="217.6" x2="223.7" y2="217.6"/><path class="uuid-af57dcac-a855-4573-b9e3-9bb835b77792" d="M125.7,229.7c-9.6,0-17.3-7.8-17.3-17.3s7.8-17.3,17.3-17.3h98v34.7H125.7v-.1Z"/><path class="uuid-54729a6c-5673-4f99-9722-5a6bc85cc954" d="M125.7,229.7c-9.6,0-17.3-7.8-17.3-17.3s7.8-17.3,17.3-17.3h99.7l4-6H125.7c-12.9,0-23.3,10.5-23.3,23.3h0c0,12.9,10.5,23.3,23.3,23.3h103.7l-4-6H125.7Z"/><path class="uuid-af57dcac-a855-4573-b9e3-9bb835b77792" d="M125.7,229.7c-9.6,0-17.3-7.8-17.3-17.3s7.8-17.3,17.3-17.3h99.7l4-6H125.7c-12.9,0-23.3,10.5-23.3,23.3h0c0,12.9,10.5,23.3,23.3,23.3h103.7l-4-6H125.7Z"/><rect class="uuid-626b5f98-b470-4e39-b71c-325fd19ab0ad" x="188.7" y="189" width="18.4" height="46.7"/></g><g><path class="uuid-a1c07b0c-8cf8-4734-8f71-94d4b380c5f8" d="M218.7,274.2H28.8c-3.7,0-6.8-3-6.8-6.8v-25c0-3.7,3-6.8,6.8-6.8H218.7c3.7,0,6.8,3,6.8,6.8v25c0,3.8-3,6.8-6.8,6.8Z"/><g><path class="uuid-44d24337-50ec-4ad2-9a8c-292bb1cd5b96" d="M80.1,256.2h-2.6v5.5h-1.7v-13.3h4.3c3.1,0,4.6,1.7,4.6,3.9,0,2-1.3,3.9-4.6,3.9Zm0-1.5c2,0,2.8-.9,2.8-2.4s-.8-2.5-2.8-2.5h-2.6v4.9h2.6Z"/><path class="uuid-44d24337-50ec-4ad2-9a8c-292bb1cd5b96" d="M89.5,248.4h1.9l3.3,6.7,3.3-6.7h1.9l-4.3,8.3v5h-1.7v-5l-4.4-8.3Z"/><path class="uuid-44d24337-50ec-4ad2-9a8c-292bb1cd5b96" d="M104.7,248.4h9v1.4h-3.6v11.9h-1.7v-11.9h-3.6v-1.4h-.1Z"/><path class="uuid-44d24337-50ec-4ad2-9a8c-292bb1cd5b96" d="M128.2,255.7h-6.8v6h-1.7v-13.3h1.7v5.8h6.8v-5.8h1.7v13.3h-1.7v-6Z"/><path class="uuid-44d24337-50ec-4ad2-9a8c-292bb1cd5b96" d="M142.7,261.8c-3.7,0-6.7-2.8-6.7-6.8s2.9-6.8,6.7-6.8,6.7,2.8,6.7,6.8c-.1,4-3,6.8-6.7,6.8Zm0-1.5c2.8,0,4.9-2,4.9-5.3s-2.1-5.3-4.9-5.3-4.9,2-4.9,5.3,2.1,5.3,4.9,5.3Z"/><path class="uuid-44d24337-50ec-4ad2-9a8c-292bb1cd5b96" d="M165.9,248.4v13.3h-1.7l-7-10.6v10.6h-1.7v-13.3h1.7l7,10.5v-10.5h1.7Z"/></g><path class="uuid-af57dcac-a855-4573-b9e3-9bb835b77792" d="M218.7,274.2H28.8c-3.7,0-6.8-3-6.8-6.8v-25c0-3.7,3-6.8,6.8-6.8H218.7c3.7,0,6.8,3,6.8,6.8v25c0,3.8-3,6.8-6.8,6.8Z"/></g><path class="uuid-626b5f98-b470-4e39-b71c-325fd19ab0ad" d="M218.7,235.7h-30v15c0,9.4,7.6,17.1,17.1,17.1h19.7v-25.3c0-3.8-3-6.8-6.8-6.8Z"/><path class="uuid-b502b6d3-6c84-461b-98cd-b798869d6f9e" d="M272.2,282H52.2c1.3,3.2,2,7.2,2,11.4s-.7,8.1-2,11.4h219.9c-1.3-3.2-2-7.2-2-11.4,.1-4.3,.8-8.2,2.1-11.4Z"/><rect class="uuid-44c4ea2c-aebe-4236-ae56-7d1344c9f948" x="46.3" y="275.9" width="231.9" height="6"/><rect class="uuid-af57dcac-a855-4573-b9e3-9bb835b77792" x="46.3" y="275.9" width="231.9" height="6"/><rect class="uuid-7f5d0216-965d-485c-a3b2-6ed6ce1a3950" x="46.3" y="304.7" width="231.9" height="6"/><rect class="uuid-44c4ea2c-aebe-4236-ae56-7d1344c9f948" x="46.3" y="304.7" width="231.9" height="6"/><rect class="uuid-af57dcac-a855-4573-b9e3-9bb835b77792" x="46.3" y="304.7" width="231.9" height="6"/><path class="uuid-b612b5d1-c772-4ed0-8f50-ceeff7adf679" d="M393.4,289.4l-3-33.7h-49.4l-3,33.7c-.7,7.8-5.4,15.3-12.8,21.3v.1h81v-.1c-7.4-6-12.1-13.5-12.8-21.3Z"/><polygon class="uuid-626b5f98-b470-4e39-b71c-325fd19ab0ad" points="341 255.7 339.2 275.9 392.2 275.9 390.4 255.7 341 255.7"/><path class="uuid-af57dcac-a855-4573-b9e3-9bb835b77792" d="M393.4,289.4l-3-33.7h-49.4l-3,33.7c-.7,7.8-5.4,15.3-12.8,21.3v.1h81v-.1c-7.4-6-12.1-13.5-12.8-21.3Z"/><path class="uuid-44d24337-50ec-4ad2-9a8c-292bb1cd5b96" d="M523.7,260.7H207.7c-6.6,0-12-5.4-12-12V42.7c0-6.6,5.4-12,12-12h316c6.6,0,12,5.4,12,12V248.7c0,6.7-5.4,12-12,12Z"/><path class="uuid-b612b5d1-c772-4ed0-8f50-ceeff7adf679" d="M523.7,260.7H207.7c-6.6,0-12-5.4-12-12V42.7c0-6.6,5.4-12,12-12h316c6.6,0,12,5.4,12,12V248.7c0,6.7-5.4,12-12,12Z"/><path class="uuid-af57dcac-a855-4573-b9e3-9bb835b77792" d="M523.7,260.7H207.7c-6.6,0-12-5.4-12-12V42.7c0-6.6,5.4-12,12-12h316c6.6,0,12,5.4,12,12V248.7c0,6.7-5.4,12-12,12Z"/><rect class="uuid-7f5d0216-965d-485c-a3b2-6ed6ce1a3950" x="212.76" y="47.73" width="306" height="174.6"/><path class="uuid-626b5f98-b470-4e39-b71c-325fd19ab0ad" d="M223.7,30.7V169.3c0,4.4,3.6,8,8,8h189.1c4.4,0,8-3.6,8-8V30.7H223.7Z"/><rect class="uuid-af57dcac-a855-4573-b9e3-9bb835b77792" x="212.76" y="47.73" width="306" height="174.6"/><line class="uuid-af57dcac-a855-4573-b9e3-9bb835b77792" x1="352.3" y1="241.4" x2="379.2" y2="241.4"/><path class="uuid-066bd12f-d117-4a64-8bec-1486ef93c146" d="M429.8,166.3H240.7c-4.4,0-8-3.6-8-8V10.1c0-4.4,3.6-8,8-8h189.1c4.4,0,8,3.6,8,8V158.4c0,4.4-3.6,7.9-8,7.9Z"/><path class="uuid-af57dcac-a855-4573-b9e3-9bb835b77792" d="M437.8,21.5H232.7V10c0-4.4,3.6-8,8-8h189.1c4.4,0,8,3.6,8,8v11.5Z"/><path class="uuid-24456060-de16-4ad7-9a8f-769024ee15f4" d="M437.8,25.3H232.7V10c0-4.4,3.6-8,8-8h189.1c4.4,0,8,3.6,8,8v15.3Z"/><path class="uuid-af57dcac-a855-4573-b9e3-9bb835b77792" d="M437.8,25.3H232.7V10c0-4.4,3.6-8,8-8h189.1c4.4,0,8,3.6,8,8v15.3Z"/><path class="uuid-af57dcac-a855-4573-b9e3-9bb835b77792" d="M437.8,25.3H232.7V10c0-4.4,3.6-8,8-8h189.1c4.4,0,8,3.6,8,8v15.3Z"/><path class="uuid-af57dcac-a855-4573-b9e3-9bb835b77792" d="M429.8,166.3H240.7c-4.4,0-8-3.6-8-8V10.1c0-4.4,3.6-8,8-8h189.1c4.4,0,8,3.6,8,8V158.4c0,4.4-3.6,7.9-8,7.9Z"/><g><path class="uuid-626b5f98-b470-4e39-b71c-325fd19ab0ad" d="M528.5,201.7h-116c-4.4,0-8-3.6-8-8V70.8c0-4.4,3.6-8,8-8h116c4.4,0,8,3.6,8,8v122.9c0,4.5-3.6,8-8,8Z"/><path class="uuid-632ed9ad-f180-4714-976f-27ed29b2a3b1" d="M536.5,194.7h-116c-4.4,0-8-3.6-8-8V63.8c0-4.4,3.6-8,8-8h116c4.4,0,8,3.6,8,8v122.9c0,4.5-3.6,8-8,8Z"/><path class="uuid-af57dcac-a855-4573-b9e3-9bb835b77792" d="M536.5,194.7h-116c-4.4,0-8-3.6-8-8V63.8c0-4.4,3.6-8,8-8h116c4.4,0,8,3.6,8,8v122.9c0,4.5-3.6,8-8,8Z"/><path class="uuid-0f2341ff-6be5-4df2-b1f1-d7023d4624e9" d="M519.2,93.9h-81.6c-2.9,0-5.2-2.3-5.2-5.2v-7.8c0-2.9,2.3-5.2,5.2-5.2h81.6c2.9,0,5.2,2.3,5.2,5.2v7.8c0,2.9-2.3,5.2-5.2,5.2Z"/><g class="uuid-e86ff662-d45e-410b-8d2f-3fef1b8854c1"><path class="uuid-594a2624-591e-4576-a26a-bdfe956238db" d="M483.4,123.2h-45.6c-2.9,0-5.2-2.3-5.2-5.2v-7.8c0-2.9,2.3-5.2,5.2-5.2h45.6c2.9,0,5.2,2.3,5.2,5.2v7.8c-.1,2.9-2.4,5.2-5.2,5.2Z"/><path class="uuid-594a2624-591e-4576-a26a-bdfe956238db" d="M519.3,123.2h-17.7c-2.9,0-5.2-2.3-5.2-5.2v-7.8c0-2.9,2.3-5.2,5.2-5.2h17.7c2.9,0,5.2,2.3,5.2,5.2v7.8c0,2.9-2.3,5.2-5.2,5.2Z"/></g><g><line class="uuid-594a2624-591e-4576-a26a-bdfe956238db" x1="432.5" y1="153.6" x2="524.4" y2="153.6"/><line class="uuid-594a2624-591e-4576-a26a-bdfe956238db" x1="432.5" y1="164.4" x2="524.4" y2="164.4"/><line class="uuid-594a2624-591e-4576-a26a-bdfe956238db" x1="432.5" y1="175.2" x2="488.5" y2="175.2"/></g></g><circle class="uuid-544a264b-b9fc-4bfc-bdd9-2892b6ba4fec" cx="252.8" cy="13.7" r="4"/><circle class="uuid-544a264b-b9fc-4bfc-bdd9-2892b6ba4fec" cx="266.7" cy="13.7" r="4"/><circle class="uuid-544a264b-b9fc-4bfc-bdd9-2892b6ba4fec" cx="280.6" cy="13.7" r="4"/><g><line class="uuid-e6f8d6da-d1d7-4a42-af7f-0cda05ed9ad4" x1="350.5" y1="43.8" x2="363.5" y2="43.8"/><line class="uuid-0e11a5f8-4420-4b29-9a2d-ef592bb3909e" x1="284.6" y1="43.8" x2="340.9" y2="43.8"/><line class="uuid-64609fbb-3fac-4702-a26e-ff0832db8b0d" x1="256.8" y1="43.8" x2="276.6" y2="43.8"/></g><g><line class="uuid-64609fbb-3fac-4702-a26e-ff0832db8b0d" x1="282.6" y1="142.3" x2="325.6" y2="142.3"/><line class="uuid-0e11a5f8-4420-4b29-9a2d-ef592bb3909e" x1="256.8" y1="142.3" x2="270.7" y2="142.3"/></g><g><line class="uuid-e6f8d6da-d1d7-4a42-af7f-0cda05ed9ad4" x1="340.9" y1="56.1" x2="349" y2="56.1"/><line class="uuid-64609fbb-3fac-4702-a26e-ff0832db8b0d" x1="304.1" y1="56.1" x2="331.3" y2="56.1"/><line class="uuid-ddd57b32-fc8b-4ce3-8ca0-cc1c6b32322c" x1="266.7" y1="56.1" x2="294.4" y2="56.1"/></g><g><line class="uuid-e6f8d6da-d1d7-4a42-af7f-0cda05ed9ad4" x1="309.6" y1="68.4" x2="333.5" y2="68.4"/><line class="uuid-8a085180-663b-4c36-b22e-22d3215be660" x1="279.6" y1="68.4" x2="302.1" y2="68.4"/></g><g><line class="uuid-e6f8d6da-d1d7-4a42-af7f-0cda05ed9ad4" x1="312.8" y1="80.7" x2="317.7" y2="80.7"/><line class="uuid-64609fbb-3fac-4702-a26e-ff0832db8b0d" x1="293" y1="80.7" x2="304.1" y2="80.7"/><line class="uuid-0e11a5f8-4420-4b29-9a2d-ef592bb3909e" x1="266.7" y1="80.7" x2="284.6" y2="80.7"/></g><g><line class="uuid-ddd57b32-fc8b-4ce3-8ca0-cc1c6b32322c" x1="305.1" y1="93.1" x2="337" y2="93.1"/><line class="uuid-8a085180-663b-4c36-b22e-22d3215be660" x1="266.7" y1="93.1" x2="295.3" y2="93.1"/></g><g><line class="uuid-64609fbb-3fac-4702-a26e-ff0832db8b0d" x1="342" y1="105.4" x2="359.3" y2="105.4"/><line class="uuid-8a085180-663b-4c36-b22e-22d3215be660" x1="305.1" y1="105.4" x2="332.8" y2="105.4"/><line class="uuid-0e11a5f8-4420-4b29-9a2d-ef592bb3909e" x1="279.6" y1="105.4" x2="295.3" y2="105.4"/></g><g><line class="uuid-e6f8d6da-d1d7-4a42-af7f-0cda05ed9ad4" x1="317.7" y1="117.7" x2="332.8" y2="117.7"/><line class="uuid-64609fbb-3fac-4702-a26e-ff0832db8b0d" x1="279.6" y1="117.7" x2="307.3" y2="117.7"/></g><g><line class="uuid-e6f8d6da-d1d7-4a42-af7f-0cda05ed9ad4" x1="357" y1="130" x2="374.3" y2="130"/><line class="uuid-ddd57b32-fc8b-4ce3-8ca0-cc1c6b32322c" x1="304.1" y1="130" x2="347.6" y2="130"/><line class="uuid-e6f8d6da-d1d7-4a42-af7f-0cda05ed9ad4" x1="266.7" y1="130" x2="294.4" y2="130"/></g><line class="uuid-af57dcac-a855-4573-b9e3-9bb835b77792" x1="54.7" y1="288.9" x2="270.2" y2="288.9"/><line class="uuid-af57dcac-a855-4573-b9e3-9bb835b77792" x1="54.7" y1="296.9" x2="270.2" y2="296.9"/><path class="uuid-af57dcac-a855-4573-b9e3-9bb835b77792" d="M272.2,282H52.2c1.3,3.2,2,7.2,2,11.4s-.7,8.1-2,11.4h219.9c-1.3-3.2-2-7.2-2-11.4,.1-4.3,.8-8.2,2.1-11.4Z"/></g><g><g><rect class="uuid-fc30807b-48b7-4329-89c7-67c7a54837c6" x="562.62" y="200.79" width="9.8" height="72.6" transform="translate(-23.77 67.79) rotate(-6.7)"/><rect class="uuid-632ed9ad-f180-4714-976f-27ed29b2a3b1" x="558.83" y="201.09" width="9.8" height="7.4" transform="translate(-20.03 67.13) rotate(-6.7)"/><rect class="uuid-c28783b8-0379-4a5f-a100-d414839141d4" x="558.83" y="201.09" width="9.8" height="7.4" transform="translate(-20.03 67.13) rotate(-6.7)"/><rect class="uuid-c28783b8-0379-4a5f-a100-d414839141d4" x="562.62" y="200.79" width="9.8" height="72.6" transform="translate(-23.77 67.79) rotate(-6.7)"/></g><g><rect class="uuid-5a3080dc-0bd2-45cc-a1f9-65ebe342ff4c" x="549.75" y="245.9" width="72.6" height="9.8" transform="translate(273.36 806.29) rotate(-83.79)"/><rect class="uuid-23b3a987-96e1-4889-abde-82d1268e8386" x="549.75" y="245.9" width="72.6" height="9.8" transform="translate(273.36 806.29) rotate(-83.79)"/><rect class="uuid-066bd12f-d117-4a64-8bec-1486ef93c146" x="585.94" y="213.51" width="7.4" height="9.8" transform="translate(308.77 780.98) rotate(-83.79)"/><rect class="uuid-23b3a987-96e1-4889-abde-82d1268e8386" x="585.94" y="213.51" width="7.4" height="9.8" transform="translate(308.77 780.98) rotate(-83.79)"/></g><polygon class="uuid-5e88828d-f19f-4636-850c-585965fec171" points="600.9 311 561.6 311 555.2 250.8 607.3 250.8 600.9 311"/><polygon class="uuid-5e88828d-f19f-4636-850c-585965fec171" points="555.2 250.8 555.3 251.9 595 251.9 588.7 311 600.9 311 607.3 250.8 555.2 250.8"/><polygon class="uuid-af57dcac-a855-4573-b9e3-9bb835b77792" points="600.9 311 561.6 311 555.2 250.8 607.3 250.8 600.9 311"/></g></svg>