<?xml version="1.0" encoding="utf-8"?>
<!-- Generator: Adobe Illustrator 26.5.0, SVG Export Plug-In . SVG Version: 6.00 Build 0)  -->
<svg version="1.1" id="uuid-164c73cd-8a0d-44a6-b490-dc631ad8c176"
	 xmlns="http://www.w3.org/2000/svg" xmlns:xlink="http://www.w3.org/1999/xlink" x="0px" y="0px" viewBox="0 0 850 322"
	 style="enable-background:new 0 0 850 322;" xml:space="preserve">
<style type="text/css">
	.st0{fill:#C9C9C9;}
	.st1{fill:#CECECE;}
	.st2{fill:#FFFFFF;}
	.st3{fill:none;stroke:#1F3969;stroke-width:4;stroke-linecap:round;stroke-linejoin:round;}
	.st4{fill:#FF3E3E;}
	
		.st5{opacity:0.28;fill:#1F3969;stroke:#1F3969;stroke-width:4;stroke-linecap:round;stroke-linejoin:round;enable-background:new    ;}
	.st6{fill:#50B56F;}
	.st7{fill:#5F5AFF;}
	.st8{fill:#F6F9FD;}
	.st9{fill:#BFCFE2;}
	.st10{fill:#2D425E;}
	.st11{fill:#D0DDF0;}
	.st12{fill:#2AA1FF;}
	
		.st13{opacity:0.34;fill:none;stroke:#FFFFFF;stroke-width:2;stroke-linecap:round;stroke-linejoin:round;enable-background:new    ;}
	.st14{opacity:0.34;}
	.st15{fill:none;stroke:#FFFFFF;stroke-width:2;stroke-linecap:round;stroke-linejoin:round;}
	.st16{fill:#1F3969;}
	.st17{fill:none;stroke:#FFFFFF;stroke-width:4;stroke-linecap:round;stroke-linejoin:round;}
	.st18{fill:none;stroke:#7BFFA0;stroke-width:4;stroke-linecap:round;stroke-linejoin:round;}
	.st19{fill:none;stroke:#9169FF;stroke-width:4;stroke-linecap:round;stroke-linejoin:round;}
	.st20{fill:none;stroke:#FFC47D;stroke-width:4;stroke-linecap:round;stroke-linejoin:round;}
	.st21{fill:none;stroke:#FF5757;stroke-width:4;stroke-linecap:round;stroke-linejoin:round;}
	.st22{fill:#FFA364;}
	.st23{fill:#FF5252;}
	.st24{fill:#6567C3;}
</style>
<path class="st0" d="M735.2,321.5H114.9c-5,0-9-4-9-9l0,0c0-5,4-9,9-9h620.3c5,0,9,4,9,9l0,0C744.2,317.5,740.2,321.5,735.2,321.5z"
	/>
<g>
	<g>
		<path class="st1" d="M231.6,228.5c-9.6,0-17.3-7.8-17.3-17.3s7.8-17.3,17.3-17.3h98v34.7h-98V228.5L231.6,228.5z"/>
		<path class="st2" d="M335.2,234.5H231.6c-12.9,0-23.3-10.5-23.3-23.3l0,0c0-12.9,10.5-23.3,23.3-23.3h103.7V234.5L335.2,234.5
			L335.2,234.5z"/>
		<line class="st3" x1="225.2" y1="205.8" x2="329.5" y2="205.8"/>
		<line class="st3" x1="225.2" y1="216.4" x2="329.5" y2="216.4"/>
		<path class="st3" d="M231.6,228.5c-9.6,0-17.3-7.8-17.3-17.3s7.8-17.3,17.3-17.3h98v34.7h-98V228.5L231.6,228.5z"/>
		<path class="st4" d="M231.6,228.5c-9.6,0-17.3-7.8-17.3-17.3s7.8-17.3,17.3-17.3h99.7l4-6H231.6c-12.9,0-23.3,10.5-23.3,23.3l0,0
			c0,12.9,10.5,23.3,23.3,23.3h103.7l-4-6H231.6z"/>
		<path class="st3" d="M231.6,228.5c-9.6,0-17.3-7.8-17.3-17.3s7.8-17.3,17.3-17.3h99.7l4-6H231.6c-12.9,0-23.3,10.5-23.3,23.3l0,0
			c0,12.9,10.5,23.3,23.3,23.3h103.7l-4-6H231.6z"/>
		<rect x="294.5" y="187.8" class="st5" width="18.4" height="46.7"/>
	</g>
	<g>
		<path class="st6" d="M324.5,273H134.7c-3.7,0-6.8-3-6.8-6.8v-25c0-3.7,3-6.8,6.8-6.8h189.9c3.7,0,6.8,3,6.8,6.8v25
			C331.4,270,328.4,273,324.5,273z"/>
		<g>
			<path class="st2" d="M186,255h-2.6v5.5h-1.7v-13.3h4.3c3.1,0,4.6,1.7,4.6,3.9C190.6,253.1,189.2,255,186,255z M186,253.5
				c2,0,2.8-0.9,2.8-2.4s-0.8-2.5-2.8-2.5h-2.6v4.9H186z"/>
			<path class="st2" d="M195.4,247.2h1.9l3.3,6.7l3.3-6.7h1.9l-4.3,8.3v5h-1.7v-5L195.4,247.2L195.4,247.2z"/>
			<path class="st2" d="M210.6,247.2h9v1.4H216v11.9h-1.7v-11.9h-3.6v-1.4C210.7,247.2,210.6,247.2,210.6,247.2z"/>
			<path class="st2" d="M234.1,254.5h-6.8v6h-1.7v-13.3h1.7v5.8h6.8v-5.8h1.7v13.3h-1.7V254.5L234.1,254.5z"/>
			<path class="st2" d="M248.6,260.6c-3.7,0-6.7-2.8-6.7-6.8c0-4,2.9-6.8,6.7-6.8s6.7,2.8,6.7,6.8
				C255.1,257.8,252.2,260.6,248.6,260.6z M248.6,259.1c2.8,0,4.9-2,4.9-5.3c0-3.3-2.1-5.3-4.9-5.3s-4.9,2-4.9,5.3
				C243.7,257.1,245.8,259.1,248.6,259.1z"/>
			<path class="st2" d="M271.8,247.2v13.3H270l-7-10.6v10.6h-1.7v-13.3h1.7l7,10.5v-10.5L271.8,247.2L271.8,247.2z"/>
		</g>
		<path class="st3" d="M324.5,273H134.7c-3.7,0-6.8-3-6.8-6.8v-25c0-3.7,3-6.8,6.8-6.8h189.9c3.7,0,6.8,3,6.8,6.8v25
			C331.4,270,328.4,273,324.5,273z"/>
	</g>
	<path class="st5" d="M324.5,234.5h-30v15c0,9.4,7.6,17.1,17.1,17.1h19.7v-25.3C331.4,237.5,328.4,234.5,324.5,234.5L324.5,234.5z"
		/>
	<path class="st1" d="M378.1,280.8h-220c1.3,3.2,2,7.2,2,11.4s-0.7,8.1-2,11.4H378c-1.3-3.2-2-7.2-2-11.4
		C376.1,287.9,376.8,284,378.1,280.8z"/>
	<rect x="152.2" y="274.7" class="st7" width="231.9" height="6"/>
	<rect x="152.2" y="274.7" class="st3" width="231.9" height="6"/>
	<rect x="152.2" y="303.5" class="st8" width="231.9" height="6"/>
	<rect x="152.2" y="303.5" class="st7" width="231.9" height="6"/>
	<rect x="152.2" y="303.5" class="st3" width="231.9" height="6"/>
	<path class="st9" d="M499.2,288.2l-3-33.7h-49.4l-3,33.7c-0.7,7.8-5.4,15.3-12.8,21.3v0.1h81v-0.1C504.7,303.5,500,296,499.2,288.2
		L499.2,288.2z"/>
	<polygon class="st5" points="446.9,254.5 445.1,274.7 498.1,274.7 496.2,254.5 	"/>
	<path class="st3" d="M499.2,288.2l-3-33.7h-49.4l-3,33.7c-0.7,7.8-5.4,15.3-12.8,21.3v0.1h81v-0.1C504.7,303.5,500,296,499.2,288.2
		L499.2,288.2z"/>
	<path class="st2" d="M629.6,259.5h-316c-6.6,0-12-5.4-12-12v-206c0-6.6,5.4-12,12-12h316c6.6,0,12,5.4,12,12v206
		C641.6,254.2,636.2,259.5,629.6,259.5z"/>
	<path class="st9" d="M629.6,259.5h-316c-6.6,0-12-5.4-12-12v-206c0-6.6,5.4-12,12-12h316c6.6,0,12,5.4,12,12v206
		C641.6,254.2,636.2,259.5,629.6,259.5z"/>
	<path class="st3" d="M629.6,259.5h-316c-6.6,0-12-5.4-12-12v-206c0-6.6,5.4-12,12-12h316c6.6,0,12,5.4,12,12v206
		C641.6,254.2,636.2,259.5,629.6,259.5z"/>
	<rect x="318.6" y="46.5" class="st8" width="306" height="174.6"/>
	<path class="st5" d="M329.5,29.5v138.6c0,4.4,3.6,8,8,8h189.1c4.4,0,8-3.6,8-8V29.5H329.5z"/>
	<rect x="318.6" y="46.5" class="st3" width="306" height="174.6"/>
	<line class="st3" x1="458.1" y1="240.2" x2="485.1" y2="240.2"/>
	<path class="st10" d="M535.7,165.1H346.5c-4.4,0-8-3.6-8-8V8.9c0-4.4,3.6-8,8-8h189.1c4.4,0,8,3.6,8,8v148.3
		C543.7,161.6,540,165.1,535.7,165.1L535.7,165.1z"/>
	<path class="st3" d="M543.7,20.3H338.5V8.8c0-4.4,3.6-8,8-8h189.1c4.4,0,8,3.6,8,8V20.3z"/>
	<path class="st11" d="M543.7,24.1H338.5V8.8c0-4.4,3.6-8,8-8h189.1c4.4,0,8,3.6,8,8V24.1z"/>
	<path class="st3" d="M543.7,24.1H338.5V8.8c0-4.4,3.6-8,8-8h189.1c4.4,0,8,3.6,8,8V24.1z"/>
	<path class="st3" d="M543.7,24.1H338.5V8.8c0-4.4,3.6-8,8-8h189.1c4.4,0,8,3.6,8,8V24.1z"/>
	<path class="st3" d="M535.7,165.1H346.5c-4.4,0-8-3.6-8-8V8.9c0-4.4,3.6-8,8-8h189.1c4.4,0,8,3.6,8,8v148.3
		C543.7,161.6,540,165.1,535.7,165.1L535.7,165.1z"/>
	<g>
		<path class="st5" d="M634.3,200.5h-116c-4.4,0-8-3.6-8-8V69.6c0-4.4,3.6-8,8-8h116c4.4,0,8,3.6,8,8v122.9
			C642.3,197,638.8,200.5,634.3,200.5L634.3,200.5z"/>
		<path class="st12" d="M642.3,193.5h-116c-4.4,0-8-3.6-8-8V62.6c0-4.4,3.6-8,8-8h116c4.4,0,8,3.6,8,8v122.9
			C650.3,190,646.8,193.5,642.3,193.5z"/>
		<path class="st3" d="M642.3,193.5h-116c-4.4,0-8-3.6-8-8V62.6c0-4.4,3.6-8,8-8h116c4.4,0,8,3.6,8,8v122.9
			C650.3,190,646.8,193.5,642.3,193.5z"/>
		<path class="st13" d="M625.1,92.7h-81.6c-2.9,0-5.2-2.3-5.2-5.2v-7.8c0-2.9,2.3-5.2,5.2-5.2h81.6c2.9,0,5.2,2.3,5.2,5.2v7.8
			C630.2,90.4,628,92.7,625.1,92.7z"/>
		<g class="st14">
			<path class="st15" d="M589.2,122h-45.6c-2.9,0-5.2-2.3-5.2-5.2V109c0-2.9,2.3-5.2,5.2-5.2h45.6c2.9,0,5.2,2.3,5.2,5.2v7.8
				C594.3,119.7,592.1,122,589.2,122z"/>
			<path class="st15" d="M625.2,122h-17.7c-2.9,0-5.2-2.3-5.2-5.2V109c0-2.9,2.3-5.2,5.2-5.2h17.7c2.9,0,5.2,2.3,5.2,5.2v7.8
				C630.3,119.7,628.1,122,625.2,122z"/>
		</g>
		<g>
			<line class="st15" x1="538.3" y1="152.4" x2="630.2" y2="152.4"/>
			<line class="st15" x1="538.3" y1="163.2" x2="630.2" y2="163.2"/>
			<line class="st15" x1="538.3" y1="174" x2="594.3" y2="174"/>
		</g>
	</g>
	<ellipse transform="matrix(0.1514 -0.9885 0.9885 0.1514 292.0135 365.1009)" class="st16" cx="358.6" cy="12.5" rx="4" ry="4"/>
	<circle class="st16" cx="372.6" cy="12.5" r="4"/>
	<circle class="st16" cx="386.5" cy="12.5" r="4"/>
	<g>
		<line class="st17" x1="456.4" y1="42.6" x2="469.4" y2="42.6"/>
		<line class="st18" x1="390.5" y1="42.6" x2="446.8" y2="42.6"/>
		<line class="st19" x1="362.6" y1="42.6" x2="382.5" y2="42.6"/>
	</g>
	<g>
		<line class="st19" x1="388.5" y1="141.1" x2="431.5" y2="141.1"/>
		<line class="st18" x1="362.6" y1="141.1" x2="376.6" y2="141.1"/>
	</g>
	<g>
		<line class="st17" x1="446.8" y1="54.9" x2="454.9" y2="54.9"/>
		<line class="st19" x1="410" y1="54.9" x2="437.1" y2="54.9"/>
		<line class="st20" x1="372.6" y1="54.9" x2="400.2" y2="54.9"/>
	</g>
	<g>
		<line class="st17" x1="415.5" y1="67.2" x2="439.4" y2="67.2"/>
		<line class="st21" x1="385.5" y1="67.2" x2="408" y2="67.2"/>
	</g>
	<g>
		<line class="st17" x1="418.6" y1="79.5" x2="423.6" y2="79.5"/>
		<line class="st19" x1="398.9" y1="79.5" x2="410" y2="79.5"/>
		<line class="st18" x1="372.6" y1="79.5" x2="390.5" y2="79.5"/>
	</g>
	<g>
		<line class="st20" x1="411" y1="91.9" x2="442.9" y2="91.9"/>
		<line class="st21" x1="372.6" y1="91.9" x2="401.1" y2="91.9"/>
	</g>
	<g>
		<line class="st19" x1="447.9" y1="104.2" x2="465.1" y2="104.2"/>
		<line class="st21" x1="411" y1="104.2" x2="438.6" y2="104.2"/>
		<line class="st18" x1="385.5" y1="104.2" x2="401.1" y2="104.2"/>
	</g>
	<g>
		<line class="st17" x1="423.6" y1="116.5" x2="438.6" y2="116.5"/>
		<line class="st19" x1="385.5" y1="116.5" x2="413.1" y2="116.5"/>
	</g>
	<g>
		<line class="st17" x1="462.9" y1="128.8" x2="480.1" y2="128.8"/>
		<line class="st20" x1="410" y1="128.8" x2="453.5" y2="128.8"/>
		<line class="st17" x1="372.6" y1="128.8" x2="400.2" y2="128.8"/>
	</g>
	<line class="st3" x1="160.6" y1="287.7" x2="376.1" y2="287.7"/>
	<line class="st3" x1="160.6" y1="295.7" x2="376.1" y2="295.7"/>
	<path class="st3" d="M378.1,280.8h-220c1.3,3.2,2,7.2,2,11.4s-0.7,8.1-2,11.4H378c-1.3-3.2-2-7.2-2-11.4
		C376.1,287.9,376.8,284,378.1,280.8z"/>
</g>
<g>
	<g>
		
			<rect x="668.5" y="199.5" transform="matrix(0.9932 -0.1167 0.1167 0.9932 -22.9148 80.1749)" class="st22" width="9.8" height="72.6"/>
		
			<rect x="664.7" y="199.8" transform="matrix(0.9932 -0.1167 0.1167 0.9932 -19.1726 79.5119)" class="st12" width="9.8" height="7.4"/>
		
			<rect x="664.7" y="199.8" transform="matrix(0.9932 -0.1167 0.1167 0.9932 -19.1726 79.5119)" class="st3" width="9.8" height="7.4"/>
		
			<rect x="668.5" y="199.5" transform="matrix(0.9932 -0.1167 0.1167 0.9932 -22.9148 80.1749)" class="st3" width="9.8" height="72.6"/>
	</g>
	<g>
		
			<rect x="655.6" y="244.7" transform="matrix(0.1082 -0.9941 0.9941 0.1082 368.9656 910.4583)" class="st23" width="72.6" height="9.8"/>
		
			<rect x="655.6" y="244.7" transform="matrix(0.1082 -0.9941 0.9941 0.1082 368.9656 910.4583)" class="st3" width="72.6" height="9.8"/>
		
			<rect x="691.8" y="212.3" transform="matrix(0.1082 -0.9941 0.9941 0.1082 404.3674 885.1558)" class="st10" width="7.4" height="9.8"/>
		
			<rect x="691.8" y="212.3" transform="matrix(0.1082 -0.9941 0.9941 0.1082 404.3674 885.1558)" class="st3" width="7.4" height="9.8"/>
	</g>
	<polygon class="st24" points="706.8,309.8 667.4,309.8 661.1,249.6 713.2,249.6 	"/>
	<polygon class="st24" points="661.1,249.6 661.2,250.7 700.8,250.7 694.6,309.8 706.8,309.8 713.2,249.6 	"/>
	<polygon class="st3" points="706.8,309.8 667.4,309.8 661.1,249.6 713.2,249.6 	"/>
</g>
</svg>
