<?xml version="1.0" encoding="utf-8"?>
<!-- Generator: Adobe Illustrator 26.5.0, SVG Export Plug-In . SVG Version: 6.00 Build 0)  -->
<svg version="1.1" id="uuid-e8404fa9-9407-4941-800f-3d37fdea34d6"
	 xmlns="http://www.w3.org/2000/svg" xmlns:xlink="http://www.w3.org/1999/xlink" x="0px" y="0px" viewBox="0 0 850 322"
	 style="enable-background:new 0 0 850 322;" xml:space="preserve">
<style type="text/css">
	.st0{opacity:0.28;fill:#848484;enable-background:new    ;}
	.st1{fill:#F09F54;}
	.st2{opacity:0.29;fill:#F09F54;enable-background:new    ;}
	.st3{fill:none;stroke:#444E59;stroke-width:4;stroke-linecap:round;stroke-linejoin:round;}
	.st4{fill:none;stroke:#444E59;stroke-width:3;stroke-linecap:round;stroke-linejoin:round;}
	.st5{fill:#848484;}
	.st6{opacity:0.25;fill:#848484;enable-background:new    ;}
	.st7{fill:#FFFFFF;}
	.st8{fill:#71A850;}
	.st9{opacity:0.4;fill:#71A850;enable-background:new    ;}
	.st10{fill:#444E59;}
	.st11{opacity:0.48;fill:#848484;enable-background:new    ;}
	.st12{fill:#E9FBFF;}
	.st13{fill:#C9C9C9;}
	.st14{fill:none;stroke:#444E59;stroke-width:5;stroke-linecap:round;stroke-linejoin:round;}
	.st15{opacity:0.29;fill:#848484;enable-background:new    ;}
	.st16{opacity:0.3;}
	.st17{fill:none;stroke:#444E59;stroke-width:2;stroke-linecap:round;stroke-linejoin:round;stroke-dasharray:0,0,4.08,4.08;}
	.st18{opacity:0.52;fill:#5F8C42;enable-background:new    ;}
	.st19{opacity:0.52;fill:#D38444;enable-background:new    ;}
	.st20{fill:#2FA9ED;}
	.st21{opacity:0.52;fill:#288FBC;enable-background:new    ;}
	.st22{fill:#E7534E;}
	.st23{opacity:0.52;fill:#BF4040;enable-background:new    ;}
	.st24{fill:none;stroke:#FFFFFF;stroke-width:4;stroke-linecap:round;stroke-linejoin:round;}
	.st25{opacity:0.29;}
	.st26{fill:#BCBCBC;}
	.st27{fill:none;stroke:#64BDFF;stroke-width:4;stroke-linecap:round;stroke-linejoin:round;}
	.st28{fill:none;stroke:#FF5F5F;stroke-width:4;stroke-linecap:round;stroke-linejoin:round;}
	.st29{fill:none;stroke:#FFBE78;stroke-width:4;stroke-linecap:round;stroke-linejoin:round;}
	.st30{fill:none;stroke:#C383F2;stroke-width:4;stroke-linecap:round;stroke-linejoin:round;}
	.st31{fill:none;stroke:#6DBF7B;stroke-width:4;stroke-linecap:round;stroke-linejoin:round;}
	.st32{fill:#9483C4;}
	
		.st33{opacity:0.56;fill:none;stroke:#FFFFFF;stroke-width:3;stroke-linecap:round;stroke-linejoin:round;enable-background:new    ;}
	.st34{opacity:0.56;}
	.st35{fill:none;stroke:#FFFFFF;stroke-width:3;stroke-linecap:round;stroke-linejoin:round;}
</style>
<path class="st0" d="M762.8,321H87.1c-5,0-9-4-9-9l0,0c0-5,4-9,9-9h675.7c5,0,9,4,9,9l0,0C771.8,317,767.8,321,762.8,321L762.8,321z
	"/>
<g>
	<path class="st1" d="M733.4,228.6c0-37.2-28.2-67.8-64.7-71.3v-8.4h-21.9v160.7h21.9v-9.7C705.2,296.4,733.4,265.8,733.4,228.6z
		 M668.7,276.8v-96.3c23.4,3.4,41.8,23.7,41.8,48.2S692,273.4,668.7,276.8z"/>
	<path class="st2" d="M668.7,157.3v-8.4h-21.9v160.7h21.9v-9.7c36.5-3.5,64.7-34,64.7-71.3C733.4,191.4,705.2,160.8,668.7,157.3z
		 M668.7,292.5v8.3h-20.5V156.2h20.5v8.5c32.1,3.1,58,30.5,58,63.9C726.8,262,700.8,289.4,668.7,292.5L668.7,292.5z"/>
	<path class="st3" d="M733.4,228.6c0-37.2-28.2-67.8-64.7-71.3v-8.4h-21.9v160.7h21.9v-9.7C705.2,296.4,733.4,265.8,733.4,228.6z
		 M668.7,276.8v-96.3c23.4,3.4,41.8,23.7,41.8,48.2S692,273.4,668.7,276.8z"/>
	<g>
		<line class="st4" x1="655.6" y1="293.5" x2="646.8" y2="293.5"/>
		<line class="st4" x1="655.6" y1="277.5" x2="646.8" y2="277.5"/>
		<line class="st4" x1="655.6" y1="261.4" x2="646.8" y2="261.4"/>
		<line class="st4" x1="655.6" y1="245.3" x2="646.8" y2="245.3"/>
		<line class="st4" x1="655.6" y1="229.3" x2="646.8" y2="229.3"/>
		<line class="st4" x1="655.6" y1="213.2" x2="646.8" y2="213.2"/>
		<line class="st4" x1="655.6" y1="197.1" x2="646.8" y2="197.1"/>
		<line class="st4" x1="655.6" y1="181" x2="646.8" y2="181"/>
		<line class="st4" x1="655.6" y1="165" x2="646.8" y2="165"/>
	</g>
</g>
<g>
	<rect x="598.2" y="67.6" class="st1" width="33.1" height="241.6"/>
	<rect x="598.2" y="67.6" class="st1" width="33.1" height="241.6"/>
	<rect x="616.9" y="67.6" class="st2" width="14.4" height="241.6"/>
	<rect x="598.2" y="67.6" class="st3" width="33.1" height="241.6"/>
	<g>
		<g>
			<line class="st4" x1="609.8" y1="284.8" x2="598.2" y2="284.8"/>
			<line class="st4" x1="605.3" y1="296.3" x2="598.2" y2="296.3"/>
		</g>
		<g>
			<line class="st4" x1="609.8" y1="261.8" x2="598.2" y2="261.8"/>
			<line class="st4" x1="605.3" y1="273.3" x2="598.2" y2="273.3"/>
		</g>
		<g>
			<line class="st4" x1="609.8" y1="238.8" x2="598.2" y2="238.8"/>
			<line class="st4" x1="605.3" y1="250.3" x2="598.2" y2="250.3"/>
		</g>
		<g>
			<line class="st4" x1="609.8" y1="215.7" x2="598.2" y2="215.7"/>
			<line class="st4" x1="605.3" y1="227.2" x2="598.2" y2="227.2"/>
		</g>
		<g>
			<line class="st4" x1="609.8" y1="192.7" x2="598.2" y2="192.7"/>
			<line class="st4" x1="605.3" y1="204.2" x2="598.2" y2="204.2"/>
		</g>
		<g>
			<line class="st4" x1="609.8" y1="169.7" x2="598.2" y2="169.7"/>
			<line class="st4" x1="605.3" y1="181.2" x2="598.2" y2="181.2"/>
		</g>
		<g>
			<line class="st4" x1="609.8" y1="146.7" x2="598.2" y2="146.7"/>
			<line class="st4" x1="605.3" y1="158.2" x2="598.2" y2="158.2"/>
		</g>
		<g>
			<line class="st4" x1="609.8" y1="123.7" x2="598.2" y2="123.7"/>
			<line class="st4" x1="605.3" y1="135.2" x2="598.2" y2="135.2"/>
		</g>
		<g>
			<line class="st4" x1="609.8" y1="100.7" x2="598.2" y2="100.7"/>
			<line class="st4" x1="605.3" y1="112.2" x2="598.2" y2="112.2"/>
		</g>
		<g>
			<line class="st4" x1="609.8" y1="77.7" x2="598.2" y2="77.7"/>
			<line class="st4" x1="605.3" y1="89.2" x2="598.2" y2="89.2"/>
		</g>
	</g>
</g>
<g>
	<rect x="537" y="126" class="st5" width="12.9" height="34.1"/>
	<rect x="537" y="126" class="st6" width="4.8" height="34.1"/>
	<rect x="537" y="126" class="st3" width="12.9" height="34.1"/>
	<rect x="540.5" y="160.2" class="st7" width="5.9" height="16.5"/>
	<rect x="540.5" y="160.2" class="st3" width="5.9" height="16.5"/>
	<g>
		<polygon class="st7" points="533.5,191.4 503.5,309.1 549.2,193 		"/>
		<polygon class="st3" points="533.5,191.4 503.5,309.1 549.2,193 		"/>
		<polygon class="st7" points="553.5,191.4 583.5,309.1 538,193 		"/>
		<polygon class="st3" points="553.5,191.4 583.5,309.1 538,193 		"/>
	</g>
	<circle class="st8" cx="543.5" cy="194.5" r="20"/>
	<path class="st9" d="M529.2,194.5c0-10.1,7.5-18.4,17.2-19.8c-0.9-0.1-1.8-0.2-2.8-0.2c-11,0-20,9-20,20s9,20,20,20
		c0.9,0,1.9-0.1,2.8-0.2C536.7,212.9,529.2,204.6,529.2,194.5z"/>
	<circle class="st3" cx="543.5" cy="194.5" r="20"/>
	<circle class="st10" cx="543.5" cy="194.5" r="6.8"/>
	<circle class="st3" cx="543.5" cy="194.5" r="6.8"/>
</g>
<path class="st5" d="M471.4,308.9h-132c-7.7,0-14-6.3-14-14v-272c0-7.7,6.3-14,14-14h132c7.7,0,14,6.3,14,14v272
	C485.4,302.6,479.1,308.9,471.4,308.9z"/>
<path class="st0" d="M471.4,8.9H463c7.7,0,14,6.3,14,14v272c0,7.7-6.3,14-14,14h8.5c7.7,0,14-6.3,14-14v-272
	C485.4,15.1,479.1,8.9,471.4,8.9z"/>
<path class="st11" d="M333.6,294.9v-272c0-7.7,6.3-14,14-14h-8.3c-7.7,0-14,6.3-14,14v272c0,7.7,6.3,14,14,14h8.3
	C339.9,308.9,333.6,302.6,333.6,294.9z"/>
<path class="st3" d="M471.4,308.9h-132c-7.7,0-14-6.3-14-14v-272c0-7.7,6.3-14,14-14h132c7.7,0,14,6.3,14,14v272
	C485.4,302.6,479.1,308.9,471.4,308.9z"/>
<rect x="325.4" y="46.4" class="st12" width="160" height="224"/>
<path class="st13" d="M484.5,118.6H472c-6.8,0-12.3-5.5-12.3-12.3V75.8c0-6.8,5.5-12.3,12.3-12.3h12.5V118.6z"/>
<path class="st13" d="M334.5,242.2h-9.2v-97.3h9.2c6.9,0,12.5,5.6,12.5,12.5v72.3C346.9,236.6,341.4,242.2,334.5,242.2z"/>
<rect x="325.4" y="46.4" class="st3" width="160" height="224"/>
<g>
	<line class="st14" x1="427.4" y1="28.9" x2="434.4" y2="28.9"/>
	<line class="st14" x1="376.4" y1="28.9" x2="416.4" y2="28.9"/>
</g>
<g>
	<circle class="st15" cx="405.4" cy="287.3" r="11"/>
	<circle class="st10" cx="405.4" cy="287.3" r="8.4"/>
</g>
<g class="st16">
	<g>
		<path class="st17" d="M368.9,243.6h-16c-4.4,0-8-3.6-8-8v-16c0-4.4,3.6-8,8-8h16c4.4,0,8,3.6,8,8v16
			C376.9,240,373.2,243.6,368.9,243.6z"/>
		<path class="st17" d="M457.4,243.6h-16c-4.4,0-8-3.6-8-8v-16c0-4.4,3.6-8,8-8h16c4.4,0,8,3.6,8,8v16
			C465.4,240,461.8,243.6,457.4,243.6z"/>
		<path class="st17" d="M413.4,243.6h-16c-4.4,0-8-3.6-8-8v-16c0-4.4,3.6-8,8-8h16c4.4,0,8,3.6,8,8v16
			C421.4,240,417.8,243.6,413.4,243.6z"/>
	</g>
	<g>
		<path class="st17" d="M368.9,195.6h-16c-4.4,0-8-3.6-8-8v-16c0-4.4,3.6-8,8-8h16c4.4,0,8,3.6,8,8v16
			C376.9,192,373.2,195.6,368.9,195.6z"/>
		<path class="st17" d="M457.4,195.6h-16c-4.4,0-8-3.6-8-8v-16c0-4.4,3.6-8,8-8h16c4.4,0,8,3.6,8,8v16
			C465.4,192,461.8,195.6,457.4,195.6z"/>
		<path class="st17" d="M413.4,195.6h-16c-4.4,0-8-3.6-8-8v-16c0-4.4,3.6-8,8-8h16c4.4,0,8,3.6,8,8v16
			C421.4,192,417.8,195.6,413.4,195.6z"/>
	</g>
	<g>
		<path class="st17" d="M368.9,147.6h-16c-4.4,0-8-3.6-8-8v-16c0-4.4,3.6-8,8-8h16c4.4,0,8,3.6,8,8v16
			C376.9,144,373.2,147.6,368.9,147.6z"/>
		<path class="st17" d="M457.4,147.6h-16c-4.4,0-8-3.6-8-8v-16c0-4.4,3.6-8,8-8h16c4.4,0,8,3.6,8,8v16
			C465.4,144,461.8,147.6,457.4,147.6z"/>
		<path class="st17" d="M413.4,147.6h-16c-4.4,0-8-3.6-8-8v-16c0-4.4,3.6-8,8-8h16c4.4,0,8,3.6,8,8v16
			C421.4,144,417.8,147.6,413.4,147.6z"/>
	</g>
	<g>
		<path class="st17" d="M368.9,99.6h-16c-4.4,0-8-3.6-8-8v-16c0-4.4,3.6-8,8-8h16c4.4,0,8,3.6,8,8v16
			C376.9,96,373.2,99.6,368.9,99.6z"/>
		<path class="st17" d="M457.4,99.6h-16c-4.4,0-8-3.6-8-8v-16c0-4.4,3.6-8,8-8h16c4.4,0,8,3.6,8,8v16
			C465.4,96,461.8,99.6,457.4,99.6z"/>
		<path class="st17" d="M413.4,99.6h-16c-4.4,0-8-3.6-8-8v-16c0-4.4,3.6-8,8-8h16c4.4,0,8,3.6,8,8v16
			C421.4,96,417.8,99.6,413.4,99.6z"/>
	</g>
</g>
<path class="st8" d="M368.9,243.6h-16c-4.4,0-8-3.6-8-8v-16c0-4.4,3.6-8,8-8h16c4.4,0,8,3.6,8,8v16
	C376.9,240,373.2,243.6,368.9,243.6z"/>
<path class="st18" d="M368.9,211.6h-16c-3.2,0-6,1.9-7.2,4.6l31.2,5.6v-2.2C376.9,215.2,373.2,211.6,368.9,211.6L368.9,211.6z"/>
<path class="st3" d="M368.9,243.6h-16c-4.4,0-8-3.6-8-8v-16c0-4.4,3.6-8,8-8h16c4.4,0,8,3.6,8,8v16
	C376.9,240,373.2,243.6,368.9,243.6z"/>
<path class="st1" d="M413.4,243.6h-16c-4.4,0-8-3.6-8-8v-16c0-4.4,3.6-8,8-8h16c4.4,0,8,3.6,8,8v16
	C421.4,240,417.8,243.6,413.4,243.6z"/>
<path class="st19" d="M413.4,211.6h-16c-3.2,0-6,1.9-7.2,4.6l31.2,5.6v-2.2C421.4,215.2,417.8,211.6,413.4,211.6L413.4,211.6z"/>
<path class="st3" d="M413.4,243.6h-16c-4.4,0-8-3.6-8-8v-16c0-4.4,3.6-8,8-8h16c4.4,0,8,3.6,8,8v16
	C421.4,240,417.8,243.6,413.4,243.6z"/>
<path class="st20" d="M457.4,195.6h-16c-4.4,0-8-3.6-8-8v-16c0-4.4,3.6-8,8-8h16c4.4,0,8,3.6,8,8v16
	C465.4,192,461.8,195.6,457.4,195.6z"/>
<path class="st21" d="M457.4,163.6h-16c-3.2,0-6,1.9-7.2,4.6l31.2,5.6v-2.2C465.4,167.2,461.8,163.6,457.4,163.6L457.4,163.6z"/>
<path class="st3" d="M457.4,195.6h-16c-4.4,0-8-3.6-8-8v-16c0-4.4,3.6-8,8-8h16c4.4,0,8,3.6,8,8v16
	C465.4,192,461.8,195.6,457.4,195.6z"/>
<path class="st22" d="M413.4,147.6h-16c-4.4,0-8-3.6-8-8v-16c0-4.4,3.6-8,8-8h16c4.4,0,8,3.6,8,8v16
	C421.4,144,417.8,147.6,413.4,147.6z"/>
<path class="st23" d="M413.4,115.6h-16c-3.2,0-6,1.9-7.2,4.6l31.2,5.6v-2.2C421.4,119.2,417.8,115.6,413.4,115.6z"/>
<path class="st3" d="M413.4,147.6h-16c-4.4,0-8-3.6-8-8v-16c0-4.4,3.6-8,8-8h16c4.4,0,8,3.6,8,8v16
	C421.4,144,417.8,147.6,413.4,147.6z"/>
<path class="st7" d="M446.8,172.6l9.2,5.3c1.3,0.8,1.3,2.7,0,3.4l-9.2,5.3c-1.3,0.8-3-0.2-3-1.7v-10.6
	C443.8,172.8,445.5,171.8,446.8,172.6z"/>
<path class="st7" d="M409.5,221.4h-8.4c-1.8,0-3.2,1.5-3.2,3.2v6.2c0,1.8,1.5,3.2,3.2,3.2h0.3l-0.7,2.8c-0.1,0.2,0.2,0.4,0.4,0.2
	l4.3-3h4.3c1.8,0,3.2-1.5,3.2-3.2v-6.2C412.8,222.8,411.3,221.4,409.5,221.4L409.5,221.4z"/>
<path class="st24" d="M354.6,227.6l3.7,3.7c0.5,0.5,1.3,0.5,1.8,0l8.3-8.3"/>
<circle class="st24" cx="405.4" cy="131.6" r="7.5"/>
<g>
	<path class="st7" d="M344.9,92.6l-0.2-15l-10,0.1c-0.6-1.9-1.3-3.6-2.3-5.3l7-7.2l-10.7-10.5l-7,7.2c-1.7-0.9-3.5-1.6-5.4-2.1
		l-0.1-10l-15,0.2l0.1,10c-1.9,0.6-3.6,1.3-5.3,2.3l-7.2-7L278.3,66l7.2,7c-0.9,1.7-1.6,3.5-2.1,5.4l-10,0.1l0.2,15l10-0.1
		c0.6,1.9,1.3,3.6,2.3,5.3l-7,7.2l10.7,10.5l7-7.2c1.7,0.9,3.5,1.6,5.4,2.1l0.1,10l15-0.2l-0.1-10c1.9-0.6,3.6-1.3,5.3-2.3l7.2,7
		l10.5-10.7l-7.2-7c0.9-1.7,1.6-3.5,2.1-5.4L344.9,92.6L344.9,92.6z M309.4,97.2c-6.5,0.1-11.7-5.1-11.8-11.6
		c-0.1-6.5,5.1-11.7,11.6-11.8c6.5-0.1,11.7,5.1,11.8,11.6C321,91.9,315.8,97.1,309.4,97.2z"/>
	<path class="st1" d="M344.9,92.6l-0.2-15l-10,0.1c-0.6-1.9-1.3-3.6-2.3-5.3l7-7.2l-10.7-10.5l-7,7.2c-1.7-0.9-3.5-1.6-5.4-2.1
		l-0.1-10l-15,0.2l0.1,10c-1.9,0.6-3.6,1.3-5.3,2.3l-7.2-7L278.3,66l7.2,7c-0.9,1.7-1.6,3.5-2.1,5.4l-10,0.1l0.2,15l10-0.1
		c0.6,1.9,1.3,3.6,2.3,5.3l-7,7.2l10.7,10.5l7-7.2c1.7,0.9,3.5,1.6,5.4,2.1l0.1,10l15-0.2l-0.1-10c1.9-0.6,3.6-1.3,5.3-2.3l7.2,7
		l10.5-10.7l-7.2-7c0.9-1.7,1.6-3.5,2.1-5.4L344.9,92.6L344.9,92.6z M309.4,97.2c-6.5,0.1-11.7-5.1-11.8-11.6
		c-0.1-6.5,5.1-11.7,11.6-11.8c6.5-0.1,11.7,5.1,11.8,11.6C321,91.9,315.8,97.1,309.4,97.2z"/>
	<path class="st1" d="M344.9,92.6l-0.2-15l-10,0.1c-0.6-1.9-1.3-3.6-2.3-5.3l7-7.2l-10.7-10.5l-7,7.2c-1.7-0.9-3.5-1.6-5.4-2.1
		l-0.1-10l-15,0.2l0.1,10c-1.9,0.6-3.6,1.3-5.3,2.3l-7.2-7L278.3,66l7.2,7c-0.9,1.7-1.6,3.5-2.1,5.4l-10,0.1l0.2,15l10-0.1
		c0.6,1.9,1.3,3.6,2.3,5.3l-7,7.2l10.7,10.5l7-7.2c1.7,0.9,3.5,1.6,5.4,2.1l0.1,10l15-0.2l-0.1-10c1.9-0.6,3.6-1.3,5.3-2.3l7.2,7
		l10.5-10.7l-7.2-7c0.9-1.7,1.6-3.5,2.1-5.4L344.9,92.6L344.9,92.6z M309.4,97.2c-6.5,0.1-11.7-5.1-11.8-11.6
		c-0.1-6.5,5.1-11.7,11.6-11.8c6.5-0.1,11.7,5.1,11.8,11.6C321,91.9,315.8,97.1,309.4,97.2z"/>
	<g class="st25">
		<path class="st1" d="M341.1,77.7C341.1,77.7,341.1,77.8,341.1,77.7h3.7v-0.1L341.1,77.7z"/>
		<path class="st1" d="M328.1,62l3.9-4l-3.2-3.2l-5.2,5.3C325.2,60.6,326.8,61.2,328.1,62z"/>
		<path class="st1" d="M315.5,73.8c-1.1,0-2.1,0.2-3,0.4c4.9,1.4,8.5,5.8,8.5,11.1c0.1,5.4-3.6,10-8.5,11.4c1,0.3,2.2,0.5,3.3,0.4
			c6.5-0.1,11.6-5.4,11.6-11.8S322,73.8,315.5,73.8L315.5,73.8z"/>
		<path class="st1" d="M300.5,60.3l2,1.9c1.7-0.9,3.4-1.7,5.3-2.3l-0.1-10l8.6-0.1v-0.1l-15,0.2l0.1,10
			C301.2,60.1,300.8,60.2,300.5,60.3L300.5,60.3z"/>
		<path class="st1" d="M308.3,111.2c-1.9-0.5-3.7-1.2-5.4-2.1l-1.8,1.9c0.3,0.1,0.6,0.2,0.9,0.3l0.1,10l6.3-0.1
			C308.5,121.2,308.3,111.2,308.3,111.2z"/>
		<path class="st1" d="M280,78.4l10-0.1c0.5-1.9,1.2-3.7,2.1-5.4l-7.2-7l7.4-7.5l-3.2-3.2l-10.5,10.7l7.2,7
			c-0.9,1.7-1.6,3.5-2.1,5.4l-10,0.1l0.2,15l6.3-0.1L280,78.4z"/>
		<path class="st1" d="M328.6,108.8c-1.4,0.8-2.8,1.4-4.3,1.9l5.2,5.1l3.1-3.2L328.6,108.8z"/>
		<path class="st1" d="M285.3,105.7l7-7.2c-0.9-1.7-1.7-3.4-2.3-5.3l-6.3,0.1c0.6,1.8,1.3,3.6,2.2,5.2l-7,7.2l10.7,10.5l3.1-3.2
			C292.8,113,285.3,105.7,285.3,105.7z"/>
	</g>
	<path class="st3" d="M344.9,92.6l-0.2-15l-10,0.1c-0.6-1.9-1.3-3.6-2.3-5.3l7-7.2l-10.7-10.5l-7,7.2c-1.7-0.9-3.5-1.6-5.4-2.1
		l-0.1-10l-15,0.2l0.1,10c-1.9,0.6-3.6,1.3-5.3,2.3l-7.2-7L278.3,66l7.2,7c-0.9,1.7-1.6,3.5-2.1,5.4l-10,0.1l0.2,15l10-0.1
		c0.6,1.9,1.3,3.6,2.3,5.3l-7,7.2l10.7,10.5l7-7.2c1.7,0.9,3.5,1.6,5.4,2.1l0.1,10l15-0.2l-0.1-10c1.9-0.6,3.6-1.3,5.3-2.3l7.2,7
		l10.5-10.7l-7.2-7c0.9-1.7,1.6-3.5,2.1-5.4L344.9,92.6L344.9,92.6z M309.4,97.2c-6.5,0.1-11.7-5.1-11.8-11.6
		c-0.1-6.5,5.1-11.7,11.6-11.8c6.5-0.1,11.7,5.1,11.8,11.6C321,91.9,315.8,97.1,309.4,97.2z"/>
</g>
<g>
	<path class="st10" d="M282.5,308.9H158.8c-4.1,0-7.4-3.3-7.4-7.4v-84.6c0-4.1,3.3-7.4,7.4-7.4h123.8c4.1,0,7.4,3.3,7.4,7.4v84.6
		C289.8,305.6,286.5,308.9,282.5,308.9L282.5,308.9z"/>
	<path class="st26" d="M289.8,225.6H151.3v-8.7c0-4.1,3.3-7.4,7.4-7.4h123.8c4.1,0,7.4,3.3,7.4,7.4v8.7H289.8L289.8,225.6z"/>
	<path class="st3" d="M282.5,308.9H158.8c-4.1,0-7.4-3.3-7.4-7.4v-84.6c0-4.1,3.3-7.4,7.4-7.4h123.8c4.1,0,7.4,3.3,7.4,7.4v84.6
		C289.8,305.6,286.5,308.9,282.5,308.9L282.5,308.9z"/>
	<path class="st3" d="M282.5,308.9H158.8c-4.1,0-7.4-3.3-7.4-7.4v-84.6c0-4.1,3.3-7.4,7.4-7.4h123.8c4.1,0,7.4,3.3,7.4,7.4v84.6
		C289.8,305.6,286.5,308.9,282.5,308.9L282.5,308.9z"/>
	<path class="st3" d="M289.8,225.6H151.3v-8.7c0-4.1,3.3-7.4,7.4-7.4h123.8c4.1,0,7.4,3.3,7.4,7.4v8.7H289.8L289.8,225.6z"/>
	<g>
		<g>
			<line class="st24" x1="170.4" y1="296.2" x2="186" y2="296.2"/>
			<line class="st24" x1="159.4" y1="296.2" x2="160.5" y2="296.2"/>
		</g>
		<g>
			<line class="st24" x1="170.4" y1="287.6" x2="209.9" y2="287.6"/>
			<line class="st24" x1="159.4" y1="287.6" x2="160.5" y2="287.6"/>
		</g>
		<g>
			<line class="st27" x1="228.8" y1="278.9" x2="239.5" y2="278.9"/>
			<line class="st24" x1="199.3" y1="278.9" x2="219.3" y2="278.9"/>
			<line class="st28" x1="170.4" y1="278.9" x2="190.2" y2="278.9"/>
			<line class="st24" x1="159.4" y1="278.9" x2="160.5" y2="278.9"/>
		</g>
		<g>
			<line class="st24" x1="203.8" y1="270.3" x2="251.9" y2="270.3"/>
			<line class="st27" x1="170.4" y1="270.3" x2="195.6" y2="270.3"/>
			<line class="st24" x1="159.4" y1="270.3" x2="160.5" y2="270.3"/>
		</g>
		<g>
			<line class="st28" x1="203.8" y1="261.7" x2="221.8" y2="261.7"/>
			<line class="st29" x1="170.4" y1="261.7" x2="195.6" y2="261.7"/>
			<line class="st24" x1="159.4" y1="261.7" x2="160.5" y2="261.7"/>
		</g>
		<g>
			<line class="st27" x1="207.2" y1="253.1" x2="212.1" y2="253.1"/>
			<line class="st28" x1="188.2" y1="253.1" x2="199.3" y2="253.1"/>
			<line class="st30" x1="170.4" y1="253.1" x2="179.6" y2="253.1"/>
			<line class="st24" x1="159.4" y1="253.1" x2="160.5" y2="253.1"/>
		</g>
		<g>
			<line class="st27" x1="243.2" y1="244.4" x2="251.9" y2="244.4"/>
			<line class="st28" x1="198.1" y1="244.4" x2="232.2" y2="244.4"/>
			<line class="st29" x1="170.4" y1="244.4" x2="190.8" y2="244.4"/>
			<line class="st24" x1="159.4" y1="244.4" x2="160.5" y2="244.4"/>
		</g>
		<g>
			<line class="st29" x1="221.8" y1="235.8" x2="239.5" y2="235.8"/>
			<line class="st31" x1="199.3" y1="235.8" x2="213.1" y2="235.8"/>
			<line class="st29" x1="184.3" y1="235.8" x2="192.1" y2="235.8"/>
			<line class="st31" x1="170.4" y1="235.8" x2="176.8" y2="235.8"/>
			<line class="st24" x1="159.4" y1="235.8" x2="160.5" y2="235.8"/>
		</g>
	</g>
	<g>
		<circle class="st22" cx="165" cy="217.6" r="2.5"/>
		<circle class="st10" cx="174" cy="217.6" r="2.5"/>
		<circle class="st10" cx="183.1" cy="217.6" r="2.5"/>
	</g>
</g>
<path class="st7" d="M331.8,234.4h-89.6c-4.4,0-8-3.6-8-8v-80.9c0-4.4,3.6-8,8-8h89.6c4.4,0,8,3.6,8,8v80.9
	C339.8,230.8,336.1,234.4,331.8,234.4z"/>
<path class="st7" d="M331.8,234.4h-89.6c-4.4,0-8-3.6-8-8v-80.9c0-4.4,3.6-8,8-8h89.6c4.4,0,8,3.6,8,8v80.9
	C339.8,230.8,336.1,234.4,331.8,234.4z"/>
<path class="st3" d="M331.8,234.4h-89.6c-4.4,0-8-3.6-8-8v-80.9c0-4.4,3.6-8,8-8h89.6c4.4,0,8,3.6,8,8v80.9
	C339.8,230.8,336.1,234.4,331.8,234.4z"/>
<rect x="243.2" y="145.7" class="st32" width="86.8" height="57.7"/>
<rect x="243.2" y="145.7" class="st3" width="86.8" height="57.7"/>
<line class="st3" x1="243.2" y1="212.6" x2="298" y2="212.6"/>
<line class="st3" x1="243.2" y1="221.8" x2="275.6" y2="221.8"/>
<polyline class="st3" points="251.9,193.1 270.6,174.6 288,192 "/>
<polyline class="st3" points="320.6,193.1 298,163.6 280,183.8 "/>
<circle class="st3" cx="320.5" cy="216.8" r="4.9"/>
<circle class="st1" cx="276.1" cy="163.6" r="6.2"/>
<circle class="st3" cx="276.1" cy="163.6" r="6.2"/>
<g>
	<line class="st3" x1="232.4" y1="109" x2="259.2" y2="109"/>
	<line class="st3" x1="218.1" y1="109" x2="225.2" y2="109"/>
	<line class="st3" x1="245.8" y1="96.6" x2="259.2" y2="96.6"/>
	<line class="st3" x1="235" y1="96.6" x2="239" y2="96.6"/>
</g>
<g>
	<line class="st3" x1="203.4" y1="187.4" x2="224.3" y2="187.4"/>
	<line class="st3" x1="192.3" y1="187.4" x2="197.8" y2="187.4"/>
	<line class="st3" x1="215.8" y1="175" x2="224.3" y2="175"/>
	<line class="st3" x1="205.4" y1="175" x2="208.6" y2="175"/>
</g>
<g>
	<line class="st3" x1="536.8" y1="42.3" x2="556.5" y2="42.3"/>
	<line class="st3" x1="524.5" y1="42.3" x2="530.2" y2="42.3"/>
	<line class="st3" x1="548" y1="29.9" x2="556.5" y2="29.9"/>
	<line class="st3" x1="537.8" y1="29.9" x2="540.8" y2="29.9"/>
</g>
<path class="st20" d="M552.2,112.2h-78.2c-4.8,0-8.6-3.9-8.6-8.6V65.7c0-4.8,3.9-8.6,8.6-8.6h78.2c4.8,0,8.6,3.9,8.6,8.6v37.8
	C560.8,108.3,557,112.2,552.2,112.2L552.2,112.2z"/>
<path class="st4" d="M552.2,112.2h-78.2c-4.8,0-8.6-3.9-8.6-8.6V65.7c0-4.8,3.9-8.6,8.6-8.6h78.2c4.8,0,8.6,3.9,8.6,8.6v37.8
	C560.8,108.3,557,112.2,552.2,112.2L552.2,112.2z"/>
<line class="st33" x1="513" y1="71.9" x2="546.8" y2="71.9"/>
<line class="st33" x1="513" y1="82.8" x2="535.4" y2="82.8"/>
<g class="st34">
	<path class="st7" d="M530,99.1h-13.6c-1.8,0-3.3-1.5-3.3-3.3l0,0c0-1.8,1.5-3.3,3.3-3.3H530c1.8,0,3.3,1.5,3.3,3.3l0,0
		C533.3,97.6,531.9,99.1,530,99.1z"/>
	<path class="st35" d="M530,99.1h-13.6c-1.8,0-3.3-1.5-3.3-3.3l0,0c0-1.8,1.5-3.3,3.3-3.3H530c1.8,0,3.3,1.5,3.3,3.3l0,0
		C533.3,97.6,531.9,99.1,530,99.1z"/>
</g>
<g>
	<path class="st35" d="M498.9,99.6H481c-2.6,0-4.6-2.1-4.6-4.6V74.1c0-2.6,2.1-4.6,4.6-4.6h17.9c2.6,0,4.6,2.1,4.6,4.6V95
		C503.5,97.5,501.5,99.6,498.9,99.6z"/>
	<circle class="st35" cx="490" cy="81.1" r="4.8"/>
	<path class="st35" d="M480.9,99.1c0-5,4.1-9.1,9.1-9.1s9.1,4.1,9.1,9.1"/>
</g>
</svg>
