<?xml version="1.0" encoding="UTF-8"?><svg id="uuid-e8404fa9-9407-4941-800f-3d37fdea34d6" xmlns="http://www.w3.org/2000/svg" viewBox="0 0 693.7 314.1"><defs><style>.uuid-8fa77fa8-fd36-45d0-adce-19b128009dde,.uuid-ad9bd7c1-650a-4073-a434-6bf7c1d565c0,.uuid-235e12e3-03d1-4681-8dc7-b5ee3c469c88,.uuid-c0a2475a-c023-4685-83a1-7cd6f27022bc,.uuid-277fd8f7-2e8c-48a4-a37f-6fd00e05db1e,.uuid-892ca05f-e397-470a-9de4-8ff45b5bd232,.uuid-4c6837ad-10d9-4765-9b56-32dfaf6d8d99,.uuid-3c3cc668-d405-42f3-9f34-469443ec210d,.uuid-0b66767d-807a-442a-b7f0-1d1851d01883,.uuid-51821fa1-94ca-4a96-84a2-a6ea44874c41,.uuid-891e9494-f523-4719-97d5-177d6ea0a9ef,.uuid-ee2107b6-f702-4988-bfb7-ad4c97d9751f{fill:none;stroke-linecap:round;stroke-linejoin:round;}.uuid-8fa77fa8-fd36-45d0-adce-19b128009dde,.uuid-3d94df12-a9b6-493f-b3d4-a008b72688db,.uuid-d98f0152-2ba6-4569-869b-f56e6a328844,.uuid-4cfd8d14-cf48-4723-bad5-5409168a0a35,.uuid-162efb33-a8e0-4853-95a5-e27ede7b1db2,.uuid-c563a73b-dd10-4997-a3c5-8cfa37702253,.uuid-6af68578-9b06-4f80-bef2-9a78c4b68b40,.uuid-4959811e-b947-4c54-868f-b697caded801,.uuid-809dac19-390d-4806-8945-dc2600947903,.uuid-5029e0de-d665-4d91-878e-e4f5ff52dd6a,.uuid-ee5387a4-931d-4342-ad08-60cffbc1bbc1{isolation:isolate;}.uuid-8fa77fa8-fd36-45d0-adce-19b128009dde,.uuid-892ca05f-e397-470a-9de4-8ff45b5bd232,.uuid-ee2107b6-f702-4988-bfb7-ad4c97d9751f{stroke:#fff;}.uuid-8fa77fa8-fd36-45d0-adce-19b128009dde,.uuid-b7f89f77-0e4d-4ba6-a063-e4d800e98f4d{opacity:.56;}.uuid-8fa77fa8-fd36-45d0-adce-19b128009dde,.uuid-891e9494-f523-4719-97d5-177d6ea0a9ef,.uuid-ee2107b6-f702-4988-bfb7-ad4c97d9751f{stroke-width:3px;}.uuid-44b2281c-891f-468e-bef0-ab1cc7a7b7c1{fill:#e9fbff;}.uuid-d24fc09c-4635-4706-898e-fcddc302ecc5{fill:#fff;}.uuid-bf54ba13-dbf3-4d94-b8bb-10abbc0d6cca,.uuid-d98f0152-2ba6-4569-869b-f56e6a328844{fill:#f09f54;}.uuid-282b2638-8008-4a1f-9015-188d6dd4e94e{fill:#e7534e;}.uuid-7bdccc29-a79c-408a-a2ef-0f8a72819593,.uuid-3d94df12-a9b6-493f-b3d4-a008b72688db,.uuid-4cfd8d14-cf48-4723-bad5-5409168a0a35,.uuid-162efb33-a8e0-4853-95a5-e27ede7b1db2,.uuid-5029e0de-d665-4d91-878e-e4f5ff52dd6a{fill:#848484;}.uuid-324abc3b-cf5d-4f95-9d38-1004c4ee7ac6{fill:#2fa9ed;}.uuid-45b81454-2e33-44b8-b3cd-da4b5dc22f49{fill:#bcbcbc;}.uuid-c946fbbb-02d9-49cb-a815-c671759a9435{fill:#c9c9c9;}.uuid-03708a28-f348-4914-9a83-904960a3ca10{fill:#444e59;}.uuid-f41a4343-875a-4d07-9913-672d90b48571{fill:#9483c4;}.uuid-d391193b-007b-4a31-8932-27f3d9264fc7,.uuid-ee5387a4-931d-4342-ad08-60cffbc1bbc1{fill:#71a850;}.uuid-ad9bd7c1-650a-4073-a434-6bf7c1d565c0{stroke-width:5px;}.uuid-ad9bd7c1-650a-4073-a434-6bf7c1d565c0,.uuid-235e12e3-03d1-4681-8dc7-b5ee3c469c88,.uuid-4c6837ad-10d9-4765-9b56-32dfaf6d8d99,.uuid-891e9494-f523-4719-97d5-177d6ea0a9ef{stroke:#444e59;}.uuid-3d94df12-a9b6-493f-b3d4-a008b72688db{opacity:.28;}.uuid-d98f0152-2ba6-4569-869b-f56e6a328844,.uuid-4cfd8d14-cf48-4723-bad5-5409168a0a35,.uuid-706f60f7-e7df-42a9-8435-8dc959a4b30f{opacity:.29;}.uuid-235e12e3-03d1-4681-8dc7-b5ee3c469c88{stroke-dasharray:0 0 4.08 4.08;stroke-width:2px;}.uuid-162efb33-a8e0-4853-95a5-e27ede7b1db2{opacity:.48;}.uuid-c563a73b-dd10-4997-a3c5-8cfa37702253{fill:#d38444;}.uuid-c563a73b-dd10-4997-a3c5-8cfa37702253,.uuid-6af68578-9b06-4f80-bef2-9a78c4b68b40,.uuid-4959811e-b947-4c54-868f-b697caded801,.uuid-809dac19-390d-4806-8945-dc2600947903{opacity:.52;}.uuid-6af68578-9b06-4f80-bef2-9a78c4b68b40{fill:#5f8c42;}.uuid-4959811e-b947-4c54-868f-b697caded801{fill:#288fbc;}.uuid-809dac19-390d-4806-8945-dc2600947903{fill:#bf4040;}.uuid-5029e0de-d665-4d91-878e-e4f5ff52dd6a{opacity:.25;}.uuid-ee5387a4-931d-4342-ad08-60cffbc1bbc1{opacity:.4;}.uuid-c0a2475a-c023-4685-83a1-7cd6f27022bc{stroke:#ff5f5f;}.uuid-c0a2475a-c023-4685-83a1-7cd6f27022bc,.uuid-277fd8f7-2e8c-48a4-a37f-6fd00e05db1e,.uuid-892ca05f-e397-470a-9de4-8ff45b5bd232,.uuid-4c6837ad-10d9-4765-9b56-32dfaf6d8d99,.uuid-3c3cc668-d405-42f3-9f34-469443ec210d,.uuid-0b66767d-807a-442a-b7f0-1d1851d01883,.uuid-51821fa1-94ca-4a96-84a2-a6ea44874c41{stroke-width:4px;}.uuid-277fd8f7-2e8c-48a4-a37f-6fd00e05db1e{stroke:#ffbe78;}.uuid-3c3cc668-d405-42f3-9f34-469443ec210d{stroke:#64bdff;}.uuid-0b66767d-807a-442a-b7f0-1d1851d01883{stroke:#c383f2;}.uuid-51821fa1-94ca-4a96-84a2-a6ea44874c41{stroke:#6dbf7b;}.uuid-54cf7371-bf7b-4ba2-92e8-6201daba9322{opacity:.3;}</style></defs><path class="uuid-3d94df12-a9b6-493f-b3d4-a008b72688db" d="M684.6,314.1H9c-5,0-9-4-9-9H0c0-5,4-9,9-9H684.7c5,0,9,4,9,9h0c-.1,5-4.1,9-9.1,9Z"/><g><path class="uuid-bf54ba13-dbf3-4d94-b8bb-10abbc0d6cca" d="M655.3,221.7c0-37.2-28.2-67.8-64.7-71.3v-8.4h-21.9v160.7h21.9v-9.7c36.4-3.5,64.7-34.1,64.7-71.3Zm-64.8,48.2v-96.3c23.4,3.4,41.8,23.7,41.8,48.2s-18.4,44.7-41.8,48.1Z"/><path class="uuid-d98f0152-2ba6-4569-869b-f56e6a328844" d="M590.5,150.4v-8.4h-21.9v160.7h21.9v-9.7c36.5-3.5,64.7-34,64.7-71.3,.1-37.2-28.2-67.8-64.7-71.3Zm0,135.2v8.3h-20.5V149.3h20.5v8.5c32.1,3.1,58,30.5,58,63.9,.1,33.4-25.8,60.8-58,63.9Z"/><path class="uuid-4c6837ad-10d9-4765-9b56-32dfaf6d8d99" d="M655.3,221.7c0-37.2-28.2-67.8-64.7-71.3v-8.4h-21.9v160.7h21.9v-9.7c36.4-3.5,64.7-34.1,64.7-71.3Zm-64.8,48.2v-96.3c23.4,3.4,41.8,23.7,41.8,48.2s-18.4,44.7-41.8,48.1Z"/><g><line class="uuid-891e9494-f523-4719-97d5-177d6ea0a9ef" x1="577.4" y1="286.6" x2="568.6" y2="286.6"/><line class="uuid-891e9494-f523-4719-97d5-177d6ea0a9ef" x1="577.4" y1="270.6" x2="568.6" y2="270.6"/><line class="uuid-891e9494-f523-4719-97d5-177d6ea0a9ef" x1="577.4" y1="254.5" x2="568.6" y2="254.5"/><line class="uuid-891e9494-f523-4719-97d5-177d6ea0a9ef" x1="577.4" y1="238.4" x2="568.6" y2="238.4"/><line class="uuid-891e9494-f523-4719-97d5-177d6ea0a9ef" x1="577.4" y1="222.4" x2="568.6" y2="222.4"/><line class="uuid-891e9494-f523-4719-97d5-177d6ea0a9ef" x1="577.4" y1="206.3" x2="568.6" y2="206.3"/><line class="uuid-891e9494-f523-4719-97d5-177d6ea0a9ef" x1="577.4" y1="190.2" x2="568.6" y2="190.2"/><line class="uuid-891e9494-f523-4719-97d5-177d6ea0a9ef" x1="577.4" y1="174.1" x2="568.6" y2="174.1"/><line class="uuid-891e9494-f523-4719-97d5-177d6ea0a9ef" x1="577.4" y1="158.1" x2="568.6" y2="158.1"/></g></g><g><rect class="uuid-bf54ba13-dbf3-4d94-b8bb-10abbc0d6cca" x="520.1" y="60.7" width="33.1" height="241.6"/><rect class="uuid-bf54ba13-dbf3-4d94-b8bb-10abbc0d6cca" x="520.1" y="60.7" width="33.1" height="241.6"/><rect class="uuid-d98f0152-2ba6-4569-869b-f56e6a328844" x="538.8" y="60.7" width="14.4" height="241.6"/><rect class="uuid-4c6837ad-10d9-4765-9b56-32dfaf6d8d99" x="520.1" y="60.7" width="33.1" height="241.6"/><g><g><line class="uuid-891e9494-f523-4719-97d5-177d6ea0a9ef" x1="531.6" y1="277.9" x2="520.1" y2="277.9"/><line class="uuid-891e9494-f523-4719-97d5-177d6ea0a9ef" x1="527.2" y1="289.4" x2="520.1" y2="289.4"/></g><g><line class="uuid-891e9494-f523-4719-97d5-177d6ea0a9ef" x1="531.6" y1="254.9" x2="520.1" y2="254.9"/><line class="uuid-891e9494-f523-4719-97d5-177d6ea0a9ef" x1="527.2" y1="266.4" x2="520.1" y2="266.4"/></g><g><line class="uuid-891e9494-f523-4719-97d5-177d6ea0a9ef" x1="531.6" y1="231.9" x2="520.1" y2="231.9"/><line class="uuid-891e9494-f523-4719-97d5-177d6ea0a9ef" x1="527.2" y1="243.4" x2="520.1" y2="243.4"/></g><g><line class="uuid-891e9494-f523-4719-97d5-177d6ea0a9ef" x1="531.6" y1="208.8" x2="520.1" y2="208.8"/><line class="uuid-891e9494-f523-4719-97d5-177d6ea0a9ef" x1="527.2" y1="220.3" x2="520.1" y2="220.3"/></g><g><line class="uuid-891e9494-f523-4719-97d5-177d6ea0a9ef" x1="531.6" y1="185.8" x2="520.1" y2="185.8"/><line class="uuid-891e9494-f523-4719-97d5-177d6ea0a9ef" x1="527.2" y1="197.3" x2="520.1" y2="197.3"/></g><g><line class="uuid-891e9494-f523-4719-97d5-177d6ea0a9ef" x1="531.6" y1="162.8" x2="520.1" y2="162.8"/><line class="uuid-891e9494-f523-4719-97d5-177d6ea0a9ef" x1="527.2" y1="174.3" x2="520.1" y2="174.3"/></g><g><line class="uuid-891e9494-f523-4719-97d5-177d6ea0a9ef" x1="531.6" y1="139.8" x2="520.1" y2="139.8"/><line class="uuid-891e9494-f523-4719-97d5-177d6ea0a9ef" x1="527.2" y1="151.3" x2="520.1" y2="151.3"/></g><g><line class="uuid-891e9494-f523-4719-97d5-177d6ea0a9ef" x1="531.6" y1="116.8" x2="520.1" y2="116.8"/><line class="uuid-891e9494-f523-4719-97d5-177d6ea0a9ef" x1="527.2" y1="128.3" x2="520.1" y2="128.3"/></g><g><line class="uuid-891e9494-f523-4719-97d5-177d6ea0a9ef" x1="531.6" y1="93.8" x2="520.1" y2="93.8"/><line class="uuid-891e9494-f523-4719-97d5-177d6ea0a9ef" x1="527.2" y1="105.3" x2="520.1" y2="105.3"/></g><g><line class="uuid-891e9494-f523-4719-97d5-177d6ea0a9ef" x1="531.6" y1="70.8" x2="520.1" y2="70.8"/><line class="uuid-891e9494-f523-4719-97d5-177d6ea0a9ef" x1="527.2" y1="82.3" x2="520.1" y2="82.3"/></g></g></g><g><rect class="uuid-7bdccc29-a79c-408a-a2ef-0f8a72819593" x="458.9" y="119.1" width="12.9" height="34.1"/><rect class="uuid-5029e0de-d665-4d91-878e-e4f5ff52dd6a" x="458.9" y="119.1" width="4.8" height="34.1"/><rect class="uuid-4c6837ad-10d9-4765-9b56-32dfaf6d8d99" x="458.9" y="119.1" width="12.9" height="34.1"/><rect class="uuid-d24fc09c-4635-4706-898e-fcddc302ecc5" x="462.4" y="153.3" width="5.9" height="16.5"/><rect class="uuid-4c6837ad-10d9-4765-9b56-32dfaf6d8d99" x="462.4" y="153.3" width="5.9" height="16.5"/><g><polygon class="uuid-d24fc09c-4635-4706-898e-fcddc302ecc5" points="455.4 184.5 425.4 302.2 471 186.1 455.4 184.5"/><polygon class="uuid-4c6837ad-10d9-4765-9b56-32dfaf6d8d99" points="455.4 184.5 425.4 302.2 471 186.1 455.4 184.5"/><polygon class="uuid-d24fc09c-4635-4706-898e-fcddc302ecc5" points="475.4 184.5 505.4 302.2 459.9 186.1 475.4 184.5"/><polygon class="uuid-4c6837ad-10d9-4765-9b56-32dfaf6d8d99" points="475.4 184.5 505.4 302.2 459.9 186.1 475.4 184.5"/></g><circle class="uuid-d391193b-007b-4a31-8932-27f3d9264fc7" cx="465.4" cy="187.6" r="20"/><path class="uuid-ee5387a4-931d-4342-ad08-60cffbc1bbc1" d="M451,187.6c0-10.1,7.5-18.4,17.2-19.8-.9-.1-1.8-.2-2.8-.2-11,0-20,9-20,20s9,20,20,20c.9,0,1.9-.1,2.8-.2-9.7-1.4-17.2-9.7-17.2-19.8Z"/><circle class="uuid-4c6837ad-10d9-4765-9b56-32dfaf6d8d99" cx="465.4" cy="187.6" r="20"/><circle class="uuid-03708a28-f348-4914-9a83-904960a3ca10" cx="465.4" cy="187.6" r="6.8"/><circle class="uuid-4c6837ad-10d9-4765-9b56-32dfaf6d8d99" cx="465.4" cy="187.6" r="6.8"/></g><path class="uuid-7bdccc29-a79c-408a-a2ef-0f8a72819593" d="M393.2,302h-132c-7.7,0-14-6.3-14-14V16c0-7.7,6.3-14,14-14h132c7.7,0,14,6.3,14,14V288c0,7.7-6.3,14-14,14Z"/><path class="uuid-3d94df12-a9b6-493f-b3d4-a008b72688db" d="M393.2,2h-8.4c7.7,0,14,6.3,14,14V288c0,7.7-6.3,14-14,14h8.5c7.7,0,14-6.3,14-14V16c-.1-7.8-6.4-14-14.1-14Z"/><path class="uuid-162efb33-a8e0-4853-95a5-e27ede7b1db2" d="M255.5,288V16c0-7.7,6.3-14,14-14h-8.3c-7.7,0-14,6.3-14,14V288c0,7.7,6.3,14,14,14h8.3c-7.7,0-14-6.3-14-14Z"/><path class="uuid-4c6837ad-10d9-4765-9b56-32dfaf6d8d99" d="M393.2,302h-132c-7.7,0-14-6.3-14-14V16c0-7.7,6.3-14,14-14h132c7.7,0,14,6.3,14,14V288c0,7.7-6.3,14-14,14Z"/><rect class="uuid-44b2281c-891f-468e-bef0-ab1cc7a7b7c1" x="247.22" y="39.49" width="160" height="224"/><path class="uuid-c946fbbb-02d9-49cb-a815-c671759a9435" d="M406.4,111.7h-12.5c-6.8,0-12.3-5.5-12.3-12.3v-30.5c0-6.8,5.5-12.3,12.3-12.3h12.5v55.1Z"/><path class="uuid-c946fbbb-02d9-49cb-a815-c671759a9435" d="M256.4,235.3h-9.2v-97.3h9.2c6.9,0,12.5,5.6,12.5,12.5v72.3c-.1,6.9-5.6,12.5-12.5,12.5Z"/><rect class="uuid-4c6837ad-10d9-4765-9b56-32dfaf6d8d99" x="247.22" y="39.49" width="160" height="224"/><g><line class="uuid-ad9bd7c1-650a-4073-a434-6bf7c1d565c0" x1="349.2" y1="22" x2="356.2" y2="22"/><line class="uuid-ad9bd7c1-650a-4073-a434-6bf7c1d565c0" x1="298.2" y1="22" x2="338.2" y2="22"/></g><g><circle class="uuid-4cfd8d14-cf48-4723-bad5-5409168a0a35" cx="327.2" cy="280.4" r="11"/><circle class="uuid-03708a28-f348-4914-9a83-904960a3ca10" cx="327.2" cy="280.4" r="8.4"/></g><g class="uuid-54cf7371-bf7b-4ba2-92e8-6201daba9322"><g><path class="uuid-235e12e3-03d1-4681-8dc7-b5ee3c469c88" d="M290.7,236.7h-16c-4.4,0-8-3.6-8-8v-16c0-4.4,3.6-8,8-8h16c4.4,0,8,3.6,8,8v16c0,4.4-3.6,8-8,8Z"/><path class="uuid-235e12e3-03d1-4681-8dc7-b5ee3c469c88" d="M379.2,236.7h-16c-4.4,0-8-3.6-8-8v-16c0-4.4,3.6-8,8-8h16c4.4,0,8,3.6,8,8v16c0,4.4-3.6,8-8,8Z"/><path class="uuid-235e12e3-03d1-4681-8dc7-b5ee3c469c88" d="M335.2,236.7h-16c-4.4,0-8-3.6-8-8v-16c0-4.4,3.6-8,8-8h16c4.4,0,8,3.6,8,8v16c0,4.4-3.6,8-8,8Z"/></g><g><path class="uuid-235e12e3-03d1-4681-8dc7-b5ee3c469c88" d="M290.7,188.7h-16c-4.4,0-8-3.6-8-8v-16c0-4.4,3.6-8,8-8h16c4.4,0,8,3.6,8,8v16c0,4.4-3.6,8-8,8Z"/><path class="uuid-235e12e3-03d1-4681-8dc7-b5ee3c469c88" d="M379.2,188.7h-16c-4.4,0-8-3.6-8-8v-16c0-4.4,3.6-8,8-8h16c4.4,0,8,3.6,8,8v16c0,4.4-3.6,8-8,8Z"/><path class="uuid-235e12e3-03d1-4681-8dc7-b5ee3c469c88" d="M335.2,188.7h-16c-4.4,0-8-3.6-8-8v-16c0-4.4,3.6-8,8-8h16c4.4,0,8,3.6,8,8v16c0,4.4-3.6,8-8,8Z"/></g><g><path class="uuid-235e12e3-03d1-4681-8dc7-b5ee3c469c88" d="M290.7,140.7h-16c-4.4,0-8-3.6-8-8v-16c0-4.4,3.6-8,8-8h16c4.4,0,8,3.6,8,8v16c0,4.4-3.6,8-8,8Z"/><path class="uuid-235e12e3-03d1-4681-8dc7-b5ee3c469c88" d="M379.2,140.7h-16c-4.4,0-8-3.6-8-8v-16c0-4.4,3.6-8,8-8h16c4.4,0,8,3.6,8,8v16c0,4.4-3.6,8-8,8Z"/><path class="uuid-235e12e3-03d1-4681-8dc7-b5ee3c469c88" d="M335.2,140.7h-16c-4.4,0-8-3.6-8-8v-16c0-4.4,3.6-8,8-8h16c4.4,0,8,3.6,8,8v16c0,4.4-3.6,8-8,8Z"/></g><g><path class="uuid-235e12e3-03d1-4681-8dc7-b5ee3c469c88" d="M290.7,92.7h-16c-4.4,0-8-3.6-8-8v-16c0-4.4,3.6-8,8-8h16c4.4,0,8,3.6,8,8v16c0,4.4-3.6,8-8,8Z"/><path class="uuid-235e12e3-03d1-4681-8dc7-b5ee3c469c88" d="M379.2,92.7h-16c-4.4,0-8-3.6-8-8v-16c0-4.4,3.6-8,8-8h16c4.4,0,8,3.6,8,8v16c0,4.4-3.6,8-8,8Z"/><path class="uuid-235e12e3-03d1-4681-8dc7-b5ee3c469c88" d="M335.2,92.7h-16c-4.4,0-8-3.6-8-8v-16c0-4.4,3.6-8,8-8h16c4.4,0,8,3.6,8,8v16c0,4.4-3.6,8-8,8Z"/></g></g><path class="uuid-d391193b-007b-4a31-8932-27f3d9264fc7" d="M290.7,236.7h-16c-4.4,0-8-3.6-8-8v-16c0-4.4,3.6-8,8-8h16c4.4,0,8,3.6,8,8v16c0,4.4-3.6,8-8,8Z"/><path class="uuid-6af68578-9b06-4f80-bef2-9a78c4b68b40" d="M290.7,204.7h-16c-3.2,0-6,1.9-7.2,4.6l31.2,5.6v-2.2c0-4.4-3.6-8-8-8Z"/><path class="uuid-4c6837ad-10d9-4765-9b56-32dfaf6d8d99" d="M290.7,236.7h-16c-4.4,0-8-3.6-8-8v-16c0-4.4,3.6-8,8-8h16c4.4,0,8,3.6,8,8v16c0,4.4-3.6,8-8,8Z"/><path class="uuid-bf54ba13-dbf3-4d94-b8bb-10abbc0d6cca" d="M335.2,236.7h-16c-4.4,0-8-3.6-8-8v-16c0-4.4,3.6-8,8-8h16c4.4,0,8,3.6,8,8v16c0,4.4-3.6,8-8,8Z"/><path class="uuid-c563a73b-dd10-4997-a3c5-8cfa37702253" d="M335.2,204.7h-16c-3.2,0-6,1.9-7.2,4.6l31.2,5.6v-2.2c0-4.4-3.6-8-8-8Z"/><path class="uuid-4c6837ad-10d9-4765-9b56-32dfaf6d8d99" d="M335.2,236.7h-16c-4.4,0-8-3.6-8-8v-16c0-4.4,3.6-8,8-8h16c4.4,0,8,3.6,8,8v16c0,4.4-3.6,8-8,8Z"/><path class="uuid-324abc3b-cf5d-4f95-9d38-1004c4ee7ac6" d="M379.2,188.7h-16c-4.4,0-8-3.6-8-8v-16c0-4.4,3.6-8,8-8h16c4.4,0,8,3.6,8,8v16c0,4.4-3.6,8-8,8Z"/><path class="uuid-4959811e-b947-4c54-868f-b697caded801" d="M379.2,156.7h-16c-3.2,0-6,1.9-7.2,4.6l31.2,5.6v-2.2c0-4.4-3.6-8-8-8Z"/><path class="uuid-4c6837ad-10d9-4765-9b56-32dfaf6d8d99" d="M379.2,188.7h-16c-4.4,0-8-3.6-8-8v-16c0-4.4,3.6-8,8-8h16c4.4,0,8,3.6,8,8v16c0,4.4-3.6,8-8,8Z"/><path class="uuid-282b2638-8008-4a1f-9015-188d6dd4e94e" d="M335.2,140.7h-16c-4.4,0-8-3.6-8-8v-16c0-4.4,3.6-8,8-8h16c4.4,0,8,3.6,8,8v16c0,4.4-3.6,8-8,8Z"/><path class="uuid-809dac19-390d-4806-8945-dc2600947903" d="M335.2,108.7h-16c-3.2,0-6,1.9-7.2,4.6l31.2,5.6v-2.2c0-4.4-3.6-8-8-8Z"/><path class="uuid-4c6837ad-10d9-4765-9b56-32dfaf6d8d99" d="M335.2,140.7h-16c-4.4,0-8-3.6-8-8v-16c0-4.4,3.6-8,8-8h16c4.4,0,8,3.6,8,8v16c0,4.4-3.6,8-8,8Z"/><path class="uuid-d24fc09c-4635-4706-898e-fcddc302ecc5" d="M368.6,165.7l9.2,5.3c1.3,.8,1.3,2.7,0,3.4l-9.2,5.3c-1.3,.8-3-.2-3-1.7v-10.6c0-1.5,1.7-2.5,3-1.7Z"/><path class="uuid-d24fc09c-4635-4706-898e-fcddc302ecc5" d="M331.4,214.5h-8.4c-1.8,0-3.2,1.5-3.2,3.2v6.2c0,1.8,1.5,3.2,3.2,3.2h.3l-.7,2.8c-.1,.2,.2,.4,.4,.2l4.3-3h4.3c1.8,0,3.2-1.5,3.2-3.2v-6.2c-.1-1.8-1.6-3.2-3.4-3.2Z"/><path class="uuid-892ca05f-e397-470a-9de4-8ff45b5bd232" d="M276.5,220.7l3.7,3.7c.5,.5,1.3,.5,1.8,0l8.3-8.3"/><circle class="uuid-892ca05f-e397-470a-9de4-8ff45b5bd232" cx="327.2" cy="124.7" r="7.5"/><g><path class="uuid-d24fc09c-4635-4706-898e-fcddc302ecc5" d="M266.8,85.7l-.2-15-10,.1c-.6-1.9-1.3-3.6-2.3-5.3l7-7.2-10.7-10.5-7,7.2c-1.7-.9-3.5-1.6-5.4-2.1l-.1-10-15,.2,.1,10c-1.9,.6-3.6,1.3-5.3,2.3l-7.2-7-10.5,10.7,7.2,7c-.9,1.7-1.6,3.5-2.1,5.4l-10,.1,.2,15,10-.1c.6,1.9,1.3,3.6,2.3,5.3l-7,7.2,10.7,10.5,7-7.2c1.7,.9,3.5,1.6,5.4,2.1l.1,10,15-.2-.1-10c1.9-.6,3.6-1.3,5.3-2.3l7.2,7,10.5-10.7-7.2-7c.9-1.7,1.6-3.5,2.1-5.4l10-.1Zm-35.5,4.6c-6.5,.1-11.7-5.1-11.8-11.6-.1-6.5,5.1-11.7,11.6-11.8,6.5-.1,11.7,5.1,11.8,11.6,0,6.5-5.2,11.7-11.6,11.8Z"/><path class="uuid-bf54ba13-dbf3-4d94-b8bb-10abbc0d6cca" d="M266.8,85.7l-.2-15-10,.1c-.6-1.9-1.3-3.6-2.3-5.3l7-7.2-10.7-10.5-7,7.2c-1.7-.9-3.5-1.6-5.4-2.1l-.1-10-15,.2,.1,10c-1.9,.6-3.6,1.3-5.3,2.3l-7.2-7-10.5,10.7,7.2,7c-.9,1.7-1.6,3.5-2.1,5.4l-10,.1,.2,15,10-.1c.6,1.9,1.3,3.6,2.3,5.3l-7,7.2,10.7,10.5,7-7.2c1.7,.9,3.5,1.6,5.4,2.1l.1,10,15-.2-.1-10c1.9-.6,3.6-1.3,5.3-2.3l7.2,7,10.5-10.7-7.2-7c.9-1.7,1.6-3.5,2.1-5.4l10-.1Zm-35.5,4.6c-6.5,.1-11.7-5.1-11.8-11.6-.1-6.5,5.1-11.7,11.6-11.8,6.5-.1,11.7,5.1,11.8,11.6,0,6.5-5.2,11.7-11.6,11.8Z"/><path class="uuid-bf54ba13-dbf3-4d94-b8bb-10abbc0d6cca" d="M266.8,85.7l-.2-15-10,.1c-.6-1.9-1.3-3.6-2.3-5.3l7-7.2-10.7-10.5-7,7.2c-1.7-.9-3.5-1.6-5.4-2.1l-.1-10-15,.2,.1,10c-1.9,.6-3.6,1.3-5.3,2.3l-7.2-7-10.5,10.7,7.2,7c-.9,1.7-1.6,3.5-2.1,5.4l-10,.1,.2,15,10-.1c.6,1.9,1.3,3.6,2.3,5.3l-7,7.2,10.7,10.5,7-7.2c1.7,.9,3.5,1.6,5.4,2.1l.1,10,15-.2-.1-10c1.9-.6,3.6-1.3,5.3-2.3l7.2,7,10.5-10.7-7.2-7c.9-1.7,1.6-3.5,2.1-5.4l10-.1Zm-35.5,4.6c-6.5,.1-11.7-5.1-11.8-11.6-.1-6.5,5.1-11.7,11.6-11.8,6.5-.1,11.7,5.1,11.8,11.6,0,6.5-5.2,11.7-11.6,11.8Z"/><g class="uuid-706f60f7-e7df-42a9-8435-8dc959a4b30f"><path class="uuid-bf54ba13-dbf3-4d94-b8bb-10abbc0d6cca" d="M263,70.8s0,.1,0,0h3.7v-.1l-3.7,.1Z"/><path class="uuid-bf54ba13-dbf3-4d94-b8bb-10abbc0d6cca" d="M250,55.1l3.9-4-3.2-3.2-5.2,5.3c1.6,.5,3.1,1.1,4.5,1.9Z"/><path class="uuid-bf54ba13-dbf3-4d94-b8bb-10abbc0d6cca" d="M237.3,66.9c-1.1,0-2.1,.2-3,.4,4.9,1.4,8.5,5.8,8.5,11.1,.1,5.4-3.6,10-8.5,11.4,1,.3,2.2,.5,3.3,.4,6.5-.1,11.6-5.4,11.6-11.8s-5.4-11.5-11.9-11.5Z"/><path class="uuid-bf54ba13-dbf3-4d94-b8bb-10abbc0d6cca" d="M222.4,53.4l2,1.9c1.7-.9,3.4-1.7,5.3-2.3l-.1-10,8.6-.1v-.1l-15,.2,.1,10c-.2,.2-.6,.3-.9,.4Z"/><path class="uuid-bf54ba13-dbf3-4d94-b8bb-10abbc0d6cca" d="M230.2,104.3c-1.9-.5-3.7-1.2-5.4-2.1l-1.8,1.9c.3,.1,.6,.2,.9,.3l.1,10,6.3-.1-.1-10Z"/><path class="uuid-bf54ba13-dbf3-4d94-b8bb-10abbc0d6cca" d="M201.8,71.5l10-.1c.5-1.9,1.2-3.7,2.1-5.4l-7.2-7,7.4-7.5-3.2-3.2-10.5,10.7,7.2,7c-.9,1.7-1.6,3.5-2.1,5.4l-10,.1,.2,15,6.3-.1-.2-14.9Z"/><path class="uuid-bf54ba13-dbf3-4d94-b8bb-10abbc0d6cca" d="M250.5,101.9c-1.4,.8-2.8,1.4-4.3,1.9l5.2,5.1,3.1-3.2-4-3.8Z"/><path class="uuid-bf54ba13-dbf3-4d94-b8bb-10abbc0d6cca" d="M207.2,98.8l7-7.2c-.9-1.7-1.7-3.4-2.3-5.3l-6.3,.1c.6,1.8,1.3,3.6,2.2,5.2l-7,7.2,10.7,10.5,3.1-3.2-7.4-7.3Z"/></g><path class="uuid-4c6837ad-10d9-4765-9b56-32dfaf6d8d99" d="M266.8,85.7l-.2-15-10,.1c-.6-1.9-1.3-3.6-2.3-5.3l7-7.2-10.7-10.5-7,7.2c-1.7-.9-3.5-1.6-5.4-2.1l-.1-10-15,.2,.1,10c-1.9,.6-3.6,1.3-5.3,2.3l-7.2-7-10.5,10.7,7.2,7c-.9,1.7-1.6,3.5-2.1,5.4l-10,.1,.2,15,10-.1c.6,1.9,1.3,3.6,2.3,5.3l-7,7.2,10.7,10.5,7-7.2c1.7,.9,3.5,1.6,5.4,2.1l.1,10,15-.2-.1-10c1.9-.6,3.6-1.3,5.3-2.3l7.2,7,10.5-10.7-7.2-7c.9-1.7,1.6-3.5,2.1-5.4l10-.1Zm-35.5,4.6c-6.5,.1-11.7-5.1-11.8-11.6-.1-6.5,5.1-11.7,11.6-11.8,6.5-.1,11.7,5.1,11.8,11.6,0,6.5-5.2,11.7-11.6,11.8Z"/></g><g><path class="uuid-03708a28-f348-4914-9a83-904960a3ca10" d="M204.3,302H80.6c-4.1,0-7.4-3.3-7.4-7.4v-84.6c0-4.1,3.3-7.4,7.4-7.4h123.8c4.1,0,7.4,3.3,7.4,7.4v84.6c-.1,4.1-3.4,7.4-7.5,7.4Z"/><path class="uuid-45b81454-2e33-44b8-b3cd-da4b5dc22f49" d="M211.7,218.7H73.2v-8.7c0-4.1,3.3-7.4,7.4-7.4h123.8c4.1,0,7.4,3.3,7.4,7.4v8.7h-.1Z"/><path class="uuid-4c6837ad-10d9-4765-9b56-32dfaf6d8d99" d="M204.3,302H80.6c-4.1,0-7.4-3.3-7.4-7.4v-84.6c0-4.1,3.3-7.4,7.4-7.4h123.8c4.1,0,7.4,3.3,7.4,7.4v84.6c-.1,4.1-3.4,7.4-7.5,7.4Z"/><path class="uuid-4c6837ad-10d9-4765-9b56-32dfaf6d8d99" d="M204.3,302H80.6c-4.1,0-7.4-3.3-7.4-7.4v-84.6c0-4.1,3.3-7.4,7.4-7.4h123.8c4.1,0,7.4,3.3,7.4,7.4v84.6c-.1,4.1-3.4,7.4-7.5,7.4Z"/><path class="uuid-4c6837ad-10d9-4765-9b56-32dfaf6d8d99" d="M211.7,218.7H73.2v-8.7c0-4.1,3.3-7.4,7.4-7.4h123.8c4.1,0,7.4,3.3,7.4,7.4v8.7h-.1Z"/><g><g><line class="uuid-892ca05f-e397-470a-9de4-8ff45b5bd232" x1="92.3" y1="289.3" x2="107.9" y2="289.3"/><line class="uuid-892ca05f-e397-470a-9de4-8ff45b5bd232" x1="81.3" y1="289.3" x2="82.4" y2="289.3"/></g><g><line class="uuid-892ca05f-e397-470a-9de4-8ff45b5bd232" x1="92.3" y1="280.7" x2="131.8" y2="280.7"/><line class="uuid-892ca05f-e397-470a-9de4-8ff45b5bd232" x1="81.3" y1="280.7" x2="82.4" y2="280.7"/></g><g><line class="uuid-3c3cc668-d405-42f3-9f34-469443ec210d" x1="150.6" y1="272" x2="161.4" y2="272"/><line class="uuid-892ca05f-e397-470a-9de4-8ff45b5bd232" x1="121.2" y1="272" x2="141.2" y2="272"/><line class="uuid-c0a2475a-c023-4685-83a1-7cd6f27022bc" x1="92.3" y1="272" x2="112.1" y2="272"/><line class="uuid-892ca05f-e397-470a-9de4-8ff45b5bd232" x1="81.3" y1="272" x2="82.4" y2="272"/></g><g><line class="uuid-892ca05f-e397-470a-9de4-8ff45b5bd232" x1="125.6" y1="263.4" x2="173.8" y2="263.4"/><line class="uuid-3c3cc668-d405-42f3-9f34-469443ec210d" x1="92.3" y1="263.4" x2="117.5" y2="263.4"/><line class="uuid-892ca05f-e397-470a-9de4-8ff45b5bd232" x1="81.3" y1="263.4" x2="82.4" y2="263.4"/></g><g><line class="uuid-c0a2475a-c023-4685-83a1-7cd6f27022bc" x1="125.6" y1="254.8" x2="143.6" y2="254.8"/><line class="uuid-277fd8f7-2e8c-48a4-a37f-6fd00e05db1e" x1="92.3" y1="254.8" x2="117.5" y2="254.8"/><line class="uuid-892ca05f-e397-470a-9de4-8ff45b5bd232" x1="81.3" y1="254.8" x2="82.4" y2="254.8"/></g><g><line class="uuid-3c3cc668-d405-42f3-9f34-469443ec210d" x1="129.1" y1="246.2" x2="134" y2="246.2"/><line class="uuid-c0a2475a-c023-4685-83a1-7cd6f27022bc" x1="110.1" y1="246.2" x2="121.2" y2="246.2"/><line class="uuid-0b66767d-807a-442a-b7f0-1d1851d01883" x1="92.3" y1="246.2" x2="101.5" y2="246.2"/><line class="uuid-892ca05f-e397-470a-9de4-8ff45b5bd232" x1="81.3" y1="246.2" x2="82.4" y2="246.2"/></g><g><line class="uuid-3c3cc668-d405-42f3-9f34-469443ec210d" x1="165.1" y1="237.5" x2="173.8" y2="237.5"/><line class="uuid-c0a2475a-c023-4685-83a1-7cd6f27022bc" x1="120" y1="237.5" x2="154.1" y2="237.5"/><line class="uuid-277fd8f7-2e8c-48a4-a37f-6fd00e05db1e" x1="92.3" y1="237.5" x2="112.6" y2="237.5"/><line class="uuid-892ca05f-e397-470a-9de4-8ff45b5bd232" x1="81.3" y1="237.5" x2="82.4" y2="237.5"/></g><g><line class="uuid-277fd8f7-2e8c-48a4-a37f-6fd00e05db1e" x1="143.6" y1="228.9" x2="161.4" y2="228.9"/><line class="uuid-51821fa1-94ca-4a96-84a2-a6ea44874c41" x1="121.2" y1="228.9" x2="135" y2="228.9"/><line class="uuid-277fd8f7-2e8c-48a4-a37f-6fd00e05db1e" x1="106.2" y1="228.9" x2="114" y2="228.9"/><line class="uuid-51821fa1-94ca-4a96-84a2-a6ea44874c41" x1="92.3" y1="228.9" x2="98.7" y2="228.9"/><line class="uuid-892ca05f-e397-470a-9de4-8ff45b5bd232" x1="81.3" y1="228.9" x2="82.4" y2="228.9"/></g></g><g><circle class="uuid-282b2638-8008-4a1f-9015-188d6dd4e94e" cx="86.9" cy="210.7" r="2.5"/><circle class="uuid-03708a28-f348-4914-9a83-904960a3ca10" cx="95.9" cy="210.7" r="2.5"/><circle class="uuid-03708a28-f348-4914-9a83-904960a3ca10" cx="105" cy="210.7" r="2.5"/></g></g><path class="uuid-d24fc09c-4635-4706-898e-fcddc302ecc5" d="M253.6,227.5h-89.6c-4.4,0-8-3.6-8-8v-80.9c0-4.4,3.6-8,8-8h89.6c4.4,0,8,3.6,8,8v80.9c0,4.4-3.6,8-8,8Z"/><path class="uuid-d24fc09c-4635-4706-898e-fcddc302ecc5" d="M253.6,227.5h-89.6c-4.4,0-8-3.6-8-8v-80.9c0-4.4,3.6-8,8-8h89.6c4.4,0,8,3.6,8,8v80.9c0,4.4-3.6,8-8,8Z"/><path class="uuid-4c6837ad-10d9-4765-9b56-32dfaf6d8d99" d="M253.6,227.5h-89.6c-4.4,0-8-3.6-8-8v-80.9c0-4.4,3.6-8,8-8h89.6c4.4,0,8,3.6,8,8v80.9c0,4.4-3.6,8-8,8Z"/><rect class="uuid-f41a4343-875a-4d07-9913-672d90b48571" x="165.1" y="138.8" width="86.8" height="57.7"/><rect class="uuid-4c6837ad-10d9-4765-9b56-32dfaf6d8d99" x="165.1" y="138.8" width="86.8" height="57.7"/><line class="uuid-4c6837ad-10d9-4765-9b56-32dfaf6d8d99" x1="165.1" y1="205.7" x2="219.9" y2="205.7"/><line class="uuid-4c6837ad-10d9-4765-9b56-32dfaf6d8d99" x1="165.1" y1="214.9" x2="197.5" y2="214.9"/><polyline class="uuid-4c6837ad-10d9-4765-9b56-32dfaf6d8d99" points="173.8 186.2 192.5 167.7 209.9 185.1"/><polyline class="uuid-4c6837ad-10d9-4765-9b56-32dfaf6d8d99" points="242.5 186.2 219.9 156.7 201.8 176.9"/><circle class="uuid-4c6837ad-10d9-4765-9b56-32dfaf6d8d99" cx="242.3" cy="209.9" r="4.9"/><circle class="uuid-bf54ba13-dbf3-4d94-b8bb-10abbc0d6cca" cx="198" cy="156.7" r="6.2"/><circle class="uuid-4c6837ad-10d9-4765-9b56-32dfaf6d8d99" cx="198" cy="156.7" r="6.2"/><g><line class="uuid-4c6837ad-10d9-4765-9b56-32dfaf6d8d99" x1="154.3" y1="102.1" x2="181.1" y2="102.1"/><line class="uuid-4c6837ad-10d9-4765-9b56-32dfaf6d8d99" x1="140" y1="102.1" x2="147.1" y2="102.1"/><line class="uuid-4c6837ad-10d9-4765-9b56-32dfaf6d8d99" x1="167.7" y1="89.7" x2="181.1" y2="89.7"/><line class="uuid-4c6837ad-10d9-4765-9b56-32dfaf6d8d99" x1="156.9" y1="89.7" x2="160.9" y2="89.7"/></g><g><line class="uuid-4c6837ad-10d9-4765-9b56-32dfaf6d8d99" x1="125.3" y1="180.5" x2="146.2" y2="180.5"/><line class="uuid-4c6837ad-10d9-4765-9b56-32dfaf6d8d99" x1="114.2" y1="180.5" x2="119.7" y2="180.5"/><line class="uuid-4c6837ad-10d9-4765-9b56-32dfaf6d8d99" x1="137.7" y1="168.1" x2="146.2" y2="168.1"/><line class="uuid-4c6837ad-10d9-4765-9b56-32dfaf6d8d99" x1="127.3" y1="168.1" x2="130.5" y2="168.1"/></g><g><line class="uuid-4c6837ad-10d9-4765-9b56-32dfaf6d8d99" x1="458.6" y1="35.4" x2="478.4" y2="35.4"/><line class="uuid-4c6837ad-10d9-4765-9b56-32dfaf6d8d99" x1="446.4" y1="35.4" x2="452" y2="35.4"/><line class="uuid-4c6837ad-10d9-4765-9b56-32dfaf6d8d99" x1="469.9" y1="23" x2="478.4" y2="23"/><line class="uuid-4c6837ad-10d9-4765-9b56-32dfaf6d8d99" x1="459.6" y1="23" x2="462.7" y2="23"/></g><path class="uuid-324abc3b-cf5d-4f95-9d38-1004c4ee7ac6" d="M474,105.3h-78.2c-4.8,0-8.6-3.9-8.6-8.6V58.8c0-4.8,3.9-8.6,8.6-8.6h78.2c4.8,0,8.6,3.9,8.6,8.6v37.8c0,4.8-3.8,8.7-8.6,8.7Z"/><path class="uuid-891e9494-f523-4719-97d5-177d6ea0a9ef" d="M474,105.3h-78.2c-4.8,0-8.6-3.9-8.6-8.6V58.8c0-4.8,3.9-8.6,8.6-8.6h78.2c4.8,0,8.6,3.9,8.6,8.6v37.8c0,4.8-3.8,8.7-8.6,8.7Z"/><line class="uuid-8fa77fa8-fd36-45d0-adce-19b128009dde" x1="434.9" y1="65" x2="468.7" y2="65"/><line class="uuid-8fa77fa8-fd36-45d0-adce-19b128009dde" x1="434.9" y1="75.9" x2="457.3" y2="75.9"/><g class="uuid-b7f89f77-0e4d-4ba6-a063-e4d800e98f4d"><path class="uuid-d24fc09c-4635-4706-898e-fcddc302ecc5" d="M451.9,92.2h-13.6c-1.8,0-3.3-1.5-3.3-3.3h0c0-1.8,1.5-3.3,3.3-3.3h13.6c1.8,0,3.3,1.5,3.3,3.3h0c0,1.8-1.4,3.3-3.3,3.3Z"/><path class="uuid-ee2107b6-f702-4988-bfb7-ad4c97d9751f" d="M451.9,92.2h-13.6c-1.8,0-3.3-1.5-3.3-3.3h0c0-1.8,1.5-3.3,3.3-3.3h13.6c1.8,0,3.3,1.5,3.3,3.3h0c0,1.8-1.4,3.3-3.3,3.3Z"/></g><g><path class="uuid-ee2107b6-f702-4988-bfb7-ad4c97d9751f" d="M420.8,92.7h-17.9c-2.6,0-4.6-2.1-4.6-4.6v-20.9c0-2.6,2.1-4.6,4.6-4.6h17.9c2.6,0,4.6,2.1,4.6,4.6v20.9c0,2.5-2,4.6-4.6,4.6Z"/><circle class="uuid-ee2107b6-f702-4988-bfb7-ad4c97d9751f" cx="411.9" cy="74.2" r="4.8"/><path class="uuid-ee2107b6-f702-4988-bfb7-ad4c97d9751f" d="M402.8,92.2c0-5,4.1-9.1,9.1-9.1s9.1,4.1,9.1,9.1"/></g></svg>