<?xml version="1.0" encoding="UTF-8"?><svg id="uuid-fcf9815a-da40-40dd-86cb-aed9435e9f9f"
                                           xmlns="http://www.w3.org/2000/svg" viewBox="0 0 70.68 56.24"><defs><style>.uuid-4213b60c-7c6a-479f-87fd-f5b967e810cd{fill:#378eff;}.uuid-e76b3096-14ac-4870-946d-cf8b68abcea7{fill:#8ab0e3;}</style></defs><path class="uuid-e76b3096-14ac-4870-946d-cf8b68abcea7" d="M38.87,40.22H4.85c-2.67,0-4.85-2.18-4.85-4.85V4.85C0,2.18,2.18,0,4.85,0H50.69c2.67,0,4.85,2.18,4.85,4.85v3.11c0,.28-.22,.5-.5,.5s-.5-.22-.5-.5v-3.11c0-2.12-1.73-3.85-3.85-3.85H4.85c-2.12,0-3.85,1.73-3.85,3.85v30.52c0,2.12,1.73,3.85,3.85,3.85H38.87c.28,0,.5,.22,.5,.5s-.22,.5-.5,.5Z"/><path class="uuid-e76b3096-14ac-4870-946d-cf8b68abcea7" d="M64.65,56.24h-19.21c-2.25,0-4.07-1.83-4.07-4.07V14.53c0-2.25,1.83-4.07,4.07-4.07h19.21c2.25,0,4.07,1.83,4.07,4.07V52.17c0,2.25-1.83,4.07-4.07,4.07ZM45.44,11.46c-1.69,0-3.07,1.38-3.07,3.07V52.17c0,1.69,1.38,3.07,3.07,3.07h19.21c1.69,0,3.07-1.38,3.07-3.07V14.53c0-1.69-1.38-3.07-3.07-3.07h-19.21Z"/><path class="uuid-e76b3096-14ac-4870-946d-cf8b68abcea7" d="M38.78,35.87H.5c-.28,0-.5-.22-.5-.5s.22-.5,.5-.5H38.78c.28,0,.5,.22,.5,.5s-.22,.5-.5,.5Z"/><path class="uuid-e76b3096-14ac-4870-946d-cf8b68abcea7" d="M8.01,5.35H.51C.24,5.35,.01,5.13,.01,4.85s.22-.5,.5-.5h7.49c.28,0,.5,.22,.5,.5s-.22,.5-.5,.5Z"/><path class="uuid-e76b3096-14ac-4870-946d-cf8b68abcea7" d="M21.2,5.35h-7.13c-.28,0-.5-.22-.5-.5s.22-.5,.5-.5h7.13c.28,0,.5,.22,.5,.5s-.22,.5-.5,.5Z"/><path class="uuid-e76b3096-14ac-4870-946d-cf8b68abcea7" d="M55.04,5.35H26.33c-.28,0-.5-.22-.5-.5s.22-.5,.5-.5h28.71c.28,0,.5,.22,.5,.5s-.22,.5-.5,.5Z"/><g><path class="uuid-e76b3096-14ac-4870-946d-cf8b68abcea7" d="M22.64,46.79c-.28,0-.5-.22-.5-.5v-6.56c0-.28,.22-.5,.5-.5s.5,.22,.5,.5v6.56c0,.28-.22,.5-.5,.5Z"/><path class="uuid-e76b3096-14ac-4870-946d-cf8b68abcea7" d="M32.9,46.79c-.28,0-.5-.22-.5-.5v-6.56c0-.28,.22-.5,.5-.5s.5,.22,.5,.5v6.56c0,.28-.22,.5-.5,.5Z"/></g><path class="uuid-e76b3096-14ac-4870-946d-cf8b68abcea7" d="M38.4,50.05H17.14c-.28,0-.5-.22-.5-.5v-3.27c0-.28,.22-.5,.5-.5h21.27c.28,0,.5,.22,.5,.5v3.27c0,.28-.22,.5-.5,.5Zm-20.77-1h20.27v-2.27H17.64v2.27Z"/><path class="uuid-e76b3096-14ac-4870-946d-cf8b68abcea7" d="M68.22,50.67h-26.35c-.28,0-.5-.22-.5-.5s.22-.5,.5-.5h26.35c.28,0,.5,.22,.5,.5s-.22,.5-.5,.5Z"/><path class="uuid-e76b3096-14ac-4870-946d-cf8b68abcea7" d="M68.22,17.03h-26.35c-.28,0-.5-.22-.5-.5s.22-.5,.5-.5h26.35c.28,0,.5,.22,.5,.5s-.22,.5-.5,.5Z"/><path class="uuid-e76b3096-14ac-4870-946d-cf8b68abcea7" d="M56.25,14.08h-2.42c-.28,0-.5-.22-.5-.5s.22-.5,.5-.5h2.42c.28,0,.5,.22,.5,.5s-.22,.5-.5,.5Z"/><path class="uuid-e76b3096-14ac-4870-946d-cf8b68abcea7" d="M56.25,53.48h-2.42c-.28,0-.5-.22-.5-.5s.22-.5,.5-.5h2.42c.28,0,.5,.22,.5,.5s-.22,.5-.5,.5Z"/><g><path class="uuid-e76b3096-14ac-4870-946d-cf8b68abcea7" d="M70.18,21.96c-.28,0-.5-.22-.5-.5v-2.19c0-.28,.22-.5,.5-.5s.5,.22,.5,.5v2.19c0,.28-.22,.5-.5,.5Z"/><path class="uuid-e76b3096-14ac-4870-946d-cf8b68abcea7" d="M70.18,26.71c-.28,0-.5-.22-.5-.5v-2.19c0-.28,.22-.5,.5-.5s.5,.22,.5,.5v2.19c0,.28-.22,.5-.5,.5Z"/></g><g><path class="uuid-4213b60c-7c6a-479f-87fd-f5b967e810cd" d="M25.94,26.39s-.1,0-.15-.02c-.26-.08-.41-.36-.33-.63l3.66-11.55c.08-.26,.36-.41,.63-.33,.26,.08,.41,.36,.33,.63l-3.66,11.55c-.07,.21-.26,.35-.48,.35Z"/><g><path class="uuid-4213b60c-7c6a-479f-87fd-f5b967e810cd" d="M20.77,24.12c-.13,0-.26-.05-.35-.15l-3.5-3.5c-.2-.2-.2-.51,0-.71l3.5-3.5c.2-.2,.51-.2,.71,0,.2,.2,.2,.51,0,.71l-3.15,3.15,3.15,3.15c.2,.2,.2,.51,0,.71-.1,.1-.23,.15-.35,.15Z"/><path class="uuid-4213b60c-7c6a-479f-87fd-f5b967e810cd" d="M34.78,24.12c-.13,0-.26-.05-.35-.15-.2-.2-.2-.51,0-.71l3.15-3.15-3.15-3.15c-.2-.2-.2-.51,0-.71,.2-.2,.51-.2,.71,0l3.5,3.5c.2,.2,.2,.51,0,.71l-3.5,3.5c-.1,.1-.23,.15-.35,.15Z"/></g></g><g><path class="uuid-4213b60c-7c6a-479f-87fd-f5b967e810cd" d="M53.76,37.91s-.1,0-.15-.02c-.26-.08-.41-.36-.33-.63l2.57-8.12c.08-.26,.36-.41,.63-.33,.26,.08,.41,.36,.33,.63l-2.57,8.12c-.07,.21-.26,.35-.48,.35Z"/><g><path class="uuid-4213b60c-7c6a-479f-87fd-f5b967e810cd" d="M50.12,36.32c-.13,0-.26-.05-.35-.15l-2.46-2.46c-.09-.09-.15-.22-.15-.35s.05-.26,.15-.35l2.46-2.46c.2-.2,.51-.2,.71,0s.2,.51,0,.71l-2.11,2.11,2.11,2.11c.2,.2,.2,.51,0,.71-.1,.1-.23,.15-.35,.15Z"/><path class="uuid-4213b60c-7c6a-479f-87fd-f5b967e810cd" d="M59.97,36.32c-.13,0-.26-.05-.35-.15-.2-.2-.2-.51,0-.71l2.11-2.11-2.11-2.11c-.2-.2-.2-.51,0-.71,.2-.2,.51-.2,.71,0l2.46,2.46c.09,.09,.15,.22,.15,.35s-.05,.26-.15,.35l-2.46,2.46c-.1,.1-.23,.15-.35,.15Z"/></g></g></svg>