<?xml version="1.0" encoding="UTF-8"?>
<svg width="1389px" height="910px" viewBox="0 0 1389 910" version="1.1" xmlns="http://www.w3.org/2000/svg" xmlns:xlink="http://www.w3.org/1999/xlink">
    <!-- Generator: Sketch 59.1 (86144) - https://sketch.com -->
    <title>Group 2</title>
    <desc>Created with Sketch.</desc>
    <defs>
        <linearGradient x1="45.3895562%" y1="70.3322242%" x2="67.8153574%" y2="17.2482065%" id="linearGradient-1">
            <stop stop-color="#7700BB" offset="0%"></stop>
            <stop stop-color="#00008B" offset="100%"></stop>
            <stop stop-color="#000000" offset="100%"></stop>
        </linearGradient>
        <linearGradient x1="-0.000459619843%" y1="50.0008184%" x2="99.9997957%" y2="50.0008184%" id="linearGradient-2">
            <stop stop-color="#A1BAFF" offset="0%"></stop>
            <stop stop-color="#ACC2FF" offset="8.88%"></stop>
            <stop stop-color="#D9E3FF" offset="49.88%"></stop>
            <stop stop-color="#F5F7FF" offset="81.6%"></stop>
            <stop stop-color="#FFFFFF" offset="100%"></stop>
        </linearGradient>
        <path d="M75.0884574,838.051964 C162.331826,898.174643 470.178823,922.469554 829.198159,903.266696 C1188.21401,884.060357 1423.72384,823.113571 1384.65879,688.679643 C1345.59607,554.244554 1219.10416,543.572946 1241.42804,387.801607 C1263.75076,232.026786 1281.14113,79.1270536 1150.92586,21.5115179 C1020.71408,-36.1040179 851.844898,35.985625 747.672221,100.001339 C643.501866,164.018214 458.86126,289.730536 401.195694,261.990625 C343.530128,234.249554 283.657957,155.474196 178.459788,258.650089 C-65.2249314,497.644643 -14.7203804,776.160357 75.0884574,838.051964 Z" id="path-3"></path>
        <rect id="path-5" x="0.292665552" y="0.725446429" width="1441.98292" height="310.868304"></rect>
        <path d="M75.0884574,838.051964 C162.331826,898.174643 470.178823,922.469554 829.198159,903.266696 C1188.21401,884.060357 1423.72384,823.113571 1384.65879,688.679643 C1345.59607,554.244554 1219.10416,543.572946 1241.42804,387.801607 C1263.75076,232.026786 1281.14113,79.1270536 1150.92586,21.5115179 C1020.71408,-36.1040179 851.844898,35.985625 747.672221,100.001339 C643.501866,164.018214 458.86126,289.730536 401.195694,261.990625 C343.530128,234.249554 283.657957,155.474196 178.459788,258.650089 C-65.2249314,497.644643 -14.7203804,776.160357 75.0884574,838.051964 Z" id="path-7"></path>
        <path d="M75.0884574,838.051964 C162.331826,898.174643 470.178823,922.469554 829.198159,903.266696 C1188.21401,884.060357 1423.72384,823.113571 1384.65879,688.679643 C1345.59607,554.244554 1219.10416,543.572946 1241.42804,387.801607 C1263.75076,232.026786 1281.14113,79.1270536 1150.92586,21.5115179 C1020.71408,-36.1040179 851.844898,35.985625 747.672221,100.001339 C643.501866,164.018214 458.86126,289.730536 401.195694,261.990625 C343.530128,234.249554 283.657957,155.474196 178.459788,258.650089 C-65.2249314,497.644643 -14.7203804,776.160357 75.0884574,838.051964 Z" id="path-9"></path>
        <linearGradient x1="49.3384122%" y1="50.7146815%" x2="50.1363272%" y2="49.0809567%" id="linearGradient-11">
            <stop stop-color="#7700BB" offset="0%"></stop>
            <stop stop-color="#00008B" offset="100%"></stop>
            <stop stop-color="#000000" offset="100%"></stop>
        </linearGradient>
        <linearGradient x1="49.7478055%" y1="53.4596794%" x2="51.4143543%" y2="47.3316218%" id="linearGradient-12">
            <stop stop-color="#7700BB" offset="0%"></stop>
            <stop stop-color="#00008B" offset="100%"></stop>
            <stop stop-color="#000000" offset="100%"></stop>
        </linearGradient>
        <path d="M75.0884574,838.051964 C162.331826,898.174643 470.178823,922.469554 829.198159,903.266696 C1188.21401,884.060357 1423.72384,823.113571 1384.65879,688.679643 C1345.59607,554.244554 1219.10416,543.572946 1241.42804,387.801607 C1263.75076,232.026786 1281.14113,79.1270536 1150.92586,21.5115179 C1020.71408,-36.1040179 851.844898,35.985625 747.672221,100.001339 C643.501866,164.018214 458.86126,289.730536 401.195694,261.990625 C343.530128,234.249554 283.657957,155.474196 178.459788,258.650089 C-65.2249314,497.644643 -14.7203804,776.160357 75.0884574,838.051964 Z" id="path-13"></path>
        <linearGradient x1="44.8925497%" y1="52.5994455%" x2="55.8229066%" y2="44.5061838%" id="linearGradient-15">
            <stop stop-color="#7700BB" offset="0%"></stop>
            <stop stop-color="#00008B" offset="100%"></stop>
            <stop stop-color="#000000" offset="100%"></stop>
        </linearGradient>
        <linearGradient x1="89.6332893%" y1="16.2843442%" x2="-14.9766708%" y2="96.6197787%" id="linearGradient-16">
            <stop stop-color="#7633FF" offset="0%"></stop>
            <stop stop-color="#7051FF" offset="8.82%"></stop>
            <stop stop-color="#6685FF" offset="25.96%"></stop>
            <stop stop-color="#5EB1FF" offset="42.79%"></stop>
            <stop stop-color="#57D3FF" offset="58.93%"></stop>
            <stop stop-color="#53EBFF" offset="74.21%"></stop>
            <stop stop-color="#50FAFF" offset="88.29%"></stop>
            <stop stop-color="#4FFFFF" offset="100%"></stop>
        </linearGradient>
        <linearGradient x1="56.3995893%" y1="46.4299748%" x2="35.8437145%" y2="74.3935922%" id="linearGradient-17">
            <stop stop-color="#2E1F43" offset="0%"></stop>
            <stop stop-color="#2B2751" offset="4.42%"></stop>
            <stop stop-color="#1E4786" offset="22.39%"></stop>
            <stop stop-color="#1361B1" offset="40.02%"></stop>
            <stop stop-color="#0B76D3" offset="56.95%"></stop>
            <stop stop-color="#0584EB" offset="72.97%"></stop>
            <stop stop-color="#018DFA" offset="87.72%"></stop>
            <stop stop-color="#0090FF" offset="100%"></stop>
        </linearGradient>
        <linearGradient x1="66.8181676%" y1="61.0417776%" x2="36.4871462%" y2="41.7763397%" id="linearGradient-18">
            <stop stop-color="#A1BAFF" offset="0%"></stop>
            <stop stop-color="#A9C0FF" offset="6.19%"></stop>
            <stop stop-color="#E7EDFF" offset="57.84%"></stop>
            <stop stop-color="#FFFFFF" offset="82.35%"></stop>
        </linearGradient>
        <linearGradient x1="-0.000125326469%" y1="49.9998547%" x2="99.9998834%" y2="49.9998547%" id="linearGradient-19">
            <stop stop-color="#7633FF" offset="0%"></stop>
            <stop stop-color="#4E53FF" offset="21.64%"></stop>
            <stop stop-color="#2C6DFF" offset="43.62%"></stop>
            <stop stop-color="#1480FF" offset="64.59%"></stop>
            <stop stop-color="#058CFF" offset="83.91%"></stop>
            <stop stop-color="#0090FF" offset="100%"></stop>
        </linearGradient>
        <linearGradient x1="46.4019002%" y1="43.4314248%" x2="59.2561475%" y2="62.4196222%" id="linearGradient-20">
            <stop stop-color="#5133C4" offset="0%"></stop>
            <stop stop-color="#4343CE" offset="10.04%"></stop>
            <stop stop-color="#2664E3" offset="35.29%"></stop>
            <stop stop-color="#117CF3" offset="59.36%"></stop>
            <stop stop-color="#048BFC" offset="81.53%"></stop>
            <stop stop-color="#0090FF" offset="100%"></stop>
        </linearGradient>
        <linearGradient x1="57.3165495%" y1="49.4710995%" x2="78.6896738%" y2="80.1070257%" id="linearGradient-21">
            <stop stop-color="#5133C4" offset="0%"></stop>
            <stop stop-color="#4343CE" offset="10.04%"></stop>
            <stop stop-color="#2664E3" offset="35.29%"></stop>
            <stop stop-color="#117CF3" offset="59.36%"></stop>
            <stop stop-color="#048BFC" offset="81.53%"></stop>
            <stop stop-color="#0090FF" offset="100%"></stop>
        </linearGradient>
        <linearGradient x1="66.5770587%" y1="87.0475243%" x2="24.4744583%" y2="-2.07397954%" id="linearGradient-22">
            <stop stop-color="#88CFDA" offset="20.32%"></stop>
            <stop stop-color="#A0D3CE" offset="23.23%"></stop>
            <stop stop-color="#C2D8BE" offset="28.19%"></stop>
            <stop stop-color="#DDDCB1" offset="33.24%"></stop>
            <stop stop-color="#F0DFA7" offset="38.38%"></stop>
            <stop stop-color="#FBE0A2" offset="43.64%"></stop>
            <stop stop-color="#FFE1A0" offset="49.2%"></stop>
            <stop stop-color="#FFE9BB" offset="60.01%"></stop>
            <stop stop-color="#FFF5E0" offset="77.25%"></stop>
            <stop stop-color="#FFFCF7" offset="91.19%"></stop>
            <stop stop-color="#FFFFFF" offset="100%"></stop>
        </linearGradient>
        <linearGradient x1="113.916614%" y1="92.2590415%" x2="-2.91176463%" y2="-10.8509628%" id="linearGradient-23">
            <stop stop-color="#88CFDA" offset="20.32%"></stop>
            <stop stop-color="#A0D3CE" offset="23.23%"></stop>
            <stop stop-color="#C2D8BE" offset="28.19%"></stop>
            <stop stop-color="#DDDCB1" offset="33.24%"></stop>
            <stop stop-color="#F0DFA7" offset="38.38%"></stop>
            <stop stop-color="#FBE0A2" offset="43.64%"></stop>
            <stop stop-color="#FFE1A0" offset="49.2%"></stop>
            <stop stop-color="#FFE9BB" offset="60.01%"></stop>
            <stop stop-color="#FFF5E0" offset="77.25%"></stop>
            <stop stop-color="#FFFCF7" offset="91.19%"></stop>
            <stop stop-color="#FFFFFF" offset="100%"></stop>
        </linearGradient>
        <linearGradient x1="93.0345835%" y1="80.4082438%" x2="2.44292871%" y2="27.4391391%" id="linearGradient-24">
            <stop stop-color="#A1BAFF" offset="0%"></stop>
            <stop stop-color="#A9C0FF" offset="6.19%"></stop>
            <stop stop-color="#E7EDFF" offset="57.84%"></stop>
            <stop stop-color="#FFFFFF" offset="82.35%"></stop>
        </linearGradient>
        <linearGradient x1="72.1108164%" y1="60.7424474%" x2="-41.7624263%" y2="27.8202877%" id="linearGradient-25">
            <stop stop-color="#5133C4" offset="0%"></stop>
            <stop stop-color="#4343CE" offset="10.04%"></stop>
            <stop stop-color="#2664E3" offset="35.29%"></stop>
            <stop stop-color="#117CF3" offset="59.36%"></stop>
            <stop stop-color="#048BFC" offset="81.53%"></stop>
            <stop stop-color="#0090FF" offset="100%"></stop>
        </linearGradient>
        <linearGradient x1="70.802731%" y1="61.1086495%" x2="38.6040991%" y2="41.7642354%" id="linearGradient-26">
            <stop stop-color="#7633FF" offset="0%"></stop>
            <stop stop-color="#4559FF" offset="17.92%"></stop>
            <stop stop-color="#1381FF" offset="38.28%"></stop>
            <stop stop-color="#0090FF" offset="48.34%"></stop>
            <stop stop-color="#00EAFF" offset="100%"></stop>
        </linearGradient>
        <linearGradient x1="-0.000329269348%" y1="49.999434%" x2="100%" y2="49.999434%" id="linearGradient-27">
            <stop stop-color="#A1BAFF" offset="0%"></stop>
            <stop stop-color="#A9C0FF" offset="6.19%"></stop>
            <stop stop-color="#E7EDFF" offset="57.84%"></stop>
            <stop stop-color="#FFFFFF" offset="82.35%"></stop>
        </linearGradient>
        <linearGradient x1="0.000920147593%" y1="50.0001664%" x2="100.000474%" y2="50.0001664%" id="linearGradient-28">
            <stop stop-color="#7633FF" offset="0%"></stop>
            <stop stop-color="#4559FF" offset="17.92%"></stop>
            <stop stop-color="#1381FF" offset="38.28%"></stop>
            <stop stop-color="#0090FF" offset="48.34%"></stop>
            <stop stop-color="#00EAFF" offset="100%"></stop>
        </linearGradient>
        <linearGradient x1="-0.817676119%" y1="28.0202489%" x2="81.9471327%" y2="59.8069801%" id="linearGradient-29">
            <stop stop-color="#1DACFF" offset="0%"></stop>
            <stop stop-color="#20A9FB" offset="11.2%"></stop>
            <stop stop-color="#28A0EF" offset="22.63%"></stop>
            <stop stop-color="#3690DA" offset="34.18%"></stop>
            <stop stop-color="#497BBE" offset="45.8%"></stop>
            <stop stop-color="#625F99" offset="57.38%"></stop>
            <stop stop-color="#655C95" offset="58.53%"></stop>
            <stop stop-color="#6F5F91" offset="63.67%"></stop>
            <stop stop-color="#896886" offset="72.3%"></stop>
            <stop stop-color="#B37774" offset="83.36%"></stop>
            <stop stop-color="#ED8C5C" offset="96.28%"></stop>
            <stop stop-color="#FF9254" offset="100%"></stop>
        </linearGradient>
        <linearGradient x1="90.994669%" y1="87.5561049%" x2="-10.7371168%" y2="7.98545091%" id="linearGradient-30">
            <stop stop-color="#1DACFF" offset="0%"></stop>
            <stop stop-color="#20A9FB" offset="11.2%"></stop>
            <stop stop-color="#28A0EF" offset="22.63%"></stop>
            <stop stop-color="#3690DA" offset="34.18%"></stop>
            <stop stop-color="#497BBE" offset="45.8%"></stop>
            <stop stop-color="#625F99" offset="57.38%"></stop>
            <stop stop-color="#655C95" offset="58.53%"></stop>
            <stop stop-color="#6F5F91" offset="63.67%"></stop>
            <stop stop-color="#896886" offset="72.3%"></stop>
            <stop stop-color="#B37774" offset="83.36%"></stop>
            <stop stop-color="#ED8C5C" offset="96.28%"></stop>
            <stop stop-color="#FF9254" offset="100%"></stop>
        </linearGradient>
        <linearGradient x1="53.7421076%" y1="73.331335%" x2="-10.0067125%" y2="-4.95509736%" id="linearGradient-31">
            <stop stop-color="#5133C4" offset="0%"></stop>
            <stop stop-color="#4343CE" offset="10.04%"></stop>
            <stop stop-color="#2664E3" offset="35.29%"></stop>
            <stop stop-color="#117CF3" offset="59.36%"></stop>
            <stop stop-color="#048BFC" offset="81.53%"></stop>
            <stop stop-color="#0090FF" offset="100%"></stop>
        </linearGradient>
        <linearGradient x1="0%" y1="50%" x2="100%" y2="50%" id="linearGradient-32">
            <stop stop-color="#7633FF" offset="0%"></stop>
            <stop stop-color="#4E53FF" offset="21.64%"></stop>
            <stop stop-color="#2C6DFF" offset="43.62%"></stop>
            <stop stop-color="#1480FF" offset="64.59%"></stop>
            <stop stop-color="#058CFF" offset="83.91%"></stop>
            <stop stop-color="#0090FF" offset="100%"></stop>
        </linearGradient>
        <linearGradient x1="25.7560722%" y1="57.3841354%" x2="54.5852825%" y2="46.1903094%" id="linearGradient-33">
            <stop stop-color="#5133C4" offset="0%"></stop>
            <stop stop-color="#4E36C6" offset="22.92%"></stop>
            <stop stop-color="#4541CD" offset="43.07%"></stop>
            <stop stop-color="#3553D8" offset="62.19%"></stop>
            <stop stop-color="#1F6DE9" offset="80.66%"></stop>
            <stop stop-color="#038DFD" offset="98.53%"></stop>
            <stop stop-color="#0090FF" offset="100%"></stop>
        </linearGradient>
        <linearGradient x1="106.078642%" y1="64.0671109%" x2="-8.81315987%" y2="35.6641652%" id="linearGradient-34">
            <stop stop-color="#7633FF" offset="0%"></stop>
            <stop stop-color="#4E53FF" offset="21.64%"></stop>
            <stop stop-color="#2C6DFF" offset="43.62%"></stop>
            <stop stop-color="#1480FF" offset="64.59%"></stop>
            <stop stop-color="#058CFF" offset="83.91%"></stop>
            <stop stop-color="#0090FF" offset="100%"></stop>
        </linearGradient>
        <linearGradient x1="114.592251%" y1="67.2563988%" x2="-13.1440459%" y2="34.7803806%" id="linearGradient-35">
            <stop stop-color="#7633FF" offset="0%"></stop>
            <stop stop-color="#4E53FF" offset="21.64%"></stop>
            <stop stop-color="#2C6DFF" offset="43.62%"></stop>
            <stop stop-color="#1480FF" offset="64.59%"></stop>
            <stop stop-color="#058CFF" offset="83.91%"></stop>
            <stop stop-color="#0090FF" offset="100%"></stop>
        </linearGradient>
        <linearGradient x1="122.156139%" y1="85.8006925%" x2="-21.4459917%" y2="14.9658472%" id="linearGradient-36">
            <stop stop-color="#7633FF" offset="0%"></stop>
            <stop stop-color="#4E53FF" offset="21.64%"></stop>
            <stop stop-color="#2C6DFF" offset="43.62%"></stop>
            <stop stop-color="#1480FF" offset="64.59%"></stop>
            <stop stop-color="#058CFF" offset="83.91%"></stop>
            <stop stop-color="#0090FF" offset="100%"></stop>
        </linearGradient>
        <linearGradient x1="56.7877416%" y1="59.5355157%" x2="42.4225446%" y2="36.2065046%" id="linearGradient-37">
            <stop stop-color="#7633FF" offset="0%"></stop>
            <stop stop-color="#4E53FF" offset="21.64%"></stop>
            <stop stop-color="#2C6DFF" offset="43.62%"></stop>
            <stop stop-color="#1480FF" offset="64.59%"></stop>
            <stop stop-color="#058CFF" offset="83.91%"></stop>
            <stop stop-color="#0090FF" offset="100%"></stop>
        </linearGradient>
        <linearGradient x1="55.7940986%" y1="61.7234095%" x2="44.313884%" y2="37.2128254%" id="linearGradient-38">
            <stop stop-color="#7633FF" offset="0%"></stop>
            <stop stop-color="#4E53FF" offset="21.64%"></stop>
            <stop stop-color="#2C6DFF" offset="43.62%"></stop>
            <stop stop-color="#1480FF" offset="64.59%"></stop>
            <stop stop-color="#058CFF" offset="83.91%"></stop>
            <stop stop-color="#0090FF" offset="100%"></stop>
        </linearGradient>
        <linearGradient x1="111.766435%" y1="87.1913698%" x2="-35.3270898%" y2="8.84098435%" id="linearGradient-39">
            <stop stop-color="#7633FF" offset="0%"></stop>
            <stop stop-color="#4E53FF" offset="21.64%"></stop>
            <stop stop-color="#2C6DFF" offset="43.62%"></stop>
            <stop stop-color="#1480FF" offset="64.59%"></stop>
            <stop stop-color="#058CFF" offset="83.91%"></stop>
            <stop stop-color="#0090FF" offset="100%"></stop>
        </linearGradient>
        <linearGradient x1="98.6699437%" y1="84.7968646%" x2="-5.00580996%" y2="10.673751%" id="linearGradient-40">
            <stop stop-color="#7633FF" offset="0%"></stop>
            <stop stop-color="#4E53FF" offset="21.64%"></stop>
            <stop stop-color="#2C6DFF" offset="43.62%"></stop>
            <stop stop-color="#1480FF" offset="64.59%"></stop>
            <stop stop-color="#058CFF" offset="83.91%"></stop>
            <stop stop-color="#0090FF" offset="100%"></stop>
        </linearGradient>
        <linearGradient x1="59.4343084%" y1="3.09091958%" x2="39.7161413%" y2="101.139865%" id="linearGradient-41">
            <stop stop-color="#88CFDA" offset="0%"></stop>
            <stop stop-color="#89CFD9" offset="0.83%"></stop>
            <stop stop-color="#C8D9BB" offset="47.84%"></stop>
            <stop stop-color="#F0DFA7" offset="82.18%"></stop>
            <stop stop-color="#FFE1A0" offset="100%"></stop>
        </linearGradient>
    </defs>
    <g id="Page-1" stroke="none" stroke-width="1" fill="none" fill-rule="evenodd">
        <g id="mobile-phone-addicted" transform="translate(-74.000000, -17.000000)">
            <g id="Group-2" transform="translate(74.000000, 17.000000)">
                <g id="Layer_8">
                    <g id="Group">
                        <path d="M75.0884574,838.051964 C162.331826,898.174643 470.178823,922.469554 829.198159,903.266696 C1188.21401,884.060357 1423.72384,823.113571 1384.65879,688.679643 C1345.59607,554.244554 1219.10416,543.572946 1241.42804,387.801607 C1263.75076,232.026786 1281.14113,79.1270536 1150.92586,21.5115179 C1020.71408,-36.1040179 851.844898,35.985625 747.672221,100.001339 C643.501866,164.018214 458.86126,289.730536 401.195694,261.990625 C343.530128,234.249554 283.657957,155.474196 178.459788,258.650089 C-65.2249314,497.644643 -14.7203804,776.160357 75.0884574,838.051964 Z" id="Path" fill="url(#linearGradient-1)" fill-rule="nonzero"></path>
                        <path d="M533.162308,366.971429 C526.462357,366.971429 520.195598,368.808839 514.82774,372.000804 C513.545586,353.331875 497.998309,338.583839 478.994792,338.583839 C474.362082,338.583839 469.93958,339.469464 465.87362,341.065446 C460.697388,323.756875 444.651883,311.136429 425.649527,311.136429 C402.460427,311.136429 383.663634,329.92375 383.663634,353.097411 C383.663634,353.690536 383.684538,354.277857 383.708927,354.864018 C383.692668,354.864018 383.679893,354.862857 383.663634,354.862857 C360.476857,354.862857 341.678902,373.649018 341.678902,396.823839 C341.678902,419.9975 360.478018,438.784821 383.663634,438.784821 C385.110702,438.784821 386.542673,438.711696 387.951416,438.568929 L529.246164,438.568929 C530.532963,438.708214 531.837183,438.784821 533.162308,438.784821 C553.005497,438.784821 569.09165,422.707768 569.09165,402.876964 C569.09165,383.047321 553.005497,366.971429 533.162308,366.971429 Z" id="Path" fill="url(#linearGradient-2)" fill-rule="nonzero" opacity="0.2"></path>
                        <g>
                            <g id="Clipped">
                                <mask id="mask-4" fill="white">
                                    <use xlink:href="#path-3"></use>
                                </mask>
                                <g id="SVGID_3_"></g>
                                <g id="shine_4_-Clipped" mask="url(#mask-4)">
                                    <g transform="translate(-293.826923, 323.839286)">
                                        <mask id="mask-6" fill="white">
                                            <use xlink:href="#path-5"></use>
                                        </mask>
                                        <g id="SVGID_5_" stroke="none" fill="none"></g>
                                        <g id="shine_4_" opacity="0.8" stroke="none" stroke-width="1" fill="none" fill-rule="evenodd" mask="url(#mask-6)">
                                            <g transform="translate(296.149666, -351.696429)"></g>
                                        </g>
                                    </g>
                                </g>
                            </g>
                            <g id="shine_2_-Clipped">
                                <mask id="mask-8" fill="white">
                                    <use xlink:href="#path-7"></use>
                                </mask>
                                <g id="SVGID_3_"></g>
                            </g>
                            <g id="Clipped">
                                <mask id="mask-10" fill="white">
                                    <use xlink:href="#path-9"></use>
                                </mask>
                                <g id="SVGID_3_"></g>
                                <g id="Group" mask="url(#mask-10)" fill-rule="nonzero">
                                    <g transform="translate(2.322742, 359.821429)" id="Path">
                                        <path d="M442.482441,272.767857 L433.793062,272.574018 C440.159699,274.744554 442.482441,272.767857 442.482441,272.767857 Z" fill="url(#linearGradient-11)"></path>
                                        <path d="M1133.49833,249.110179 C1133.49833,249.110179 646.883779,43.66375 543.521739,8.84232143 C509.052241,-2.76946429 368.154682,72.6816071 245.203793,116.26875 C189.079367,70.890625 131.507872,27.324375 87.0319992,0.518839286 C55.375342,54.6150893 7.32012291,153.340804 0.837348662,262.927321 L433.793062,272.574018 C428.978017,270.932768 421.851843,266.921339 411.652681,257.870089 L1133.49833,249.110179 Z" fill="url(#linearGradient-12)"></path>
                                    </g>
                                </g>
                            </g>
                        </g>
                        <g id="shine_3_-Clipped">
                            <mask id="mask-14" fill="white">
                                <use xlink:href="#path-13"></use>
                            </mask>
                            <g id="SVGID_9_"></g>
                        </g>
                        <path d="M1384.65996,688.678482 C1381.48477,677.748036 1377.72192,667.648661 1373.5166,658.209732 C1329.87691,665.652232 430.868729,720.803571 377.445652,711.517857 C324.022575,702.232143 479.646321,634.910714 495.905518,627.946429 C512.164716,620.982143 5.80685619,630.267857 5.80685619,630.267857 L1.24498997,656.899286 C4.76162207,743.987679 36.2463963,811.283571 75.0884574,838.050804 C162.331826,898.173482 470.178823,922.468393 829.198159,903.265536 C1188.21401,884.059196 1423.72384,823.113571 1384.65996,688.678482 Z" id="Path" fill="url(#linearGradient-15)" fill-rule="nonzero"></path>
                    </g>
                </g>
                <g id="Layer_13" transform="translate(728.000000, 0.000000)" fill="url(#linearGradient-16)" fill-rule="nonzero">
                    <path d="M423.078311,21.4937352 C350.871623,-10.4058813 266.78875,-2.50404566 188.421974,21.7581735 L0.328925439,388.550411 L117.003311,507.613781 L524.50125,303.27368 C537.424649,179.340237 529.65364,68.5753607 423.078311,21.4937352 Z" id="Path"></path>
                </g>
                <g id="Layer_14" transform="translate(123.000000, 86.000000)" fill-rule="nonzero">
                    <g id="Group">
                        <path d="M731.187577,362.941825 C731.187577,362.941825 706.768745,425.230423 704.519184,439.357961 C702.270784,453.485499 681.385982,521.232225 681.385982,521.232225 C681.385982,521.232225 681.066607,534.717972 681.70768,537.92809 C682.349914,541.139369 684.277777,544.672124 684.277777,544.672124 C684.277777,544.672124 704.197486,549.487301 722.832727,555.266907 C741.46913,561.045352 743.075295,562.973048 743.075295,561.848462 C743.075295,560.725037 739.540105,484.630377 742.111364,444.496935 C744.681461,404.362332 747.573257,382.528654 747.573257,382.528654 L731.187577,362.941825 Z" id="Path" fill="url(#linearGradient-17)"></path>
                        <path d="M767.494127,49.5746254 C767.494127,49.5746254 758.818741,60.8123606 756.247482,73.9754704 C753.676223,87.1397408 750.465052,114.430389 750.465052,114.430389 C750.465052,114.430389 755.605248,127.916135 755.605248,131.44773 C755.605248,134.979324 754.963014,157.454794 760.10437,168.050738 C765.244566,178.645521 770.063064,184.425127 775.526118,195.984338 C780.988011,207.542389 784.200343,219.743392 789.020002,223.274986 C793.8385,226.80658 799.622091,231.622918 805.72738,229.376068 C811.832668,227.128056 814.402766,226.164789 814.402766,226.164789 C814.402766,226.164789 816.972864,257.308507 817.2934,266.619707 C817.613936,275.930907 813.439995,304.507459 806.370775,313.175707 C799.301555,321.843955 792.87573,326.981769 792.87573,326.981769 L820.506893,367.116372 C820.506893,367.116372 852.316643,335.330862 864.524898,329.871572 C876.733152,324.413442 911.111839,298.406377 918.823293,290.379921 C926.534748,282.353465 939.706934,270.795414 949.66795,269.189194 C959.627805,267.582975 967.660957,268.867718 967.660957,268.867718 C967.660957,268.867718 919.787225,247.997307 909.183975,231.944394 C898.580725,215.891482 895.047857,192.451583 894.404461,179.608789 C893.761066,166.765994 896.974559,146.217059 896.974559,146.217059 C896.974559,146.217059 908.54058,137.869127 913.039702,125.026332 C917.537664,112.183538 916.57257,102.229386 913.360239,96.1294648 C910.146745,90.0283831 903.722082,89.0662761 901.150823,90.6713352 C898.579564,92.2763944 889.583641,107.045724 889.583641,107.045724 C889.583641,107.045724 881.55165,109.293735 880.267182,112.503854 C878.982714,115.713972 878.01762,121.493577 878.01762,121.493577 C878.01762,121.493577 870.9484,117.320192 868.7,108.008992 C866.450439,98.6977915 866.450439,98.6977915 866.450439,98.6977915 C866.450439,98.6977915 855.203793,81.0398197 841.068836,74.2969465 C826.931557,67.5540732 814.558389,61.6479662 805.40452,53.7480113 C798.336461,47.6480901 798.015925,47.9666433 798.015925,47.9666433 C798.015925,47.9666433 775.205582,51.1808451 767.494127,49.5746254 Z" id="Path" fill="#FFFFFF"></path>
                        <path d="M552.226086,608.082986 C552.226086,608.082986 534.394509,628.310445 524.273225,634.090051 C514.151941,639.868496 343.544139,703.441837 298.241666,715.963155 C252.939193,728.485634 241.372011,728.967268 213.41915,730.892642 C185.466289,732.819177 145.947407,733.782445 124.260102,739.080417 C102.572798,744.378389 76.5478,747.268192 62.5707886,748.713093 C48.5949386,750.157994 29.3174636,745.824451 17.2683159,748.231459 C5.21916818,750.639628 -1.04638864,768.460079 1.36460227,778.574389 C3.77443182,788.687538 37.5108841,816.621138 53.8965636,821.437476 C70.2822432,826.253814 92.4515136,822.400744 132.935489,817.103932 C173.418302,811.805961 211.010482,806.507989 223.05963,801.211177 C235.108777,795.913206 237.03548,791.096868 243.301036,789.170332 C249.566593,787.243797 331.014186,783.391887 364.268673,783.391887 C397.521998,783.391887 436.078109,786.28169 481.380582,773.277577 C526.683055,760.274625 547.889555,732.822659 561.383439,725.598152 C574.878484,718.373645 586.444505,715.483842 586.444505,715.483842 C586.444505,715.483842 558.973609,617.717983 558.973609,613.863752 C558.973609,610.009521 552.226086,608.082986 552.226086,608.082986 Z" id="Path" fill="#FFFFFF"></path>
                        <path d="M213.41915,730.892642 C241.372011,728.967268 252.938032,728.485634 298.241666,715.963155 C343.544139,703.441837 514.151941,639.869656 524.273225,634.090051 C534.393348,628.310445 552.226086,608.082986 552.226086,608.082986 C552.226086,608.082986 539.694973,597.968676 538.731041,584.48409 C537.767109,570.998344 553.188857,542.101476 554.634755,533.433228 C556.080652,524.76498 545.477402,523.318918 545.477402,523.318918 C545.477402,523.318918 541.14087,527.653623 533.911382,531.506693 C526.681893,535.359763 497.7651,550.290411 449.088866,571.961611 C400.412632,593.632811 348.362636,626.38391 301.614266,651.909341 C254.865895,677.434772 214.865048,698.625499 197.514275,705.368372 C180.164664,712.111245 150.283939,734.264079 150.283939,734.264079 L155.48917,734.593679 C174.611023,732.901577 196.20658,732.079899 213.41915,730.892642 Z" id="Path" fill="url(#linearGradient-18)"></path>
                        <path d="M545.478564,523.318918 C545.478564,523.318918 590.300232,525.727087 637.048602,534.396496 C683.796973,543.065904 743.076457,561.847301 743.076457,561.847301 C743.076457,561.847301 741.630559,479.974197 741.148593,457.337408 C740.666627,434.70178 752.714614,334.046118 758.498205,327.784879 C764.280634,321.523639 792.876891,326.98293 792.876891,326.98293 C792.876891,326.98293 918.021952,277.698445 920.431782,276.253544 C922.84045,274.808642 943.083018,262.286163 952.24037,262.767797 C961.397723,263.249431 967.662118,268.868879 967.662118,268.868879 C967.662118,268.868879 985.975661,268.065769 1001.88054,308.521848 C1017.78309,348.976766 1025.01374,417.365285 1019.22899,437.11227 C1013.44656,456.859256 1008.14493,472.750851 1006.21707,486.236597 C1004.2892,499.721183 1005.25314,596.524935 1000.43464,630.238141 C995.61498,663.951346 987.247355,732.985138 967.180152,762.2 C958.113386,775.399087 923.322416,790.132439 912.720327,792.060135 C902.117077,793.98667 801.390848,809.397792 729.581411,807.95289 C657.771975,806.507989 616.324068,799.283482 616.324068,799.283482 C616.324068,799.283482 593.672832,740.526479 584.51548,707.294907 C575.359289,674.064496 557.045745,610.009521 557.045745,610.009521 C557.045745,610.009521 546.924461,605.675977 541.622836,595.561668 C536.322373,585.447358 539.213007,574.370941 546.442495,555.588383 C553.670823,536.804665 558.008516,526.208721 545.478564,523.318918 Z" id="Path" fill="url(#linearGradient-19)"></path>
                        <path d="M797.856818,337.723944 C797.856818,337.723944 791.664427,378.73013 792.437895,401.941397 C793.211364,425.152665 791.663266,442.948744 791.663266,442.948744 L770.75872,415.868158 C770.75872,415.868158 783.146986,325.344214 785.469714,325.344214 C787.792441,325.344214 797.856818,337.723944 797.856818,337.723944 Z" id="Path" fill="url(#linearGradient-20)"></path>
                        <path d="M1019.22782,437.11111 C1020.94897,431.235177 1021.51803,421.048913 1021.04768,408.575177 C1007.25533,403.799459 992.373614,400.03111 989.868552,405.03662 L810.243923,577.574096 C810.243923,577.574096 874.506818,635.601104 889.99128,634.828169 C905.475741,634.055234 958.89963,557.458051 971.286734,552.041701 C983.673839,546.625352 1004.57955,521.092958 1004.57955,521.092958 C1004.57955,521.092958 1004.71775,520.780766 1004.96512,520.221375 C1005.27636,503.52551 1005.59574,490.570141 1006.21591,486.235437 C1008.14377,472.74969 1013.4454,456.856935 1019.22782,437.11111 Z" id="Path" fill="url(#linearGradient-21)"></path>
                        <path d="M777.292552,422.180462 C777.292552,422.180462 783.236411,352.024406 790.947866,335.971493 C798.65932,319.91742 807.656405,313.497183 809.583107,308.359369 C811.51097,303.221555 819.704391,280.105454 817.776527,256.506558 C815.849825,232.907662 814.403927,226.164789 814.403927,226.164789 C814.403927,226.164789 802.836745,230.499493 798.500214,229.536225 C794.16252,228.572958 784.042398,221.348451 782.114534,213.161837 C780.18667,204.975223 771.99325,190.044575 767.174752,181.8568 C762.355093,173.669025 758.981332,166.926152 757.535434,162.109814 C756.089536,157.294637 755.60757,153.922039 755.60757,153.922039 C755.60757,153.922039 736.330095,250.725792 731.992402,297.924744 C727.65587,345.121375 731.510436,368.72027 731.510436,368.72027 C731.510436,368.72027 751.753005,383.168124 756.089536,393.282434 C760.426068,403.396744 777.292552,422.180462 777.292552,422.180462 Z" id="Path" fill="url(#linearGradient-22)"></path>
                        <path d="M751.776232,103.857656 C752.949209,94.7402704 754.712159,81.8394479 756.248643,73.9754704 C758.819902,60.8112 767.495289,49.5746254 767.495289,49.5746254 C775.206743,51.1808451 798.017086,47.9695662 798.017086,47.9695662 C798.017086,47.9695662 798.337623,47.6480901 805.405682,53.7480113 C814.55955,61.6479662 826.932718,67.5540732 841.069998,74.2969465 C855.206116,81.0398197 866.4516,98.6977915 866.4516,98.6977915 C866.4516,98.6977915 866.4516,98.6977915 868.701161,108.008992 C870.950723,117.320192 878.018782,121.493577 878.018782,121.493577 C878.018782,121.493577 878.982714,115.715132 880.268343,112.503854 C881.553973,109.292575 889.584802,107.045724 889.584802,107.045724 C889.584802,107.045724 898.580725,92.2763944 901.151984,90.6713352 C903.723243,89.0662761 910.147907,90.0283831 913.3614,96.1294648 C916.573732,102.229386 917.538825,112.183538 913.040864,125.026332 C908.541741,137.869127 896.97572,146.217059 896.97572,146.217059 C896.97572,146.217059 893.762227,166.765994 894.405623,179.608789 C895.049018,192.451583 898.581886,215.890321 909.185136,231.944394 C909.185136,231.944394 910.792464,231.944394 914.165064,225.201521 C917.538825,218.458648 918.502757,208.345499 918.502757,208.345499 C918.502757,208.345499 920.43062,210.753668 928.142075,189.081307 C935.85353,167.408946 934.889598,103.835606 926.696177,71.568462 C918.502757,39.3013183 889.585964,7.51464789 865.489991,1.25340845 C841.391695,-5.00783099 781.631407,15.2207887 768.137523,27.742107 C754.642477,40.2645859 761.388839,49.4144676 761.388839,49.4144676 C761.388839,49.4144676 756.570341,53.7491718 752.713452,67.7165521 C748.858886,81.6827718 751.750682,102.391865 751.750682,103.837927 L751.776232,103.857656 Z" id="Path" fill="url(#linearGradient-23)"></path>
                        <path d="M895.411364,297.104225 C920.43062,276.252383 939.708095,270.795414 949.66795,269.189194 C959.627805,267.582975 967.660957,268.867718 967.660957,268.867718 C967.660957,268.867718 919.787225,247.997307 909.183975,231.944394 C898.580725,215.891482 895.047857,192.451583 894.404461,179.608789 C893.761066,166.765994 896.974559,146.217059 896.974559,146.217059 C896.974559,146.217059 891.512666,148.143594 887.6581,149.106862 C883.802373,150.07013 883.802373,174.150659 874.163055,186.190344 C864.524898,198.231189 814.402766,226.163628 814.402766,226.163628 C814.402766,226.163628 816.972864,257.307346 817.2934,266.618546 C817.613936,275.929746 813.439995,304.506299 806.370775,313.174546 C799.301555,321.842794 794.759461,330.371775 794.759461,330.371775 L817.6,360.935211 C817.6,360.935211 886.860243,304.231245 895.411364,297.104225 Z" id="Path" fill="url(#linearGradient-24)"></path>
                        <path d="M630.30108,605.674817 C679.45928,609.527887 811.51097,624.940169 811.51097,624.940169 C811.51097,624.940169 785.485973,602.785014 763.316702,589.300428 C741.147432,575.815842 743.075295,561.848462 743.075295,561.848462 C743.075295,561.848462 683.795811,543.065904 637.047441,534.397656 C590.29907,525.729408 545.477402,523.320079 545.477402,523.320079 C558.008516,526.209882 553.670823,536.805825 546.441334,555.588383 C539.211845,574.372101 536.321211,585.448518 541.621675,595.561668 C544.8282,601.678997 549.794191,605.678299 553.221375,607.88569 C558.644943,606.858592 586.386436,602.232586 630.30108,605.674817 Z" id="Path" fill="url(#linearGradient-25)"></path>
                        <path d="M967.660957,268.867718 C967.660957,268.867718 966.378811,267.725724 964.144348,266.428214 C954.254175,271.24107 946.497427,278.460935 942.599891,286.52569 C942.599891,286.52569 925.892514,325.055234 898.260189,387.343831 C870.629025,449.631268 861.633102,499.718862 861.633102,499.718862 C861.633102,499.718862 853.921648,493.940417 850.06592,494.582208 C846.211355,495.224 841.712232,499.07591 841.712232,499.07591 C841.712232,499.07591 839.142134,513.204608 830.146211,533.110592 C821.150289,553.016575 816.008932,559.439132 816.008932,559.439132 L803.157282,546.596338 C803.157282,546.596338 797.374852,563.933994 805.728541,572.924879 C814.08223,581.915763 873.842518,618.517611 890.549895,616.591076 C907.257273,614.664541 916.896591,591.547279 953.524839,537.606614 C988.335552,486.341048 1013.26655,444.949555 1021.17195,420.020654 C1021.77121,391.106377 1014.60095,340.879515 1001.88054,308.520687 C985.973339,268.065769 967.660957,268.867718 967.660957,268.867718 Z" id="Path" fill="url(#linearGradient-26)"></path>
                        <path d="M701.950248,549.164665 C701.950248,549.164665 685.241709,532.790276 679.45928,512.242501 C673.675689,491.693566 666.929327,456.375301 661.467434,447.064101 C656.00438,437.752901 640.582632,423.946839 634.155645,413.350896 C627.730982,402.756113 625.801957,397.939775 623.553557,395.371448 C621.303995,392.803121 603.310989,371.611234 599.456423,365.511313 C595.600695,359.410231 587.567543,347.209228 595.600695,349.136924 C603.633848,351.062299 612.308073,365.189837 616.806034,368.401115 C621.305157,371.612394 626.76705,376.428732 629.016611,375.465465 C631.266173,374.502197 631.266173,371.93387 631.266173,371.93387 C631.266173,371.93387 664.038693,318.634997 667.251025,316.388146 C670.463357,314.141296 673.353991,316.388146 675.603552,321.846276 C677.854275,327.304406 681.065445,343.357318 681.065445,343.357318 C681.065445,343.357318 680.744909,341.430783 682.993309,341.752259 C685.24287,342.072575 686.5285,342.072575 686.5285,342.072575 C686.5285,342.072575 688.455202,336.614445 692.31093,334.68791 C696.165495,332.761375 698.415057,333.082851 698.415057,333.082851 C698.415057,333.082851 697.449964,351.062299 701.62855,362.942986 C705.805975,374.822513 712.552336,386.060248 709.982239,400.830738 C707.41098,415.601228 702.913018,434.221307 704.519184,439.359121 C706.126511,444.496935 719.942093,475.640654 723.476123,479.493724 C727.010152,483.345634 742.111364,494.904845 742.111364,494.904845 L742.111364,541.782321 C742.111364,541.782321 737.612241,549.487301 733.435977,552.056789 C729.258552,554.625115 722.832727,555.268068 722.832727,555.268068 L701.950248,549.164665 Z" id="Path" fill="url(#linearGradient-27)"></path>
                        <g transform="translate(605.070455, 299.311803)">
                            <path d="M15.9118432,37.9455945 C15.9118432,37.9455945 5.30859318,17.0751832 3.06019318,10.9752621 C1.76527273,7.46223673 -1.75714318,1.66522264 1.775725,0.380478981 C5.30975455,-0.904264681 50.6133886,2.62849025 50.6133886,2.62849025 C50.6133886,2.62849025 55.11135,2.9499663 58.3248432,10.9764226 C62.2734795,20.8458536 98.1665841,83.8598029 98.1665841,83.8598029 C98.1665841,83.8598029 66.3568341,102.483363 65.3940636,101.840411 C64.4301318,101.197459 36.7966455,76.7966142 36.1544114,75.5118705 C35.5121773,74.2271269 15.9118432,37.9455945 15.9118432,37.9455945 Z" id="Path" fill="#000000"></path>
                            <path d="M94.3921523,86.0544283 C96.6962977,84.7174593 98.1642614,83.8574818 98.1642614,83.8574818 C98.1642614,83.8574818 62.2723182,20.8435325 58.3225205,10.9741015 C55.1090273,2.94764518 50.6110659,2.62616912 50.6110659,2.62616912 C50.6110659,2.62616912 5.30743182,-0.905425245 1.77340227,0.378157854 C0.376281818,0.886484614 0.0917477273,2.10507616 0.327504545,3.60568461 L1.13116818,3.58827616 C1.13116818,3.58827616 48.3626659,5.83628743 50.9316023,8.72609025 C53.3286568,11.4197579 89.4772614,77.1146086 94.3921523,86.0544283 Z" id="Path" fill="url(#linearGradient-28)"></path>
                            <ellipse id="Oval" fill="#FFFFFF" opacity="0.5" transform="translate(12.878162, 13.531141) rotate(-21.598196) translate(-12.878162, -13.531141) " cx="12.8781623" cy="13.531141" rx="2.4096356" ry="3.53080893"></ellipse>
                        </g>
                        <path d="M803.157282,545.312755 C797.60248,534.769037 753.884107,463.679887 743.075295,451.07733 C731.508114,437.592744 727.653548,433.739673 727.653548,433.739673 C727.653548,433.739673 679.45928,426.515166 671.747825,420.255087 C664.035209,413.993848 645.080593,393.767549 639.617539,384.777825 C634.155645,375.786941 616.1638,341.431944 616.1638,337.580034 C616.1638,333.728124 620.661761,333.084011 620.661761,333.084011 C620.661761,333.084011 621.305157,328.267673 628.373216,331.157476 C635.441275,334.047279 650.863023,358.449285 657.288848,367.117532 C663.714673,375.78578 675.603552,389.593003 675.603552,389.593003 C675.603552,389.593003 654.076516,352.347042 648.935159,344.643223 C643.794964,336.937082 639.297002,327.625882 641.546564,324.736079 C643.796125,321.846276 651.829277,321.5248 665.643698,338.221825 C679.45928,354.91769 691.346998,377.393161 695.202725,380.603279 C699.057291,383.815718 713.19457,383.171606 714.158502,382.529814 C715.122434,381.888023 709.340005,372.254186 703.556414,369.68702 C697.772823,367.118693 685.885105,362.302355 682.029377,356.202434 C678.174811,350.102513 679.45928,341.433104 682.993309,341.75458 C686.527339,342.074896 705.16258,352.030208 718.335927,360.37698 C731.509275,368.723752 731.509275,368.723752 731.509275,368.723752 C731.509275,368.723752 750.787911,384.134873 755.606409,391.842175 C760.424907,399.547155 760.424907,400.831899 760.424907,400.831899 C760.424907,400.831899 800.266648,456.057307 815.367859,473.073487 C830.46907,490.089668 841.713393,499.079392 841.713393,499.079392 C841.713393,499.079392 835.930964,526.692676 825.969948,543.067065 C816.008932,559.441454 816.010093,559.441454 816.010093,559.441454 C816.010093,559.441454 803.546339,546.052034 803.157282,545.312755 Z" id="Path" fill="#FFFFFF"></path>
                        <path d="M270.450234,723.155166 C246.350777,728.800146 234.569905,729.434975 213.420311,730.892642 C185.46745,732.819177 145.948568,733.782445 124.261264,739.080417 C102.573959,744.378389 76.5489614,747.268192 62.57195,748.713093 C48.5961,750.157994 29.318625,745.824451 17.2694773,748.231459 C5.22032955,750.639628 -1.04522727,768.460079 1.36576364,778.574389 C3.77559318,788.687538 37.5120455,816.621138 53.897725,821.437476 C70.2834045,826.253814 92.452675,822.400744 132.93665,817.103932 C173.419464,811.805961 211.011643,806.507989 223.060791,801.211177 C235.109939,795.913206 237.036641,791.096868 243.302198,789.170332 C245.657443,788.446141 258.646134,787.449217 275.705405,786.48711 C265.746711,757.923324 269.6036,728.60169 270.450234,723.155166 Z" id="Path" fill="url(#linearGradient-29)"></path>
                        <path d="M238.844884,685.523899 C220.691609,694.933746 206.238439,701.978366 197.515436,705.369532 C180.165825,712.112406 150.2851,734.265239 150.2851,734.265239 L155.490332,734.594839 C174.609861,732.901577 196.20658,732.079899 213.41915,730.893803 C228.990714,729.821442 239.481311,729.193577 253.546586,726.686761 C245.778225,710.572338 241.06425,694.293115 238.844884,685.523899 Z" id="Path" fill="url(#linearGradient-30)"></path>
                        <path d="M816.008932,559.440293 C816.008932,559.440293 807.147727,569.448992 805.59963,566.35493 C804.051532,563.260868 803.15612,546.597499 803.15612,546.597499 L816.008932,559.440293 Z" id="Path" fill="url(#linearGradient-31)"></path>
                        <path d="M861.633102,499.720023 L894.636734,528.830434 L923.284091,473.123392 C923.284091,473.123392 888.24575,520.900304 861.633102,499.720023 Z" id="Path" fill="url(#linearGradient-32)"></path>
                        <path d="M967.178991,762.198839 C973.458484,753.055921 978.591711,740.01467 982.830689,725.375324 C945.352323,772.270208 894.34407,792.763437 799.113414,795.648597 C713.749702,798.234332 631.88518,766.056552 590.078411,722.537746 C597.176666,742.255718 616.32523,799.283482 616.32523,799.283482 C616.32523,799.283482 657.771975,806.507989 729.582573,807.95289 C801.39317,809.397792 902.118239,793.98667 912.721489,792.060135 C923.321255,790.131279 958.112225,775.397927 967.178991,762.198839 Z" id="Path" fill="url(#linearGradient-33)"></path>
                        <path d="M524.273225,634.090051 C534.393348,628.310445 552.226086,608.082986 552.226086,608.082986 C552.226086,608.082986 539.694973,597.968676 538.731041,584.48409 C538.39773,579.820946 540.0248,573.315989 542.354495,566.440811 C534.87183,579.838355 517.968182,606.974648 517.968182,606.974648 C517.968182,606.974648 517.968182,606.974648 449.447727,638.309859 C380.927273,669.64507 250.854545,720.709859 246.209091,721.870423 L251.041525,727.11849 C262.731811,725.159459 276.653077,721.929611 298.241666,715.963155 C343.544139,703.441837 514.151941,639.869656 524.273225,634.090051 Z" id="Path" fill="url(#linearGradient-34)" opacity="0.2"></path>
                        <path d="M553.970455,702.140845 C541.195455,710.264789 513.322727,739.278873 448.286364,759.008451 C383.25,778.738028 267.113636,771.774648 267.113636,771.774648 L273.605659,786.604327 C302.024227,784.964451 343.00062,783.388406 364.267511,783.388406 C397.520836,783.388406 436.076948,786.278208 481.37942,773.274096 C526.681893,760.271144 547.888393,732.819177 561.382277,725.59467 C574.877323,718.370163 586.443343,715.480361 586.443343,715.480361 C586.443343,715.480361 559.96193,621.236811 559.002643,614.170141 C559.50203,619.498287 566.2902,694.307042 553.970455,702.140845 Z" id="Path" fill="url(#linearGradient-35)" opacity="0.2"></path>
                        <path d="M909.183975,231.944394 C898.580725,215.890321 895.047857,192.451583 894.404461,179.608789 C893.761066,166.765994 896.974559,146.217059 896.974559,146.217059 C896.974559,146.217059 891.512666,148.143594 887.6581,149.106862 C883.802373,150.07013 883.802373,174.150659 874.163055,186.190344 C864.524898,198.231189 814.402766,226.163628 814.402766,226.163628 C814.402766,226.163628 814.430639,226.511797 814.480577,227.118772 L875.668182,203.098592 C875.668182,203.098592 888.443182,241.397183 898.895455,253.002817 C908.050484,263.168192 913.638966,275.115031 883.669977,306.779842 C889.379241,302.088845 893.663511,298.560732 895.411364,297.104225 C920.43062,276.252383 939.708095,270.795414 949.66795,269.189194 C959.627805,267.582975 967.660957,268.867718 967.660957,268.867718 C967.660957,268.867718 919.787225,247.998468 909.183975,231.944394 Z" id="Path" fill="url(#linearGradient-36)" opacity="0.2"></path>
                        <path d="M761.239023,402.077183 C767.812341,411.623977 777.292552,422.180462 777.292552,422.180462 C777.292552,422.180462 783.236411,352.024406 790.947866,335.971493 C798.65932,319.91742 807.656405,313.497183 809.583107,308.359369 C811.51097,303.221555 819.704391,280.105454 817.776527,256.506558 C815.849825,232.907662 814.403927,226.164789 814.403927,226.164789 C814.403927,226.164789 802.836745,230.499493 798.500214,229.536225 C798.475825,229.530423 798.444468,229.518817 798.418918,229.513014 C801.184125,235.358772 803.307098,240.945724 803.665959,244.878873 C804.827323,257.64507 786.245505,306.388732 775.793232,326.11831 C767.388443,341.97973 762.739505,385.583256 761.239023,402.077183 Z" id="Path" fill="url(#linearGradient-37)" opacity="0.2"></path>
                        <path d="M926.684564,71.5243606 C931.206914,108.393138 933.109227,172.945994 898.040691,204.485465 C900.329739,213.983515 903.867252,223.892406 909.185136,231.944394 C909.185136,231.944394 910.792464,231.944394 914.165064,225.201521 C917.538825,218.458648 918.502757,208.345499 918.502757,208.345499 C918.502757,208.345499 920.43062,210.753668 928.142075,189.081307 C935.85353,167.408946 934.889598,103.835606 926.696177,71.568462 C926.692693,71.5533746 926.688048,71.5394479 926.684564,71.5243606 Z" id="Path" fill="url(#linearGradient-38)" opacity="0.2"></path>
                        <path d="M838.813468,510.657172 C831.66063,526.394411 814.890539,535.019718 814.890539,535.019718 C814.890539,535.019718 807.922357,527.282242 783.920455,497.107594 C761.7477,469.232023 732.545211,438.804372 728.219132,434.323437 C729.63948,435.810118 733.952784,440.440766 743.075295,451.07733 C753.885268,463.679887 797.60248,534.769037 803.157282,545.312755 C803.546339,546.052034 816.00777,559.440293 816.00777,559.440293 C816.00777,559.440293 816.00777,559.440293 825.967625,543.065904 C831.779089,533.513307 836.163236,520.145938 838.813468,510.657172 Z" id="Path" fill="url(#linearGradient-39)" opacity="0.2"></path>
                        <path d="M620.661761,333.082851 C620.661761,333.082851 641.072727,367.898592 646.879545,375.442254 C652.686364,382.985915 658.493182,390.529577 658.493182,390.529577 C658.493182,390.529577 648.040909,378.923944 638.75,367.31831 C629.459091,355.712676 620.661761,333.082851 620.661761,333.082851 Z" id="Path" fill="url(#linearGradient-40)" opacity="0.2"></path>
                    </g>
                    <path d="M779.950914,391.79227 L989.868552,285.88622 C989.868552,285.88622 980.592741,274.492969 967.660957,268.868879 C961.297845,266.102096 956.880018,268.41858 949.66795,269.190355 C932.446089,271.03449 908.501093,287.898637 883.669977,306.781003 C850.369036,332.101014 817.6,360.935211 817.6,360.935211 L794.759461,330.374096 L731.508114,368.721431 C731.508114,368.721431 751.290782,386.380563 755.605248,391.839854 C759.919714,397.299144 761.239023,402.077183 761.239023,402.077183 L779.950914,391.79227" id="Path" fill="#FFFFFF" opacity="0.3"></path>
                </g>
                <ellipse id="Oval" fill="#FFFFFF" fill-rule="nonzero" cx="835.349246" cy="101.352941" rx="2.34924613" ry="2.352941"></ellipse>
                <ellipse id="Oval" fill="#FFFFFF" fill-rule="nonzero" cx="777.849602" cy="178.852941" rx="2.84960188" ry="2.852941"></ellipse>
                <ellipse id="Oval" fill="#FFFFFF" fill-rule="nonzero" cx="700.849602" cy="178.852941" rx="2.84960188" ry="2.852941"></ellipse>
                <ellipse id="Oval" fill="#FFFFFF" fill-rule="nonzero" cx="663.349017" cy="350.352941" rx="3.34901668" ry="3.352941"></ellipse>
                <ellipse id="Oval" fill="#FFFFFF" fill-rule="nonzero" cx="519.883394" cy="297.890288" rx="5.88339352" ry="5.89028758"></ellipse>
                <ellipse id="Oval" fill="#FFFFFF" fill-rule="nonzero" cx="605.555505" cy="257.890287" rx="3.55550525" ry="3.8902875"></ellipse>
                <ellipse id="Oval" fill="#FFFFFF" fill-rule="nonzero" cx="694.555505" cy="268.890287" rx="3.55550525" ry="3.8902875"></ellipse>
                <path d="M227.788646,359.959092 C254.285766,386.583511 297.334405,386.694404 323.959697,360.205361 C350.583549,333.720639 350.693,290.665323 324.208841,264.039464 C297.717482,237.416485 254.665963,237.305592 228.04067,263.796075 C201.418258,290.277917 201.305928,333.334673 227.788646,359.959092 Z" id="moon" fill="url(#linearGradient-41)" fill-rule="nonzero"></path>
            </g>
        </g>
    </g>
</svg>