<?xml version="1.0" encoding="UTF-8"?><svg id="uuid-af2f7b8c-9588-497f-85b2-9b81253f0590" xmlns="http://www.w3.org/2000/svg" viewBox="0 0 66.19 47.89"><defs><style>.uuid-5c950c21-0f0e-4178-ad9b-1a1d68dfb688{fill:#4d80c2;}.uuid-cfece93f-2ff9-422f-8a50-f619a60251f9{fill:#404672;}</style></defs><path class="uuid-cfece93f-2ff9-422f-8a50-f619a60251f9" d="M65.69,47.89H.5c-.28,0-.5-.22-.5-.5V1.66C0,.75,.75,0,1.66,0h62.86c.92,0,1.66,.75,1.66,1.66V47.39c0,.28-.22,.5-.5,.5ZM1,46.89H65.19V1.66c0-.37-.3-.66-.66-.66H1.66c-.37,0-.66,.3-.66,.66V46.89Z"/><path class="uuid-cfece93f-2ff9-422f-8a50-f619a60251f9" d="M65.69,7.01H.5c-.28,0-.5-.22-.5-.5s.22-.5,.5-.5H65.69c.28,0,.5,.22,.5,.5s-.22,.5-.5,.5Z"/><g><path class="uuid-cfece93f-2ff9-422f-8a50-f619a60251f9" d="M3.97,4.57c-.28,0-.5-.22-.5-.5v-1.35c0-.28,.22-.5,.5-.5s.5,.22,.5,.5v1.35c0,.28-.22,.5-.5,.5Z"/><path class="uuid-cfece93f-2ff9-422f-8a50-f619a60251f9" d="M6.19,4.57c-.28,0-.5-.22-.5-.5v-1.35c0-.28,.22-.5,.5-.5s.5,.22,.5,.5v1.35c0,.28-.22,.5-.5,.5Z"/><path class="uuid-cfece93f-2ff9-422f-8a50-f619a60251f9" d="M8.41,4.57c-.28,0-.5-.22-.5-.5v-1.35c0-.28,.22-.5,.5-.5s.5,.22,.5,.5v1.35c0,.28-.22,.5-.5,.5Z"/></g><g><path class="uuid-5c950c21-0f0e-4178-ad9b-1a1d68dfb688" d="M16.59,23.96s-.1,0-.15-.02c-.26-.08-.41-.36-.33-.63l3.07-9.71c.08-.26,.36-.41,.63-.33,.26,.08,.41,.36,.33,.63l-3.07,9.71c-.07,.21-.26,.35-.48,.35Z"/><g><path class="uuid-5c950c21-0f0e-4178-ad9b-1a1d68dfb688" d="M12.24,22.05c-.13,0-.26-.05-.35-.15l-2.95-2.95c-.09-.09-.15-.22-.15-.35s.05-.26,.15-.35l2.95-2.95c.2-.2,.51-.2,.71,0,.2,.2,.2,.51,0,.71l-2.59,2.59,2.59,2.59c.2,.2,.2,.51,0,.71-.1,.1-.23,.15-.35,.15Z"/><path class="uuid-5c950c21-0f0e-4178-ad9b-1a1d68dfb688" d="M24.02,22.05c-.13,0-.26-.05-.35-.15-.2-.2-.2-.51,0-.71l2.59-2.59-2.59-2.59c-.2-.2-.2-.51,0-.71,.2-.2,.51-.2,.71,0l2.95,2.95c.2,.2,.2,.51,0,.71l-2.95,2.95c-.1,.1-.23,.15-.35,.15Z"/></g></g><path class="uuid-5c950c21-0f0e-4178-ad9b-1a1d68dfb688" d="M31.29,27.85H4.97c-.28,0-.5-.22-.5-.5V9.85c0-.28,.22-.5,.5-.5H31.29c.28,0,.5,.22,.5,.5V27.35c0,.28-.22,.5-.5,.5Zm-25.82-1H30.79V10.35H5.47V26.85Z"/><g><path class="uuid-cfece93f-2ff9-422f-8a50-f619a60251f9" d="M52.18,13.26h-16.8c-.28,0-.5-.22-.5-.5s.22-.5,.5-.5h16.8c.28,0,.5,.22,.5,.5s-.22,.5-.5,.5Z"/><path class="uuid-cfece93f-2ff9-422f-8a50-f619a60251f9" d="M61.2,17.16h-25.82c-.28,0-.5-.22-.5-.5s.22-.5,.5-.5h25.82c.28,0,.5,.22,.5,.5s-.22,.5-.5,.5Z"/><path class="uuid-cfece93f-2ff9-422f-8a50-f619a60251f9" d="M57.66,21.05h-22.28c-.28,0-.5-.22-.5-.5s.22-.5,.5-.5h22.28c.28,0,.5,.22,.5,.5s-.22,.5-.5,.5Z"/><path class="uuid-cfece93f-2ff9-422f-8a50-f619a60251f9" d="M45,24.94h-9.62c-.28,0-.5-.22-.5-.5s.22-.5,.5-.5h9.62c.28,0,.5,.22,.5,.5s-.22,.5-.5,.5Z"/></g><path class="uuid-cfece93f-2ff9-422f-8a50-f619a60251f9" d="M4.97,43.44c-.13,0-.26-.05-.35-.15-.2-.2-.2-.51,0-.71l4.25-4.25-4.2-4.2c-.2-.2-.2-.51,0-.71,.2-.2,.51-.2,.71,0l4.56,4.56c.2,.2,.2,.51,0,.71l-4.6,4.6c-.1,.1-.23,.15-.35,.15Z"/><path class="uuid-cfece93f-2ff9-422f-8a50-f619a60251f9" d="M35.03,34.28H14.44c-.28,0-.5-.22-.5-.5s.22-.5,.5-.5h20.59c.28,0,.5,.22,.5,.5s-.22,.5-.5,.5Z"/><path class="uuid-cfece93f-2ff9-422f-8a50-f619a60251f9" d="M29.1,38.86H14.44c-.28,0-.5-.22-.5-.5s.22-.5,.5-.5h14.66c.28,0,.5,.22,.5,.5s-.22,.5-.5,.5Z"/><path class="uuid-cfece93f-2ff9-422f-8a50-f619a60251f9" d="M40.41,43.44H14.44c-.28,0-.5-.22-.5-.5s.22-.5,.5-.5h25.97c.28,0,.5,.22,.5,.5s-.22,.5-.5,.5Z"/></svg>