<?xml version="1.0" encoding="UTF-8"?><svg id="uuid-82edc12a-943f-45d3-9ddc-ee9667bd0ab1" xmlns="http://www.w3.org/2000/svg" viewBox="0 0 66.33 53.02"><defs><style>.uuid-adc3cc8d-1349-43e1-9c9f-17d9011e8c8e{fill:#378eff;}.uuid-055ce07b-2102-457e-b961-d832f7989be8{fill:#8ab0e3;}</style></defs><g><g><path class="uuid-055ce07b-2102-457e-b961-d832f7989be8" d="M65.83,47.99h-27.12c-.28,0-.5-.22-.5-.5s.22-.5,.5-.5h26.62V1.66c0-.37-.3-.66-.67-.66H1.66c-.37,0-.66,.3-.66,.66V46.99H27.62c.28,0,.5,.22,.5,.5s-.22,.5-.5,.5H.5c-.28,0-.5-.22-.5-.5V1.66C0,.75,.75,0,1.66,0h63c.92,0,1.67,.75,1.67,1.66V47.49c0,.28-.22,.5-.5,.5Z"/><path class="uuid-055ce07b-2102-457e-b961-d832f7989be8" d="M65.83,7.03h-14.08c-.28,0-.5-.22-.5-.5s.22-.5,.5-.5h14.08c.28,0,.5,.22,.5,.5s-.22,.5-.5,.5Z"/><path class="uuid-055ce07b-2102-457e-b961-d832f7989be8" d="M44.7,7.03H26.77c-.28,0-.5-.22-.5-.5s.22-.5,.5-.5h17.93c.28,0,.5,.22,.5,.5s-.22,.5-.5,.5Z"/><path class="uuid-055ce07b-2102-457e-b961-d832f7989be8" d="M19.52,7.03H.5c-.28,0-.5-.22-.5-.5s.22-.5,.5-.5H19.52c.28,0,.5,.22,.5,.5s-.22,.5-.5,.5Z"/><g><path class="uuid-adc3cc8d-1349-43e1-9c9f-17d9011e8c8e" d="M3.98,4.58c-.28,0-.5-.22-.5-.5v-1.35c0-.28,.22-.5,.5-.5s.5,.22,.5,.5v1.35c0,.28-.22,.5-.5,.5Z"/><path class="uuid-adc3cc8d-1349-43e1-9c9f-17d9011e8c8e" d="M6.2,4.58c-.28,0-.5-.22-.5-.5v-1.35c0-.28,.22-.5,.5-.5s.5,.22,.5,.5v1.35c0,.28-.22,.5-.5,.5Z"/><path class="uuid-adc3cc8d-1349-43e1-9c9f-17d9011e8c8e" d="M8.43,4.58c-.28,0-.5-.22-.5-.5v-1.35c0-.28,.22-.5,.5-.5s.5,.22,.5,.5v1.35c0,.28-.22,.5-.5,.5Z"/></g></g><path class="uuid-adc3cc8d-1349-43e1-9c9f-17d9011e8c8e" d="M33.16,33.71c-3.8,0-6.9-3.09-6.9-6.9,0-.72,.11-1.43,.33-2.1,.08-.26,.37-.41,.63-.32,.26,.08,.41,.37,.32,.63-.19,.58-.28,1.19-.28,1.8,0,3.25,2.65,5.9,5.9,5.9s5.9-2.65,5.9-5.9-2.65-5.9-5.9-5.9c-1.05,0-2.08,.28-2.98,.81-.24,.14-.54,.06-.68-.18-.14-.24-.06-.54,.18-.68,1.05-.62,2.26-.95,3.49-.95,3.8,0,6.9,3.09,6.9,6.9s-3.09,6.9-6.9,6.9Z"/><path class="uuid-adc3cc8d-1349-43e1-9c9f-17d9011e8c8e" d="M33.16,39.1c-1.28,0-2.54-.2-3.75-.58-.26-.08-.41-.37-.32-.63,.08-.26,.37-.41,.63-.32,1.11,.35,2.27,.53,3.44,.53,6.22,0,11.28-5.06,11.28-11.28s-5.06-11.28-11.28-11.28-11.28,5.06-11.28,11.28c0,2.01,.53,3.98,1.54,5.7,.14,.24,.06,.54-.18,.68-.24,.14-.54,.06-.68-.18-1.1-1.88-1.68-4.02-1.68-6.21,0-6.77,5.51-12.28,12.28-12.28s12.28,5.51,12.28,12.28-5.51,12.28-12.28,12.28Z"/><path class="uuid-adc3cc8d-1349-43e1-9c9f-17d9011e8c8e" d="M34.2,53.02h-2.08c-.78,0-1.41-.63-1.41-1.41v-8.45c0-.78,.63-1.41,1.41-1.41h2.08c.78,0,1.41,.63,1.41,1.41v8.45c0,.78-.63,1.41-1.41,1.41Zm-2.08-10.27c-.23,0-.41,.18-.41,.41v8.45c0,.23,.18,.41,.41,.41h2.08c.23,0,.41-.18,.41-.41v-8.45c0-.23-.18-.41-.41-.41h-2.08Z"/><path class="uuid-adc3cc8d-1349-43e1-9c9f-17d9011e8c8e" d="M33.16,42.76c-.28,0-.5-.22-.5-.5v-3.66c0-.28,.22-.5,.5-.5s.5,.22,.5,.5v3.66c0,.28-.22,.5-.5,.5Z"/></g><path class="uuid-055ce07b-2102-457e-b961-d832f7989be8" d="M21.38,15.54H5.3c-.28,0-.5-.22-.5-.5s.22-.5,.5-.5H21.38c.28,0,.5,.22,.5,.5s-.22,.5-.5,.5Z"/><path class="uuid-055ce07b-2102-457e-b961-d832f7989be8" d="M61.03,15.54h-16.09c-.28,0-.5-.22-.5-.5s.22-.5,.5-.5h16.09c.28,0,.5,.22,.5,.5s-.22,.5-.5,.5Z"/><path class="uuid-055ce07b-2102-457e-b961-d832f7989be8" d="M18.99,20.68H5.3c-.28,0-.5-.22-.5-.5s.22-.5,.5-.5h13.69c.28,0,.5,.22,.5,.5s-.22,.5-.5,.5Z"/><path class="uuid-055ce07b-2102-457e-b961-d832f7989be8" d="M61.03,20.68h-13.69c-.28,0-.5-.22-.5-.5s.22-.5,.5-.5h13.69c.28,0,.5,.22,.5,.5s-.22,.5-.5,.5Z"/><path class="uuid-055ce07b-2102-457e-b961-d832f7989be8" d="M17.79,25.82H5.3c-.28,0-.5-.22-.5-.5s.22-.5,.5-.5h12.49c.28,0,.5,.22,.5,.5s-.22,.5-.5,.5Z"/><path class="uuid-055ce07b-2102-457e-b961-d832f7989be8" d="M61.03,25.82h-12.49c-.28,0-.5-.22-.5-.5s.22-.5,.5-.5h12.49c.28,0,.5,.22,.5,.5s-.22,.5-.5,.5Z"/><path class="uuid-055ce07b-2102-457e-b961-d832f7989be8" d="M17.79,30.96H5.3c-.28,0-.5-.22-.5-.5s.22-.5,.5-.5h12.49c.28,0,.5,.22,.5,.5s-.22,.5-.5,.5Z"/><path class="uuid-055ce07b-2102-457e-b961-d832f7989be8" d="M61.03,30.96h-12.49c-.28,0-.5-.22-.5-.5s.22-.5,.5-.5h12.49c.28,0,.5,.22,.5,.5s-.22,.5-.5,.5Z"/></svg>