<?xml version="1.0" encoding="UTF-8"?><svg id="uuid-291643b9-9046-439b-b459-507a846eb322" xmlns="http://www.w3.org/2000/svg" viewBox="0 0 45.55 65.45"><defs><style>.uuid-d07fa2ad-2686-488b-8550-b39982b4733c{fill:#378eff;}.uuid-58628182-87f8-4f09-8283-930fef1498c1{fill:#8ab0e3;}</style></defs><path class="uuid-58628182-87f8-4f09-8283-930fef1498c1" d="M42.33,65.45H3.22c-1.77,0-3.22-1.44-3.22-3.22v-23.79c0-.28,.22-.5,.5-.5s.5,.22,.5,.5v23.79c0,1.22,.99,2.22,2.22,2.22H42.33c1.22,0,2.22-.99,2.22-2.22V30.97c0-1.22-.99-2.22-2.22-2.22H3.22c-1.22,0-2.22,.99-2.22,2.22v2.12c0,.28-.22,.5-.5,.5s-.5-.22-.5-.5v-2.12c0-1.77,1.44-3.22,3.22-3.22H42.33c1.77,0,3.22,1.44,3.22,3.22v31.26c0,1.77-1.44,3.22-3.22,3.22Z"/><g><path class="uuid-58628182-87f8-4f09-8283-930fef1498c1" d="M39.87,28.76c-.28,0-.5-.22-.5-.5v-10.66C39.37,8.45,31.93,1,22.77,1S6.17,8.45,6.17,17.6v10.66c0,.28-.22,.5-.5,.5s-.5-.22-.5-.5v-10.66C5.17,7.9,13.07,0,22.77,0s17.6,7.9,17.6,17.6v10.66c0,.28-.22,.5-.5,.5Z"/><path class="uuid-58628182-87f8-4f09-8283-930fef1498c1" d="M33.46,28.76c-.28,0-.5-.22-.5-.5v-10.66c0-5.62-4.57-10.19-10.19-10.19s-10.19,4.57-10.19,10.19v10.66c0,.28-.22,.5-.5,.5s-.5-.22-.5-.5v-10.66c0-6.17,5.02-11.19,11.19-11.19s11.19,5.02,11.19,11.19v10.66c0,.28-.22,.5-.5,.5Z"/></g><path class="uuid-d07fa2ad-2686-488b-8550-b39982b4733c" d="M39.87,60.72H5.67c-.28,0-.5-.22-.5-.5v-11.16c0-.28,.22-.5,.5-.5H39.87c.28,0,.5,.22,.5,.5v11.16c0,.28-.22,.5-.5,.5Zm-33.7-1H39.37v-10.16H6.17v10.16Z"/><g><path class="uuid-d07fa2ad-2686-488b-8550-b39982b4733c" d="M8.95,57.66c-.28,0-.5-.22-.5-.5v-5.04c0-.28,.22-.5,.5-.5s.5,.22,.5,.5v5.04c0,.28-.22,.5-.5,.5Z"/><path class="uuid-d07fa2ad-2686-488b-8550-b39982b4733c" d="M12.02,57.66c-.28,0-.5-.22-.5-.5v-2.91c0-.28,.22-.5,.5-.5s.5,.22,.5,.5v2.91c0,.28-.22,.5-.5,.5Z"/><path class="uuid-d07fa2ad-2686-488b-8550-b39982b4733c" d="M15.09,57.66c-.28,0-.5-.22-.5-.5v-3.97c0-.28,.22-.5,.5-.5s.5,.22,.5,.5v3.97c0,.28-.22,.5-.5,.5Z"/><path class="uuid-d07fa2ad-2686-488b-8550-b39982b4733c" d="M18.16,57.66c-.28,0-.5-.22-.5-.5v-5.04c0-.28,.22-.5,.5-.5s.5,.22,.5,.5v5.04c0,.28-.22,.5-.5,.5Z"/><path class="uuid-d07fa2ad-2686-488b-8550-b39982b4733c" d="M21.24,57.66c-.28,0-.5-.22-.5-.5v-1.84c0-.28,.22-.5,.5-.5s.5,.22,.5,.5v1.84c0,.28-.22,.5-.5,.5Z"/><path class="uuid-d07fa2ad-2686-488b-8550-b39982b4733c" d="M24.31,57.66c-.28,0-.5-.22-.5-.5v-3.97c0-.28,.22-.5,.5-.5s.5,.22,.5,.5v3.97c0,.28-.22,.5-.5,.5Z"/><path class="uuid-d07fa2ad-2686-488b-8550-b39982b4733c" d="M27.38,57.66c-.28,0-.5-.22-.5-.5v-3.97c0-.28,.22-.5,.5-.5s.5,.22,.5,.5v3.97c0,.28-.22,.5-.5,.5Z"/><path class="uuid-d07fa2ad-2686-488b-8550-b39982b4733c" d="M30.45,57.66c-.28,0-.5-.22-.5-.5v-2.91c0-.28,.22-.5,.5-.5s.5,.22,.5,.5v2.91c0,.28-.22,.5-.5,.5Z"/><path class="uuid-d07fa2ad-2686-488b-8550-b39982b4733c" d="M33.53,57.66c-.28,0-.5-.22-.5-.5v-5.04c0-.28,.22-.5,.5-.5s.5,.22,.5,.5v5.04c0,.28-.22,.5-.5,.5Z"/><path class="uuid-d07fa2ad-2686-488b-8550-b39982b4733c" d="M36.6,57.66c-.28,0-.5-.22-.5-.5v-1.84c0-.28,.22-.5,.5-.5s.5,.22,.5,.5v1.84c0,.28-.22,.5-.5,.5Z"/></g><path class="uuid-58628182-87f8-4f09-8283-930fef1498c1" d="M8.88,42.77c-2.04,0-3.71-1.66-3.71-3.71s1.66-3.71,3.71-3.71,3.71,1.66,3.71,3.71-1.66,3.71-3.71,3.71Zm0-6.41c-1.49,0-2.71,1.21-2.71,2.71s1.21,2.71,2.71,2.71,2.71-1.21,2.71-2.71-1.21-2.71-2.71-2.71Z"/><path class="uuid-58628182-87f8-4f09-8283-930fef1498c1" d="M22.77,42.77c-2.04,0-3.71-1.66-3.71-3.71s1.66-3.71,3.71-3.71,3.71,1.66,3.71,3.71-1.66,3.71-3.71,3.71Zm0-6.41c-1.49,0-2.71,1.21-2.71,2.71s1.21,2.71,2.71,2.71,2.71-1.21,2.71-2.71-1.21-2.71-2.71-2.71Z"/><path class="uuid-58628182-87f8-4f09-8283-930fef1498c1" d="M36.67,42.77c-2.04,0-3.71-1.66-3.71-3.71s1.66-3.71,3.71-3.71,3.71,1.66,3.71,3.71-1.66,3.71-3.71,3.71Zm0-6.41c-1.49,0-2.71,1.21-2.71,2.71s1.21,2.71,2.71,2.71,2.71-1.21,2.71-2.71-1.21-2.71-2.71-2.71Z"/></svg>