<?xml version="1.0" encoding="UTF-8"?><svg id="uuid-d0249f38-46b8-4f85-af69-2c19d88dfb0d" xmlns="http://www.w3.org/2000/svg" viewBox="0 0 65.87 52.72"><defs><style>.uuid-0957fb84-9843-4a23-8aca-74cdaf7d7f26{fill:#378eff;}.uuid-ec6c5874-6f35-478b-9930-80483917848b{fill:#8ab0e3;}</style></defs><path class="uuid-0957fb84-9843-4a23-8aca-74cdaf7d7f26" d="M11.74,28.16c-.99,0-1.8-.81-1.8-1.8s.81-1.8,1.8-1.8,1.8,.81,1.8,1.8-.81,1.8-1.8,1.8Zm0-2.6c-.44,0-.8,.36-.8,.8s.36,.8,.8,.8,.8-.36,.8-.8-.36-.8-.8-.8Z"/><path class="uuid-0957fb84-9843-4a23-8aca-74cdaf7d7f26" d="M17.31,28.16c-.99,0-1.8-.81-1.8-1.8s.81-1.8,1.8-1.8,1.8,.81,1.8,1.8-.81,1.8-1.8,1.8Zm0-2.6c-.44,0-.8,.36-.8,.8s.36,.8,.8,.8,.8-.36,.8-.8-.36-.8-.8-.8Z"/><path class="uuid-0957fb84-9843-4a23-8aca-74cdaf7d7f26" d="M11.74,13.88c-.99,0-1.8-.81-1.8-1.8s.81-1.8,1.8-1.8,1.8,.81,1.8,1.8-.81,1.8-1.8,1.8Zm0-2.6c-.44,0-.8,.36-.8,.8s.36,.8,.8,.8,.8-.36,.8-.8-.36-.8-.8-.8Z"/><path class="uuid-0957fb84-9843-4a23-8aca-74cdaf7d7f26" d="M17.31,13.88c-.99,0-1.8-.81-1.8-1.8s.81-1.8,1.8-1.8,1.8,.81,1.8,1.8-.81,1.8-1.8,1.8Zm0-2.6c-.44,0-.8,.36-.8,.8s.36,.8,.8,.8,.8-.36,.8-.8-.36-.8-.8-.8Z"/><path class="uuid-0957fb84-9843-4a23-8aca-74cdaf7d7f26" d="M11.74,42.44c-.99,0-1.8-.81-1.8-1.8s.81-1.8,1.8-1.8,1.8,.81,1.8,1.8-.81,1.8-1.8,1.8Zm0-2.6c-.44,0-.8,.36-.8,.8s.36,.8,.8,.8,.8-.36,.8-.8-.36-.8-.8-.8Z"/><path class="uuid-0957fb84-9843-4a23-8aca-74cdaf7d7f26" d="M17.31,42.44c-.99,0-1.8-.81-1.8-1.8s.81-1.8,1.8-1.8,1.8,.81,1.8,1.8-.81,1.8-1.8,1.8Zm0-2.6c-.44,0-.8,.36-.8,.8s.36,.8,.8,.8,.8-.36,.8-.8-.36-.8-.8-.8Z"/><path class="uuid-0957fb84-9843-4a23-8aca-74cdaf7d7f26" d="M65.37,52.72H.5c-.28,0-.5-.22-.5-.5V.5C0,.22,.22,0,.5,0h15.51c.28,0,.5,.22,.5,.5V6.44c0,.28-.22,.5-.5,.5s-.5-.22-.5-.5V1H1V51.72h63.87v-10.37h-5.44c-.28,0-.5-.22-.5-.5s.22-.5,.5-.5h5.94c.28,0,.5,.22,.5,.5v11.37c0,.28-.22,.5-.5,.5Z"/><path class="uuid-ec6c5874-6f35-478b-9930-80483917848b" d="M56.86,18.23H9c-1.69,0-3.06-1.37-3.06-3.06v-6.16c0-1.69,1.37-3.06,3.06-3.06H56.86c1.69,0,3.06,1.37,3.06,3.06v6.16c0,1.69-1.37,3.06-3.06,3.06ZM9,6.94c-1.14,0-2.06,.93-2.06,2.06v6.16c0,1.14,.93,2.06,2.06,2.06H56.86c1.14,0,2.06-.93,2.06-2.06v-6.16c0-1.14-.93-2.06-2.06-2.06H9Z"/><path class="uuid-ec6c5874-6f35-478b-9930-80483917848b" d="M56.86,32.51H9c-1.69,0-3.06-1.37-3.06-3.06v-6.16c0-1.69,1.37-3.06,3.06-3.06H56.86c1.69,0,3.06,1.37,3.06,3.06v6.16c0,1.69-1.37,3.06-3.06,3.06ZM9,21.22c-1.14,0-2.06,.93-2.06,2.06v6.16c0,1.14,.93,2.06,2.06,2.06H56.86c1.14,0,2.06-.93,2.06-2.06v-6.16c0-1.14-.93-2.06-2.06-2.06H9Z"/><path class="uuid-ec6c5874-6f35-478b-9930-80483917848b" d="M56.86,46.79H9c-1.69,0-3.06-1.37-3.06-3.06v-6.16c0-1.69,1.37-3.06,3.06-3.06H56.86c1.69,0,3.06,1.37,3.06,3.06v6.16c0,1.69-1.37,3.06-3.06,3.06ZM9,35.5c-1.14,0-2.06,.93-2.06,2.06v6.16c0,1.14,.93,2.06,2.06,2.06H56.86c1.14,0,2.06-.93,2.06-2.06v-6.16c0-1.14-.93-2.06-2.06-2.06H9Z"/><path class="uuid-ec6c5874-6f35-478b-9930-80483917848b" d="M51.26,21.22c-.28,0-.5-.22-.5-.5v-2.99c0-.28,.22-.5,.5-.5s.5,.22,.5,.5v2.99c0,.28-.22,.5-.5,.5Z"/><path class="uuid-ec6c5874-6f35-478b-9930-80483917848b" d="M51.26,35.47c-.28,0-.5-.22-.5-.5v-2.99c0-.28,.22-.5,.5-.5s.5,.22,.5,.5v2.99c0,.28-.22,.5-.5,.5Z"/><path class="uuid-ec6c5874-6f35-478b-9930-80483917848b" d="M49.33,11.28H24.55c-.28,0-.5-.22-.5-.5s.22-.5,.5-.5h24.79c.28,0,.5,.22,.5,.5s-.22,.5-.5,.5Z"/><path class="uuid-ec6c5874-6f35-478b-9930-80483917848b" d="M35.38,13.88h-10.84c-.28,0-.5-.22-.5-.5s.22-.5,.5-.5h10.84c.28,0,.5,.22,.5,.5s-.22,.5-.5,.5Z"/><path class="uuid-ec6c5874-6f35-478b-9930-80483917848b" d="M45.48,13.88h-4.82c-.28,0-.5-.22-.5-.5s.22-.5,.5-.5h4.82c.28,0,.5,.22,.5,.5s-.22,.5-.5,.5Z"/><path class="uuid-ec6c5874-6f35-478b-9930-80483917848b" d="M30.78,25.56h-6.23c-.28,0-.5-.22-.5-.5s.22-.5,.5-.5h6.23c.28,0,.5,.22,.5,.5s-.22,.5-.5,.5Z"/><path class="uuid-ec6c5874-6f35-478b-9930-80483917848b" d="M43.99,25.56h-7.87c-.28,0-.5-.22-.5-.5s.22-.5,.5-.5h7.87c.28,0,.5,.22,.5,.5s-.22,.5-.5,.5Z"/><path class="uuid-ec6c5874-6f35-478b-9930-80483917848b" d="M50.82,25.56h-2.08c-.28,0-.5-.22-.5-.5s.22-.5,.5-.5h2.08c.28,0,.5,.22,.5,.5s-.22,.5-.5,.5Z"/><path class="uuid-ec6c5874-6f35-478b-9930-80483917848b" d="M39.09,28.16h-14.55c-.28,0-.5-.22-.5-.5s.22-.5,.5-.5h14.55c.28,0,.5,.22,.5,.5s-.22,.5-.5,.5Z"/><path class="uuid-ec6c5874-6f35-478b-9930-80483917848b" d="M35.38,39.84h-10.84c-.28,0-.5-.22-.5-.5s.22-.5,.5-.5h10.84c.28,0,.5,.22,.5,.5s-.22,.5-.5,.5Z"/><path class="uuid-ec6c5874-6f35-478b-9930-80483917848b" d="M43.69,39.84h-3.93c-.28,0-.5-.22-.5-.5s.22-.5,.5-.5h3.93c.28,0,.5,.22,.5,.5s-.22,.5-.5,.5Z"/><path class="uuid-ec6c5874-6f35-478b-9930-80483917848b" d="M49.78,42.44H24.55c-.28,0-.5-.22-.5-.5s.22-.5,.5-.5h25.23c.28,0,.5,.22,.5,.5s-.22,.5-.5,.5Z"/></svg>