<?xml version="1.0" encoding="UTF-8"?><svg id="uuid-83791b1c-2952-43ec-8ced-74c8a9fdf06e" xmlns="http://www.w3.org/2000/svg" viewBox="0 0 54.59 58.09"><defs><style>.uuid-2d7b07f0-6688-41c2-9e70-8360aeb0508a{fill:#378eff;}.uuid-d235c691-9f20-4bcd-b896-0d76984fbab4{fill:#8ab0e3;}</style></defs><g><path class="uuid-d235c691-9f20-4bcd-b896-0d76984fbab4" d="M47.03,58.09H22.54c-2.79,0-5.05-2.27-5.05-5.05v-2.68c0-.28,.22-.5,.5-.5s.5,.22,.5,.5v2.68c0,2.24,1.82,4.05,4.05,4.05h24.49c2.24,0,4.05-1.82,4.05-4.05V5.05c0-2.24-1.82-4.05-4.05-4.05H22.54c-2.24,0-4.05,1.82-4.05,4.05v2.68c0,.28-.22,.5-.5,.5s-.5-.22-.5-.5v-2.68c0-2.79,2.27-5.05,5.05-5.05h24.49c2.79,0,5.05,2.27,5.05,5.05V53.04c0,2.79-2.27,5.05-5.05,5.05Z"/><path class="uuid-d235c691-9f20-4bcd-b896-0d76984fbab4" d="M51.58,50.99H17.99c-.28,0-.5-.22-.5-.5s.22-.5,.5-.5H51.58c.28,0,.5,.22,.5,.5s-.22,.5-.5,.5Z"/><path class="uuid-d235c691-9f20-4bcd-b896-0d76984fbab4" d="M51.58,8.11H17.99c-.28,0-.5-.22-.5-.5s.22-.5,.5-.5H51.58c.28,0,.5,.22,.5,.5s-.22,.5-.5,.5Z"/><path class="uuid-d235c691-9f20-4bcd-b896-0d76984fbab4" d="M36.33,4.34h-3.08c-.28,0-.5-.22-.5-.5s.22-.5,.5-.5h3.08c.28,0,.5,.22,.5,.5s-.22,.5-.5,.5Z"/><path class="uuid-d235c691-9f20-4bcd-b896-0d76984fbab4" d="M36.33,54.58h-3.08c-.28,0-.5-.22-.5-.5s.22-.5,.5-.5h3.08c.28,0,.5,.22,.5,.5s-.22,.5-.5,.5Z"/><g><path class="uuid-d235c691-9f20-4bcd-b896-0d76984fbab4" d="M54.09,14.39c-.28,0-.5-.22-.5-.5v-2.79c0-.28,.22-.5,.5-.5s.5,.22,.5,.5v2.79c0,.28-.22,.5-.5,.5Z"/><path class="uuid-d235c691-9f20-4bcd-b896-0d76984fbab4" d="M54.09,20.45c-.28,0-.5-.22-.5-.5v-2.79c0-.28,.22-.5,.5-.5s.5,.22,.5,.5v2.79c0,.28-.22,.5-.5,.5Z"/></g></g><g><path class="uuid-2d7b07f0-6688-41c2-9e70-8360aeb0508a" d="M19.91,47.04h-3.84c-.28,0-.5-.22-.5-.5v-2.48c-1.04-.17-2.04-.43-3-.79l-1.23,2.14c-.14,.24-.44,.32-.68,.18l-3.32-1.92c-.24-.14-.32-.44-.18-.68l1.24-2.15c-.8-.65-1.54-1.39-2.19-2.19l-2.15,1.24c-.12,.07-.25,.08-.38,.05-.13-.03-.24-.12-.3-.23l-1.92-3.32c-.14-.24-.06-.54,.18-.68l2.14-1.23c-.36-.95-.63-1.96-.79-3H.5c-.28,0-.5-.22-.5-.5v-3.84c0-.28,.22-.5,.5-.5H2.98c.17-1.04,.43-2.04,.79-3l-2.14-1.23c-.24-.14-.32-.44-.18-.68l1.92-3.32c.07-.11,.17-.2,.3-.23,.13-.03,.26-.02,.38,.05l2.15,1.24c.65-.8,1.39-1.53,2.19-2.19l-1.24-2.15c-.14-.24-.06-.55,.18-.68l3.32-1.92c.24-.14,.54-.06,.68,.18l1.23,2.14c.95-.36,1.96-.63,3-.79v-2.48c0-.28,.22-.5,.5-.5h3.84c.28,0,.5,.22,.5,.5v2.48c1.04,.17,2.04,.43,3,.79l1.23-2.14c.14-.24,.44-.32,.68-.18l3.33,1.92c.12,.07,.2,.18,.23,.3,.03,.13,.02,.26-.05,.38l-1.24,2.15c.8,.65,1.54,1.39,2.19,2.19l2.15-1.24c.12-.07,.25-.08,.38-.05,.13,.03,.24,.12,.3,.23l1.92,3.32c.14,.24,.06,.54-.18,.68l-2.14,1.23c.36,.95,.63,1.96,.79,3h2.48c.28,0,.5,.22,.5,.5v3.84c0,.28-.22,.5-.5,.5h-2.48c-.16,1.04-.43,2.05-.79,3l2.14,1.23c.24,.14,.32,.44,.18,.68l-1.92,3.32c-.07,.11-.17,.2-.3,.23-.13,.03-.26,.02-.38-.05l-2.15-1.24c-.65,.8-1.39,1.53-2.19,2.19l1.24,2.15c.07,.11,.08,.25,.05,.38-.04,.13-.12,.24-.23,.3l-3.33,1.92c-.24,.14-.55,.06-.68-.18l-1.23-2.14c-.95,.36-1.96,.63-3,.79v2.48c0,.28-.22,.5-.5,.5Zm-3.34-1h2.84v-2.41c0-.25,.19-.46,.44-.5,1.26-.16,2.47-.48,3.59-.95,.23-.1,.5,0,.62,.21l1.2,2.08,2.46-1.42-1.21-2.09c-.13-.22-.07-.49,.13-.65,.98-.76,1.87-1.64,2.62-2.62,.15-.2,.43-.25,.65-.13l2.09,1.21,1.42-2.46-2.08-1.2c-.22-.13-.31-.39-.21-.62,.46-1.12,.78-2.32,.95-3.59,.03-.25,.25-.44,.5-.44h2.41v-2.84h-2.41c-.25,0-.46-.19-.5-.44-.16-1.26-.48-2.47-.95-3.59-.1-.23,0-.5,.21-.62l2.08-1.2-1.42-2.46-2.09,1.21c-.21,.12-.49,.07-.65-.13-.75-.98-1.64-1.86-2.62-2.62-.2-.15-.25-.43-.13-.65l1.21-2.09-2.46-1.42-1.2,2.08c-.13,.22-.39,.31-.62,.21-1.12-.46-2.33-.78-3.59-.95-.25-.03-.44-.24-.44-.5v-2.41h-2.84v2.41c0,.25-.19,.46-.44,.5-1.26,.16-2.47,.48-3.59,.95-.23,.1-.5,0-.62-.21l-1.2-2.08-2.46,1.42,1.21,2.09c.13,.22,.07,.49-.13,.65-.98,.76-1.87,1.64-2.62,2.62-.15,.2-.43,.25-.65,.13l-2.09-1.21-1.42,2.46,2.08,1.2c.22,.13,.31,.39,.21,.62-.46,1.12-.78,2.33-.95,3.59-.03,.25-.25,.44-.5,.44H1v2.84H3.41c.25,0,.46,.19,.5,.44,.17,1.26,.48,2.47,.95,3.59,.1,.23,0,.5-.21,.62l-2.08,1.2,1.42,2.46,2.09-1.21c.22-.12,.49-.07,.65,.13,.76,.98,1.64,1.87,2.62,2.62,.2,.15,.25,.43,.13,.65l-1.21,2.09,2.46,1.42,1.2-2.08c.12-.22,.39-.31,.62-.21,1.12,.46,2.33,.78,3.59,.95,.25,.03,.44,.24,.44,.5v2.41Z"/><path class="uuid-2d7b07f0-6688-41c2-9e70-8360aeb0508a" d="M17.99,36.35c-4.03,0-7.31-3.28-7.31-7.31,0-.76,.12-1.51,.35-2.23,.08-.26,.37-.41,.63-.32,.26,.08,.41,.37,.32,.63-.2,.62-.3,1.27-.3,1.93,0,3.48,2.83,6.31,6.31,6.31s6.31-2.83,6.31-6.31-2.83-6.31-6.31-6.31c-1.12,0-2.23,.3-3.19,.86-.24,.14-.54,.06-.68-.18-.14-.24-.06-.54,.18-.68,1.12-.66,2.39-1,3.7-1,4.03,0,7.31,3.28,7.31,7.31s-3.28,7.31-7.31,7.31Z"/></g></svg>