<?xml version="1.0" encoding="UTF-8"?><svg id="uuid-bedda2e8-fd2d-48ba-baf5-a761f6f3f906" xmlns="http://www.w3.org/2000/svg" viewBox="0 0 42.65 69.13"><defs><style>.uuid-5ecd9e52-bcba-4a7a-9513-d55d417f5de4{fill:#378eff;}.uuid-3af765ac-66eb-430d-a09d-1bf966262bbc{fill:#8ab0e3;}</style></defs><path class="uuid-3af765ac-66eb-430d-a09d-1bf966262bbc" d="M21.32,45.14c-11.96,0-21.32-3.27-21.32-7.44,0-.28,.22-.5,.5-.5s.5,.22,.5,.5c0,3.11,8.17,6.44,20.32,6.44s20.32-3.33,20.32-6.44c0-.28,.22-.5,.5-.5s.5,.22,.5,.5c0,4.17-9.37,7.44-21.32,7.44Z"/><path class="uuid-3af765ac-66eb-430d-a09d-1bf966262bbc" d="M27.79,23.63s-.04,0-.05,0c-1.46-.16-2.99-.26-4.52-.31-.28,0-.49-.24-.49-.52,0-.28,.23-.48,.51-.48,1.56,.05,3.11,.15,4.6,.32,.28,.03,.47,.28,.44,.55-.03,.26-.24,.45-.5,.45Z"/><path class="uuid-3af765ac-66eb-430d-a09d-1bf966262bbc" d="M14.36,23.69c-.25,0-.47-.19-.5-.44-.03-.27,.16-.52,.44-.56,1.64-.19,3.36-.32,5.1-.37,.27,0,.51,.21,.51,.48,0,.28-.21,.51-.49,.52-1.71,.05-3.4,.17-5.01,.37-.02,0-.04,0-.06,0Z"/><path class="uuid-3af765ac-66eb-430d-a09d-1bf966262bbc" d="M21.32,37.17c-11.96,0-21.32-3.27-21.32-7.44,0-2.71,3.91-5.11,10.45-6.43,.26-.05,.53,.12,.59,.39,.05,.27-.12,.53-.39,.59-5.86,1.18-9.65,3.32-9.65,5.45,0,3.11,8.17,6.44,20.32,6.44s20.32-3.33,20.32-6.44c0-2.2-3.98-4.38-10.13-5.55-.27-.05-.45-.31-.4-.58,.05-.27,.32-.45,.58-.4,6.85,1.3,10.95,3.74,10.95,6.53,0,4.17-9.37,7.44-21.32,7.44Z"/><path class="uuid-3af765ac-66eb-430d-a09d-1bf966262bbc" d="M.5,38.2c-.28,0-.5-.22-.5-.5v-7.97c0-.28,.22-.5,.5-.5s.5,.22,.5,.5v7.97c0,.28-.22,.5-.5,.5Z"/><path class="uuid-3af765ac-66eb-430d-a09d-1bf966262bbc" d="M42.15,38.2c-.28,0-.5-.22-.5-.5v-7.97c0-.28,.22-.5,.5-.5s.5,.22,.5,.5v7.97c0,.28-.22,.5-.5,.5Z"/><path class="uuid-3af765ac-66eb-430d-a09d-1bf966262bbc" d="M21.32,56.88c-11.96,0-21.32-3.27-21.32-7.44,0-.28,.22-.5,.5-.5s.5,.22,.5,.5c0,3.11,8.17,6.44,20.32,6.44s20.32-3.33,20.32-6.44c0-.28,.22-.5,.5-.5s.5,.22,.5,.5c0,4.17-9.37,7.44-21.32,7.44Z"/><path class="uuid-3af765ac-66eb-430d-a09d-1bf966262bbc" d="M21.32,48.91c-11.96,0-21.32-3.27-21.32-7.44,0-.76,.3-1.51,.9-2.21,.18-.21,.49-.24,.71-.06,.21,.18,.24,.49,.06,.71-.44,.52-.66,1.04-.66,1.56,0,3.11,8.17,6.44,20.32,6.44s20.32-3.33,20.32-6.44c0-.52-.22-1.05-.66-1.57-.18-.21-.15-.53,.06-.7,.21-.18,.53-.15,.7,.06,.59,.7,.9,1.45,.9,2.21,0,4.17-9.37,7.44-21.32,7.44Z"/><path class="uuid-3af765ac-66eb-430d-a09d-1bf966262bbc" d="M.5,49.94c-.28,0-.5-.22-.5-.5v-7.97c0-.28,.22-.5,.5-.5s.5,.22,.5,.5v7.97c0,.28-.22,.5-.5,.5Z"/><path class="uuid-3af765ac-66eb-430d-a09d-1bf966262bbc" d="M42.15,49.94c-.28,0-.5-.22-.5-.5v-7.97c0-.28,.22-.5,.5-.5s.5,.22,.5,.5v7.97c0,.28-.22,.5-.5,.5Z"/><path class="uuid-3af765ac-66eb-430d-a09d-1bf966262bbc" d="M21.32,69.13c-11.96,0-21.32-3.27-21.32-7.44,0-.28,.22-.5,.5-.5s.5,.22,.5,.5c0,3.11,8.17,6.44,20.32,6.44s20.32-3.33,20.32-6.44c0-.28,.22-.5,.5-.5s.5,.22,.5,.5c0,4.17-9.37,7.44-21.32,7.44Z"/><path class="uuid-3af765ac-66eb-430d-a09d-1bf966262bbc" d="M21.32,61.17c-11.96,0-21.32-3.27-21.32-7.44,0-.76,.3-1.5,.9-2.21,.18-.21,.5-.24,.7-.06,.21,.18,.24,.49,.06,.7-.44,.52-.66,1.05-.66,1.56,0,3.11,8.17,6.44,20.32,6.44s20.32-3.33,20.32-6.44c0-.57-.27-1.15-.8-1.72-.19-.2-.18-.52,.02-.71,.2-.19,.52-.18,.71,.02,.71,.76,1.07,1.57,1.07,2.4,0,4.17-9.37,7.44-21.32,7.44Z"/><path class="uuid-3af765ac-66eb-430d-a09d-1bf966262bbc" d="M.5,62.19c-.28,0-.5-.22-.5-.5v-7.97c0-.28,.22-.5,.5-.5s.5,.22,.5,.5v7.97c0,.28-.22,.5-.5,.5Z"/><path class="uuid-3af765ac-66eb-430d-a09d-1bf966262bbc" d="M42.15,62.19c-.28,0-.5-.22-.5-.5v-7.97c0-.28,.22-.5,.5-.5s.5,.22,.5,.5v7.97c0,.28-.22,.5-.5,.5Z"/><path class="uuid-5ecd9e52-bcba-4a7a-9513-d55d417f5de4" d="M12.45,31.26c-.28,0-.5-.22-.5-.5v-11.43l-5.06-5.06c-.09-.09-.15-.22-.15-.35V7.56c0-.28,.22-.5,.5-.5s.5,.22,.5,.5v6.16l5.06,5.06c.09,.09,.15,.22,.15,.35v11.63c0,.28-.22,.5-.5,.5Z"/><path class="uuid-5ecd9e52-bcba-4a7a-9513-d55d417f5de4" d="M29.49,31.26c-.28,0-.5-.22-.5-.5v-7.04c0-.13,.05-.26,.15-.35l5.06-5.06v-6.16c0-.28,.22-.5,.5-.5s.5,.22,.5,.5v6.36c0,.13-.05,.26-.15,.35l-5.06,5.06v6.83c0,.28-.22,.5-.5,.5Z"/><path class="uuid-5ecd9e52-bcba-4a7a-9513-d55d417f5de4" d="M21.32,29.59c-.28,0-.5-.22-.5-.5V3.76c0-.28,.22-.5,.5-.5s.5,.22,.5,.5V29.09c0,.28-.22,.5-.5,.5Z"/><path class="uuid-5ecd9e52-bcba-4a7a-9513-d55d417f5de4" d="M7.25,8.16c-1.21,0-2.2-.99-2.2-2.2s.99-2.2,2.2-2.2,2.2,.99,2.2,2.2-.99,2.2-2.2,2.2Zm0-3.41c-.66,0-1.2,.54-1.2,1.2s.54,1.2,1.2,1.2,1.2-.54,1.2-1.2-.54-1.2-1.2-1.2Z"/><path class="uuid-5ecd9e52-bcba-4a7a-9513-d55d417f5de4" d="M21.32,4.41c-1.21,0-2.2-.99-2.2-2.2s.99-2.2,2.2-2.2,2.2,.99,2.2,2.2-.99,2.2-2.2,2.2Zm0-3.41c-.66,0-1.2,.54-1.2,1.2s.54,1.2,1.2,1.2,1.2-.54,1.2-1.2-.54-1.2-1.2-1.2Z"/><path class="uuid-5ecd9e52-bcba-4a7a-9513-d55d417f5de4" d="M34.69,12.79c-1.21,0-2.2-.99-2.2-2.2s.99-2.2,2.2-2.2,2.2,.99,2.2,2.2-.99,2.2-2.2,2.2Zm0-3.41c-.66,0-1.2,.54-1.2,1.2s.54,1.2,1.2,1.2,1.2-.54,1.2-1.2-.54-1.2-1.2-1.2Z"/></svg>