<?xml version="1.0" encoding="UTF-8"?><svg id="uuid-b45e7dd1-c9c9-4a50-ad04-9f52ac3adc97" xmlns="http://www.w3.org/2000/svg" xmlns:xlink="http://www.w3.org/1999/xlink" viewBox="0 0 694.77 584.45"><defs><style>.uuid-0208718a-9cb3-4ce4-a468-9411de507339{fill:url(#uuid-0f41d5b6-d91a-4a98-8e3c-d118a9a20049);}.uuid-bfb320ee-d70f-41dd-8e4c-b5936d3b8c99{fill:url(#uuid-26445555-95b0-4063-be4e-c373f0909171);}.uuid-5b40f002-697e-43cd-8666-c44a5b93439a{fill:url(#uuid-33509a14-99d5-414f-93e1-dc76084f39a1);}.uuid-a37ecfe1-e3ac-46ce-b280-6ed46ccf6cdd{fill:url(#uuid-7581ae0f-834d-4eb0-adb7-abf8f52476fa);}.uuid-1f053bbd-f676-4b39-9648-22897a2d3be6{fill:url(#uuid-61ac3866-2ba3-48d0-a6a5-339eb374820f);}.uuid-a56b9625-9605-42b7-97d1-233d986538b3{fill:url(#uuid-98551828-a325-448e-9994-299b36063b1e);}.uuid-c6f2c6ca-a723-4f5f-9f0b-7d74999b679b{fill:url(#uuid-8dd5f1d2-8b25-407a-8d80-e562587ba65e);}.uuid-c7e0452c-02ef-40dd-baae-5cfd95825d6b{fill:url(#uuid-fdd981a9-9006-4cac-82b5-271c5811c597);}.uuid-87afde99-f076-491d-a774-df5da13734df{fill:url(#uuid-55d3b11e-8dae-4b5f-b90f-9fa91f39ea7b);}.uuid-e90ec72c-d6f3-4ba6-9947-f61a3fcb8d60{mask:url(#uuid-da2626a7-bd40-4d19-8c83-049abe889148);}.uuid-70bbb52d-9f33-4305-a7db-48cac3cdfd56{fill:url(#uuid-8fc899dc-f2ad-4028-972a-0930fa5566d0);}.uuid-328bf2e6-ff02-44a9-b6bc-c31f84570182,.uuid-3a66ca13-1cc9-4f8a-9e0f-65777a531189{fill:#00759f;}.uuid-8980a7b2-1d3e-4e86-87a2-741e15cffac0,.uuid-3beb1581-7ee3-4d68-8c24-38f83b555ea9{fill:#fff;}.uuid-c4cc1b35-1c3b-4432-98ba-62433c332200{fill:#90c9ff;}.uuid-c6d1ba5f-df99-4312-9590-3196d4e7e4db{fill:#741aac;}.uuid-01dbe913-5ff6-4073-a3e4-feb4a23a217d{fill:#619fff;}.uuid-1954e545-fb03-4bf4-b0b1-1521d09d2635{fill:none;stroke:#000;stroke-width:2.31px;}.uuid-1954e545-fb03-4bf4-b0b1-1521d09d2635,.uuid-eff6f1c1-2ea7-4c22-8b9b-2087cf18c897{stroke-miterlimit:10;}.uuid-97c4a7fc-cbbe-4d4c-90e5-a96c3d240df2{fill:url(#uuid-55ed56e9-8bde-40ef-9b64-66634e732354);}.uuid-f749e1df-cfc2-41a6-85c3-614dd1e71b37{fill:url(#uuid-2efdf082-267d-4419-b458-8156da689b2b);}.uuid-456a935b-1fc6-4f18-8c78-15f87787e61e{fill:url(#uuid-38ea8b92-193e-40e1-8f3f-ebbf0beb407f);}.uuid-e749e69a-e96b-4094-b7ac-460229dd5cd0{fill:url(#uuid-0f22dbe4-da4a-4543-ba15-56c77fddcfd1);}.uuid-3feca59b-1ab9-49c9-bff9-f415b177d41b{fill:url(#uuid-6b54340e-be2a-4f62-96c4-ef0d14becdb4);}.uuid-a4d4337d-5101-4d0b-8fda-14dd9e87d460{fill:url(#uuid-bf2a51ca-c2cf-4c83-961f-8300066d1bf4);}.uuid-881019d9-2c93-4ffd-ae56-332f80b923a9{fill:url(#uuid-92fd2507-3b68-4f20-a842-42fd9ae5bb9e);}.uuid-93970ba4-a4f3-410c-8391-0cf5f271e9a2{fill:url(#uuid-fa870e3c-32ca-4559-ac7f-cdbef0a41800);}.uuid-5837cd96-f4cc-4f0d-8b3f-b23fee13eb7d{fill:url(#uuid-06c7d93c-846a-4b39-a9e5-3b7d4136653f);}.uuid-2ce75e10-a46e-4da3-9193-8aebfaafea1c{mask:url(#uuid-045aeb88-8ce3-46e7-9a54-121f6f4ce068);}.uuid-4990e9bf-e795-40f1-8b49-5e2f53a34fb3{fill:url(#uuid-5de5305a-04e0-4502-b31a-5013eecddf7f);}.uuid-1cd8f08c-a848-41fa-9ea5-13571b0e8727{fill:url(#uuid-d1f487a7-5e72-430a-b94a-8e7d3f1d67dc);}.uuid-c91f1181-1313-442e-809e-2bd6944f6147{fill:url(#uuid-c5902083-c25e-4d1d-b439-4fc49604f65c);}.uuid-86613765-67f9-4eef-b8bc-f71ac9086606{fill:url(#uuid-10d3dde0-7abd-4f34-8285-2eb976fce275);}.uuid-2660cb69-91fa-4a6c-a1ef-1f049904c713{fill:url(#uuid-a67dc0e5-8885-46de-a621-7397d4d27bef);}.uuid-96893d5a-270c-40b7-9c8e-732320278560{fill:url(#uuid-3d225ce6-83d1-482e-b61a-243c06154f6c);}.uuid-1e19e916-e009-4b45-ba8a-e45875f18082{filter:url(#uuid-677e6a68-b96e-4ea8-835a-382761f62591);}.uuid-3abef7d4-0067-4913-902a-2a11beb1c4c7{fill:url(#uuid-de4010cc-dfca-4e36-9d37-2a082146524f);}.uuid-df8751bc-0944-40f7-a84d-9d53773e6db3{fill:url(#uuid-26c1d08c-55b1-4402-a4b4-f61089c8caf9);}.uuid-08dc8f9d-86ee-4c17-8647-58625943da15{fill:url(#uuid-702a63a4-3c47-4538-bde0-d968d93c3729);}.uuid-175e9065-666d-4d0b-bebc-dd15842c9570{filter:url(#uuid-3fff8c8b-5a44-4b60-b078-dfdaff4c1292);}.uuid-9405f893-7036-4d16-a23d-d145bf7956bf{fill:url(#uuid-b0d99c61-fbbe-45dd-ae08-c080ef1a1dd7);}.uuid-a4d449ca-45f4-4243-89bd-f58e40b10c64{fill:url(#uuid-43f4cf66-618b-4f3c-9b4a-de29507f835e);}.uuid-4be0b126-d549-47fd-b67f-98f195bb6715{fill:url(#uuid-a1b88bf2-2b98-4b3a-823f-93eac87e3d38);}.uuid-eff6f1c1-2ea7-4c22-8b9b-2087cf18c897{stroke:#231f20;stroke-width:2px;}.uuid-e735a1c0-608e-4ebd-93a4-964c2e24d938{fill:url(#uuid-77476f20-75e1-462c-b3f6-60bb972c262d);}.uuid-6d62e4d0-3bc2-4206-96d2-74253e0ce912{fill:url(#uuid-df201756-6e4a-4d0d-8335-b36098be042b);}.uuid-d77fcc69-6e3d-41f9-977c-03a767de2fc7{fill:url(#uuid-73f10588-f1e6-4e9b-a4a0-fb561bba9e37);}.uuid-00ea11c7-0b89-43fe-86f5-ce81808b3df2{fill:url(#uuid-766da2ed-d760-475c-9012-42e9de97c58f);}.uuid-e1d5062b-4ecd-4527-a12f-ba9427319099{fill:url(#uuid-4bb5fccc-f908-4280-bf76-19ac09a73778);}.uuid-295bd7b6-dfd5-4c24-aec1-b51ce9f459fc{opacity:.8;}.uuid-27d5d18f-a0f7-4c5a-a305-49b5ef412b83{mask:url(#uuid-3c8190b0-204d-4bd3-84f1-7461fb82d5ac);}.uuid-94d565ce-ecf6-46eb-b49a-6384049b8fbc{fill:url(#uuid-966e157f-b948-49ef-b129-cd25e90703de);mix-blend-mode:multiply;}.uuid-0bf99b4b-464a-4caf-89c0-bf32158a72a5{fill:url(#uuid-0e6100f2-b523-48e8-874c-690be17d3b4a);}.uuid-2a340316-67cf-4295-99f6-f1af5220a444{fill:url(#uuid-61b458ff-6eea-4417-8674-caaa947fc9b6);}.uuid-8bf54ef3-914a-407a-81a4-38a5a3018274{fill:url(#uuid-03e19de8-4d50-4839-afe4-ae06520657d4);}.uuid-6e7c9be0-440e-4cf7-88a3-76d42d3bfa57{fill:url(#uuid-3f3e2201-5a62-4401-b12c-99adf0e9d159);}.uuid-c5fe986e-0e50-4ac4-9088-8f82e9ccb72c{mask:url(#uuid-4879562f-257f-442c-ae15-3614e8b53b27);}.uuid-d87894b4-6345-4ae5-b201-f73b52952cbc{fill:url(#uuid-a05d4317-f58f-4e8d-b8a4-0b74cede8f35);}.uuid-5e0fcbc6-7c9e-4ad2-8768-9ee30f86568c{fill:url(#uuid-e46bfd80-a615-47cc-97d6-224b8e930422);}.uuid-3beb1581-7ee3-4d68-8c24-38f83b555ea9,.uuid-3a66ca13-1cc9-4f8a-9e0f-65777a531189{opacity:.3;}.uuid-087bef48-1b86-4d8f-bb4b-0d80d5847160{fill:url(#uuid-5fff89b4-0ce4-4e46-8c23-72d32593a08c);}</style><linearGradient id="uuid-5de5305a-04e0-4502-b31a-5013eecddf7f" x1="349.37" y1="-5.71" x2="349.37" y2="536.8" gradientUnits="userSpaceOnUse"><stop offset="0" stop-color="#70b"/><stop offset="1" stop-color="#00008b"/><stop offset="1" stop-color="#000"/></linearGradient><mask id="uuid-da2626a7-bd40-4d19-8c83-049abe889148" x="159.69" y="260.4" width="379.8" height="276.21" maskUnits="userSpaceOnUse"><image width="381" height="278" transform="translate(159.42 259.6)" xlink:href="support1.png"/></mask><filter id="uuid-677e6a68-b96e-4ea8-835a-382761f62591" x="159.69" y="260.4" width="379.8" height="276.21" color-interpolation-filters="sRGB" filterUnits="userSpaceOnUse"><feFlood flood-color="#fff" result="bg"/><feBlend in="SourceGraphic" in2="bg"/></filter><mask id="uuid-045aeb88-8ce3-46e7-9a54-121f6f4ce068" x="159.69" y="260.4" width="379.8" height="276.21" maskUnits="userSpaceOnUse"><g class="uuid-1e19e916-e009-4b45-ba8a-e45875f18082"><image width="381" height="278" transform="translate(159.42 259.6)" xlink:href="support2.png"/></g></mask><filter id="uuid-3fff8c8b-5a44-4b60-b078-dfdaff4c1292" x="421.2" y="46.42" width="83.38" height="83.37" color-interpolation-filters="sRGB" filterUnits="userSpaceOnUse"><feFlood flood-color="#fff" result="bg"/><feBlend in="SourceGraphic" in2="bg"/></filter><filter id="uuid-d32b8b09-044c-4f23-8ca1-527b47866523" x="8531.42" y="-8481.6" width="-32766" height="32766" color-interpolation-filters="sRGB" filterUnits="userSpaceOnUse"><feFlood flood-color="#fff" result="bg"/><feBlend in="SourceGraphic" in2="bg"/></filter><mask id="uuid-3c8190b0-204d-4bd3-84f1-7461fb82d5ac" x="8531.42" y="-8481.6" width="-32766" height="32766" maskUnits="userSpaceOnUse"/><linearGradient id="uuid-966e157f-b948-49ef-b129-cd25e90703de" x1="173.97" y1="277.26" x2="243.28" y2="323.62" gradientTransform="translate(398.53 -270.25) rotate(135.15) scale(1 -1)" gradientUnits="userSpaceOnUse"><stop offset="0" stop-color="#4d4d4d"/><stop offset=".29" stop-color="#898989"/><stop offset=".63" stop-color="#c8c8c8"/><stop offset=".87" stop-color="#efefef"/><stop offset="1" stop-color="#fff"/></linearGradient><mask id="uuid-4879562f-257f-442c-ae15-3614e8b53b27" x="421.2" y="46.42" width="83.38" height="83.37" maskUnits="userSpaceOnUse"><g class="uuid-175e9065-666d-4d0b-bebc-dd15842c9570"><g class="uuid-27d5d18f-a0f7-4c5a-a305-49b5ef412b83"><path class="uuid-94d565ce-ecf6-46eb-b49a-6384049b8fbc" d="M433.33,117.51c16.24,16.32,42.64,16.39,58.96,.15,16.32-16.24,16.39-42.63,.15-58.95-16.24-16.32-42.63-16.39-58.96-.15-16.32,16.24-16.39,42.63-.15,58.95Z"/></g></g></mask><linearGradient id="uuid-06c7d93c-846a-4b39-a9e5-3b7d4136653f" x1="173.97" y1="277.26" x2="243.28" y2="323.62" gradientTransform="translate(398.53 -270.25) rotate(135.15) scale(1 -1)" gradientUnits="userSpaceOnUse"><stop offset="0" stop-color="#88cfda"/><stop offset="0" stop-color="#89cfd9"/><stop offset=".48" stop-color="#c8d8ba"/><stop offset=".82" stop-color="#efdea7"/><stop offset="1" stop-color="#ffe1a0"/></linearGradient><linearGradient id="uuid-26445555-95b0-4063-be4e-c373f0909171" x1="879.1" y1="271.81" x2="712.46" y2="182.61" gradientTransform="translate(1339.17 4.61) rotate(173.21) scale(1 -1)" gradientUnits="userSpaceOnUse"><stop offset="1" stop-color="#00008b"/><stop offset="1" stop-color="#000"/></linearGradient><linearGradient id="uuid-bf2a51ca-c2cf-4c83-961f-8300066d1bf4" x1="445.58" y1="487.52" x2="553.69" y2="308.18" gradientUnits="userSpaceOnUse"><stop offset="0" stop-color="#7633ff"/><stop offset=".16" stop-color="#7037ff"/><stop offset=".35" stop-color="#6143ff"/><stop offset=".57" stop-color="#4856ff"/><stop offset=".79" stop-color="#2671ff"/><stop offset="1" stop-color="#0090ff"/></linearGradient><linearGradient id="uuid-6b54340e-be2a-4f62-96c4-ef0d14becdb4" x1="574.14" y1="523.68" x2="573.98" y2="524.49" gradientTransform="translate(138.11 -239.62) rotate(18.92)" gradientUnits="userSpaceOnUse"><stop offset=".07" stop-color="#cec228"/><stop offset=".58" stop-color="#b2ae18"/></linearGradient><linearGradient id="uuid-77476f20-75e1-462c-b3f6-60bb972c262d" x1="498.29" y1="412.68" x2="514.26" y2="412.68" gradientTransform="translate(-128.44 95.51) rotate(-12.56)" xlink:href="#uuid-5de5305a-04e0-4502-b31a-5013eecddf7f"/><linearGradient id="uuid-55ed56e9-8bde-40ef-9b64-66634e732354" x1="412.86" y1="439.75" x2="512.75" y2="439.75" gradientTransform="translate(-128.44 95.51) rotate(-12.56)" xlink:href="#uuid-5de5305a-04e0-4502-b31a-5013eecddf7f"/><linearGradient id="uuid-8dd5f1d2-8b25-407a-8d80-e562587ba65e" x1="520" y1="504.3" x2="603.2" y2="504.3" gradientTransform="translate(-128.44 95.51) rotate(-12.56)" xlink:href="#uuid-5de5305a-04e0-4502-b31a-5013eecddf7f"/><linearGradient id="uuid-26c1d08c-55b1-4402-a4b4-f61089c8caf9" x1="202.52" y1="332.16" x2="35.89" y2="242.95" gradientTransform="translate(41.95 4.61) rotate(6.79)" xlink:href="#uuid-26445555-95b0-4063-be4e-c373f0909171"/><linearGradient id="uuid-d1f487a7-5e72-430a-b94a-8e7d3f1d67dc" x1="420.48" y1="556.07" x2="517.7" y2="401.86" gradientUnits="userSpaceOnUse"><stop offset="0" stop-color="#59023f"/><stop offset=".12" stop-color="#590444"/><stop offset=".27" stop-color="#5a0a53"/><stop offset=".43" stop-color="#5b146c"/><stop offset=".6" stop-color="#5e238f"/><stop offset=".78" stop-color="#6035bc"/><stop offset=".96" stop-color="#644bf2"/><stop offset="1" stop-color="#6551ff"/></linearGradient><linearGradient id="uuid-e46bfd80-a615-47cc-97d6-224b8e930422" x1="550.54" y1="564.37" x2="550.38" y2="565.18" gradientTransform="translate(-72.06 -40.54) rotate(-.66)" xlink:href="#uuid-6b54340e-be2a-4f62-96c4-ef0d14becdb4"/><linearGradient id="uuid-98551828-a325-448e-9994-299b36063b1e" x1="456.96" y1="436.01" x2="472.92" y2="436.01" gradientTransform="translate(-211.37 363.79) rotate(-32.14)" xlink:href="#uuid-5de5305a-04e0-4502-b31a-5013eecddf7f"/><linearGradient id="uuid-766da2ed-d760-475c-9012-42e9de97c58f" x1="371.51" y1="463.08" x2="471.41" y2="463.08" gradientTransform="translate(-211.37 363.79) rotate(-32.14)" xlink:href="#uuid-5de5305a-04e0-4502-b31a-5013eecddf7f"/><linearGradient id="uuid-43f4cf66-618b-4f3c-9b4a-de29507f835e" x1="245.23" y1="446.71" x2="19.8" y2="326.03" xlink:href="#uuid-bf2a51ca-c2cf-4c83-961f-8300066d1bf4"/><linearGradient id="uuid-fdd981a9-9006-4cac-82b5-271c5811c597" x1="311.08" y1="896.77" x2="310.92" y2="897.57" gradientTransform="translate(-344.06 -315.58) rotate(125.87) scale(1 -1)" xlink:href="#uuid-6b54340e-be2a-4f62-96c4-ef0d14becdb4"/><linearGradient id="uuid-3d225ce6-83d1-482e-b61a-243c06154f6c" x1="297.08" y1="557.13" x2="195.39" y2="383.92" xlink:href="#uuid-d1f487a7-5e72-430a-b94a-8e7d3f1d67dc"/><linearGradient id="uuid-de4010cc-dfca-4e36-9d37-2a082146524f" x1="175.22" y1="799.25" x2="175.06" y2="800.05" gradientTransform="translate(350.96 -291.8) rotate(175.51) scale(1 -1)" xlink:href="#uuid-6b54340e-be2a-4f62-96c4-ef0d14becdb4"/><linearGradient id="uuid-fa870e3c-32ca-4559-ac7f-cdbef0a41800" x1="14.54" y1="439.89" x2="30.51" y2="439.89" gradientTransform="translate(526.04 98.92) rotate(-153) scale(1 -1)" xlink:href="#uuid-5de5305a-04e0-4502-b31a-5013eecddf7f"/><linearGradient id="uuid-10d3dde0-7abd-4f34-8285-2eb976fce275" x1="-70.9" y1="466.96" x2="29" y2="466.96" gradientTransform="translate(526.04 98.92) rotate(-153) scale(1 -1)" xlink:href="#uuid-5de5305a-04e0-4502-b31a-5013eecddf7f"/><linearGradient id="uuid-a05d4317-f58f-4e8d-b8a4-0b74cede8f35" x1="34.97" y1="491.27" x2="150" y2="491.27" gradientTransform="translate(526.04 98.92) rotate(-153) scale(1 -1)" xlink:href="#uuid-5de5305a-04e0-4502-b31a-5013eecddf7f"/><linearGradient id="uuid-0e6100f2-b523-48e8-874c-690be17d3b4a" x1="261.17" y1="165.66" x2="270.83" y2="165.66" gradientTransform="translate(91.14 -36.29) rotate(24.51)" xlink:href="#uuid-bf2a51ca-c2cf-4c83-961f-8300066d1bf4"/><linearGradient id="uuid-33509a14-99d5-414f-93e1-dc76084f39a1" x1="251.63" y1="172.91" x2="260.17" y2="172.91" gradientTransform="translate(91.14 -36.29) rotate(24.51)" xlink:href="#uuid-bf2a51ca-c2cf-4c83-961f-8300066d1bf4"/><linearGradient id="uuid-03e19de8-4d50-4839-afe4-ae06520657d4" x1="250.6" y1="186.47" x2="258.21" y2="186.47" gradientTransform="translate(91.14 -36.29) rotate(24.51)" xlink:href="#uuid-bf2a51ca-c2cf-4c83-961f-8300066d1bf4"/><linearGradient id="uuid-92fd2507-3b68-4f20-a842-42fd9ae5bb9e" x1="234.08" y1="186.65" x2="244.89" y2="186.65" gradientTransform="translate(91.14 -36.29) rotate(24.51)" xlink:href="#uuid-bf2a51ca-c2cf-4c83-961f-8300066d1bf4"/><linearGradient id="uuid-55d3b11e-8dae-4b5f-b90f-9fa91f39ea7b" x1="230.06" y1="214.02" x2="242.69" y2="214.02" gradientTransform="translate(91.14 -36.29) rotate(24.51)" xlink:href="#uuid-bf2a51ca-c2cf-4c83-961f-8300066d1bf4"/><linearGradient id="uuid-7581ae0f-834d-4eb0-adb7-abf8f52476fa" x1="230.02" y1="198.74" x2="240.22" y2="198.74" gradientTransform="translate(91.14 -36.29) rotate(24.51)" xlink:href="#uuid-bf2a51ca-c2cf-4c83-961f-8300066d1bf4"/><linearGradient id="uuid-38ea8b92-193e-40e1-8f3f-ebbf0beb407f" x1="498.6" y1="65.59" x2="508.26" y2="65.59" gradientTransform="translate(851.13 -36.29) rotate(155.49) scale(1 -1)" xlink:href="#uuid-bf2a51ca-c2cf-4c83-961f-8300066d1bf4"/><linearGradient id="uuid-c5902083-c25e-4d1d-b439-4fc49604f65c" x1="489.06" y1="72.84" x2="497.6" y2="72.84" gradientTransform="translate(851.13 -36.29) rotate(155.49) scale(1 -1)" xlink:href="#uuid-bf2a51ca-c2cf-4c83-961f-8300066d1bf4"/><linearGradient id="uuid-5fff89b4-0ce4-4e46-8c23-72d32593a08c" x1="488.03" y1="86.4" x2="495.64" y2="86.4" gradientTransform="translate(851.13 -36.29) rotate(155.49) scale(1 -1)" xlink:href="#uuid-bf2a51ca-c2cf-4c83-961f-8300066d1bf4"/><linearGradient id="uuid-61ac3866-2ba3-48d0-a6a5-339eb374820f" x1="471.51" y1="86.58" x2="482.32" y2="86.58" gradientTransform="translate(851.13 -36.29) rotate(155.49) scale(1 -1)" xlink:href="#uuid-bf2a51ca-c2cf-4c83-961f-8300066d1bf4"/><linearGradient id="uuid-2efdf082-267d-4419-b458-8156da689b2b" x1="467.49" y1="113.94" x2="480.12" y2="113.94" gradientTransform="translate(851.13 -36.29) rotate(155.49) scale(1 -1)" xlink:href="#uuid-bf2a51ca-c2cf-4c83-961f-8300066d1bf4"/><linearGradient id="uuid-a67dc0e5-8885-46de-a621-7397d4d27bef" x1="467.45" y1="98.66" x2="477.65" y2="98.66" gradientTransform="translate(851.13 -36.29) rotate(155.49) scale(1 -1)" xlink:href="#uuid-bf2a51ca-c2cf-4c83-961f-8300066d1bf4"/><linearGradient id="uuid-0f41d5b6-d91a-4a98-8e3c-d118a9a20049" x1="354.9" y1="604.63" x2="354.9" y2="534.31" gradientUnits="userSpaceOnUse"><stop offset="0" stop-color="#70b"/><stop offset=".12" stop-color="#6200b2"/><stop offset=".39" stop-color="#3800a1"/><stop offset=".64" stop-color="#190095"/><stop offset=".85" stop-color="#06008d"/><stop offset="1" stop-color="#00008b"/><stop offset="1" stop-color="#000"/></linearGradient><linearGradient id="uuid-a1b88bf2-2b98-4b3a-823f-93eac87e3d38" x1="360.52" y1="318.06" x2="330.35" y2="194.02" gradientUnits="userSpaceOnUse"><stop offset="0" stop-color="#fff"/><stop offset=".12" stop-color="#fafcff"/><stop offset=".25" stop-color="#eef5ff"/><stop offset=".37" stop-color="#dae9ff"/><stop offset=".5" stop-color="#bdd8ff"/><stop offset=".63" stop-color="#98c3ff"/><stop offset=".76" stop-color="#6ba8ff"/><stop offset=".88" stop-color="#3689ff"/><stop offset="1" stop-color="#006aff"/></linearGradient><linearGradient id="uuid-0f22dbe4-da4a-4543-ba15-56c77fddcfd1" x1="353" y1="253.68" x2="353" y2="127.28" xlink:href="#uuid-a1b88bf2-2b98-4b3a-823f-93eac87e3d38"/><linearGradient id="uuid-b0d99c61-fbbe-45dd-ae08-c080ef1a1dd7" x1="282.49" y1="294.16" x2="269.08" y2="424.9" xlink:href="#uuid-a1b88bf2-2b98-4b3a-823f-93eac87e3d38"/><linearGradient id="uuid-3f3e2201-5a62-4401-b12c-99adf0e9d159" x1="393.28" y1="300.91" x2="435.74" y2="420.48" xlink:href="#uuid-a1b88bf2-2b98-4b3a-823f-93eac87e3d38"/><linearGradient id="uuid-8fc899dc-f2ad-4028-972a-0930fa5566d0" x1="352.32" y1="309.55" x2="352.32" y2="453.75" gradientUnits="userSpaceOnUse"><stop offset="0" stop-color="#1dacff"/><stop offset=".11" stop-color="#1a9eef"/><stop offset=".34" stop-color="#157cc5"/><stop offset=".65" stop-color="#0b4582"/><stop offset="1" stop-color="#00002e"/></linearGradient><linearGradient id="uuid-73f10588-f1e6-4e9b-a4a0-fb561bba9e37" x1="353.84" y1="502.13" x2="353.84" y2="354.97" gradientUnits="userSpaceOnUse"><stop offset="0" stop-color="#000"/><stop offset=".1" stop-color="#020205"/><stop offset=".22" stop-color="#090b14"/><stop offset=".36" stop-color="#15192d"/><stop offset=".51" stop-color="#252d50"/><stop offset=".66" stop-color="#3a467d"/><stop offset=".81" stop-color="#5465b4"/><stop offset=".97" stop-color="#7189f3"/><stop offset="1" stop-color="#7790ff"/></linearGradient><linearGradient id="uuid-4bb5fccc-f908-4280-bf76-19ac09a73778" x1="191.06" y1="494.35" x2="375.24" y2="494.35" gradientUnits="userSpaceOnUse"><stop offset="0" stop-color="#311842"/><stop offset=".46" stop-color="#180c4a"/><stop offset="1" stop-color="#000054"/></linearGradient><linearGradient id="uuid-61b458ff-6eea-4417-8674-caaa947fc9b6" x1="363.04" y1="552.21" x2="462.86" y2="552.21" xlink:href="#uuid-a1b88bf2-2b98-4b3a-823f-93eac87e3d38"/><linearGradient id="uuid-df201756-6e4a-4d0d-8335-b36098be042b" x1="337.06" y1="495.46" x2="521.23" y2="495.46" xlink:href="#uuid-4bb5fccc-f908-4280-bf76-19ac09a73778"/><linearGradient id="uuid-702a63a4-3c47-4538-bde0-d968d93c3729" x1="347.17" y1="525.02" x2="202.42" y2="580.29" xlink:href="#uuid-a1b88bf2-2b98-4b3a-823f-93eac87e3d38"/></defs><g><path class="uuid-328bf2e6-ff02-44a9-b6bc-c31f84570182" d="M51.28,439.02s-22.1-11.63-29.76-28.56c-7.66-16.93-.18-40.65-2.48-48.61,14.14,14.95,22.83,19.29,29.01,36.54,6.17,17.25,4.38,35.79,3.23,40.64Z"/><path class="uuid-328bf2e6-ff02-44a9-b6bc-c31f84570182" d="M74.57,467.24s-22.75,18.03-46.69,.62C11.13,453.76,0,434.52,0,434.52c0,0,26.91,3.63,40.37,6.8,13.46,3.17,29.37,18.74,34.2,25.91Z"/><path class="uuid-328bf2e6-ff02-44a9-b6bc-c31f84570182" d="M643.49,439.02s22.1-11.63,29.76-28.56c7.66-16.93,.18-40.65,2.48-48.61-14.14,14.95-22.83,19.29-29.01,36.54-6.17,17.25-4.38,35.79-3.23,40.64Z"/><path class="uuid-328bf2e6-ff02-44a9-b6bc-c31f84570182" d="M620.2,467.24s22.75,18.03,46.69,.62c16.74-14.1,27.88-33.34,27.88-33.34,0,0-26.91,3.63-40.37,6.8-13.46,3.17-29.37,18.74-34.2,25.91Z"/><g><g><path class="uuid-328bf2e6-ff02-44a9-b6bc-c31f84570182" d="M159.49,534.06s-22.47,19.4-80.47,4.76C36.75,528.15,1.92,486.41,1.92,486.41c0,0,82.98-31.42,157.57,47.65Z"/><path class="uuid-c6d1ba5f-df99-4312-9590-3196d4e7e4db" d="M157.6,536.66s-44.68-5.2-87.78-84.93c-31.42-58.11-20.53-139.76-20.53-139.76,0,0,120.11,60.4,108.31,224.69Z"/><path class="uuid-c6d1ba5f-df99-4312-9590-3196d4e7e4db" d="M155.89,535.03s-35.54-27.58-31.16-118.1c3.19-65.98,54.77-130.21,54.77-130.21,0,0,71.51,113.85-23.61,248.31Z"/></g><g><path class="uuid-328bf2e6-ff02-44a9-b6bc-c31f84570182" d="M532.03,530.69s22.19,19.16,79.47,4.7c41.75-10.54,76.14-51.75,76.14-51.75,0,0-81.95-31.03-155.61,47.05Z"/><path class="uuid-c6d1ba5f-df99-4312-9590-3196d4e7e4db" d="M535.29,536.66s44.68-5.2,87.78-84.93c31.42-58.11,20.53-139.76,20.53-139.76,0,0-120.11,60.4-108.31,224.69Z"/><path class="uuid-c6d1ba5f-df99-4312-9590-3196d4e7e4db" d="M537,535.03s35.54-27.58,31.16-118.1c-3.2-65.98-54.77-130.21-54.77-130.21,0,0-71.51,113.85,23.61,248.31Z"/></g><path class="uuid-4990e9bf-e795-40f1-8b49-5e2f53a34fb3" d="M650.74,301.38C650.74,134.93,515.81,0,349.36,0S47.99,134.93,47.99,301.38c0,94.95,43.92,179.62,112.54,234.86h377.69c68.61-55.24,112.54-139.92,112.54-234.86Z"/><g class="uuid-e90ec72c-d6f3-4ba6-9947-f61a3fcb8d60"><g id="uuid-0522bb46-5827-4a75-84d1-cf96390ce8c4" class="uuid-295bd7b6-dfd5-4c24-aec1-b51ce9f459fc"><g class="uuid-2ce75e10-a46e-4da3-9193-8aebfaafea1c"><image width="381" height="278" transform="translate(159.42 259.6)" xlink:href="support3.png"/></g></g></g><g><g><path class="uuid-8980a7b2-1d3e-4e86-87a2-741e15cffac0" d="M314.85,92.75c0,.66-.53,1.19-1.19,1.19s-1.19-.53-1.19-1.19,.53-1.19,1.19-1.19,1.19,.53,1.19,1.19Z"/><path class="uuid-8980a7b2-1d3e-4e86-87a2-741e15cffac0" d="M399.85,166.21c0,.66-.53,1.19-1.19,1.19s-1.19-.53-1.19-1.19,.53-1.19,1.19-1.19,1.19,.53,1.19,1.19Z"/><path class="uuid-8980a7b2-1d3e-4e86-87a2-741e15cffac0" d="M258.28,184.49c0,.66-.53,1.19-1.19,1.19s-1.19-.53-1.19-1.19,.53-1.19,1.19-1.19,1.19,.53,1.19,1.19Z"/><path class="uuid-8980a7b2-1d3e-4e86-87a2-741e15cffac0" d="M168.3,170.12c0,.66-.53,1.19-1.19,1.19s-1.19-.53-1.19-1.19,.53-1.19,1.19-1.19,1.19,.53,1.19,1.19Z"/><path class="uuid-8980a7b2-1d3e-4e86-87a2-741e15cffac0" d="M516.9,242.48c0,.66-.53,1.19-1.19,1.19s-1.19-.53-1.19-1.19,.53-1.19,1.19-1.19,1.19,.53,1.19,1.19Z"/><polygon class="uuid-01dbe913-5ff6-4073-a3e4-feb4a23a217d" points="520.79 163.27 522.06 165.84 524.89 166.25 522.84 168.25 523.33 171.07 520.79 169.73 518.26 171.07 518.75 168.25 516.7 166.25 519.53 165.84 520.79 163.27"/><polygon class="uuid-c4cc1b35-1c3b-4432-98ba-62433c332200" points="227.57 59.13 229.15 62.33 232.69 62.85 230.13 65.34 230.73 68.87 227.57 67.2 224.4 68.87 225.01 65.34 222.45 62.85 225.99 62.33 227.57 59.13"/><polygon class="uuid-c4cc1b35-1c3b-4432-98ba-62433c332200" points="582.07 216.04 583.65 219.25 587.19 219.76 584.63 222.26 585.23 225.78 582.07 224.12 578.91 225.78 579.51 222.26 576.95 219.76 580.49 219.25 582.07 216.04"/><circle class="uuid-c4cc1b35-1c3b-4432-98ba-62433c332200" cx="115.27" cy="206.52" r="4.19"/></g><g class="uuid-c5fe986e-0e50-4ac4-9088-8f82e9ccb72c"><path id="uuid-9575aabc-681e-4726-8967-3b8369d85142" class="uuid-5837cd96-f4cc-4f0d-8b3f-b23fee13eb7d" d="M433.33,117.51c16.24,16.32,42.64,16.39,58.96,.15,16.32-16.24,16.39-42.63,.15-58.95-16.24-16.32-42.63-16.39-58.96-.15-16.32,16.24-16.39,42.63-.15,58.95Z"/></g></g><path class="uuid-bfb320ee-d70f-41dd-8e4c-b5936d3b8c99" d="M512.58,404.77c-.29-2.47,13.87-51.72,29.62-73.63,15.75-21.91,33.46-62.4,33.46-62.4,0,0,5.96,36.01-10.42,59.66-16.38,23.65-23.33,35.33-23.33,35.33,0,0,11.44-23.06,38.79-24.65,27.35-1.59,20.32,23.45,20.32,23.45,0,0-30.18-43.14-92.82,54.45"/><g><path class="uuid-a4d4337d-5101-4d0b-8fda-14dd9e87d460" d="M475.15,452.55s-43,10.01-72.12-7.82c-29.11-17.82-48.2-43.11-48.2-43.11,0,0,32.53-10.95,53.5-6.61,20.97,4.33,39.32,28.06,39.37,26.15,.05-1.92-22.37-32.26-24.19-52.22-1.82-19.97,7.66-57.36,7.66-57.36,0,0,27.61,21.27,34.49,37.91,6.88,16.64,12.23,52.55,12.23,52.55,0,0-3.66-31.41,9.07-57.47,12.73-26.06,45.08-47.13,45.08-47.13,0,0,12.03,32.52,2.15,64.24-9.88,31.72-32.76,52.58-32.76,52.58,0,0,31.66-22.85,51.2-25.98,19.54-3.13,46.64,13.84,46.64,13.84,0,0-27.71,30.83-49.15,36.37-21.43,5.54-42.98,2.7-42.98,2.7,0,0,29.73,.51,47.22,12.35,17.49,11.83,32.39,36.25,32.39,36.25,0,0-41.42,4.91-67.54-8.36-26.12-13.27-44.06-28.87-44.06-28.87Z"/><path class="uuid-3feca59b-1ab9-49c9-bff9-f415b177d41b" d="M516.09,441.82c-5.36-.57-8.95-.64-8.95-.64,0,0,3.46,.45,8.95,.64Z"/><path class="uuid-e735a1c0-608e-4ebd-93a4-964c2e24d938" d="M437.44,334.55s5.27,69.65,38.05,106.95c-4.58-10.43-16.87-28.32-23.69-53.08-6.82-24.76-14.36-53.87-14.36-53.87Z"/><path class="uuid-97c4a7fc-cbbe-4d4c-90e5-a96c3d240df2" d="M474.6,444.43s-61.64-17.86-85.46-28.95c-17.69-7.72-25.93-11.65-25.93-11.65,0,0,13.36,10.89,51.51,25.6,38.15,14.71,59.87,14.99,59.87,14.99Z"/><path class="uuid-c6f2c6ca-a723-4f5f-9f0b-7d74999b679b" d="M482.32,445.77s37.8,10.04,69.6,26.33c15.04,7.83,24.5,13.46,24.5,13.46,0,0-25.8-11.56-43.57-18.61-17.77-7.06-50.53-21.17-50.53-21.17Z"/></g><path class="uuid-df8751bc-0944-40f7-a84d-9d53773e6db3" d="M189.56,384.66c.29-2.47-13.87-51.72-29.62-73.63-15.75-21.91-33.46-62.4-33.46-62.4,0,0-5.96,36.01,10.42,59.66,16.38,23.65,23.33,35.33,23.33,35.33,0,0-11.44-23.06-38.79-24.65-27.35-1.59-20.32,23.45-20.32,23.45,0,0,30.18-43.14,92.82,54.45"/><g><path class="uuid-1954e545-fb03-4bf4-b0b1-1521d09d2635" d="M490.09,278.07s-17.7,26.51-28.78,65.04c-11.08,38.53-6.68,81.77-6.68,81.77"/><path class="uuid-1954e545-fb03-4bf4-b0b1-1521d09d2635" d="M483.71,322.26s-14.22,4.53-19.34,10.98c.16-7.09,2.32-32.77,2.32-32.77"/><path class="uuid-1954e545-fb03-4bf4-b0b1-1521d09d2635" d="M474.7,363.39s-13.68,2.31-18.95,7.42c-3.29-7.67-6.35-27.66-6.35-27.66"/><path class="uuid-1954e545-fb03-4bf4-b0b1-1521d09d2635" d="M462.22,398.47s-5.94,3.52-8.46,6.83c-4.45-6.69-16.25-19.18-16.25-19.18"/><g><path class="uuid-328bf2e6-ff02-44a9-b6bc-c31f84570182" d="M487.93,280.54s17.41-.52,25-12.54c7.59-12.02,9.11-22.49,9.11-22.49,0,0-16.1,2.44-25.58,10.89-9.48,8.45-8.53,24.14-8.53,24.14Z"/><path class="uuid-328bf2e6-ff02-44a9-b6bc-c31f84570182" d="M483.71,322.26s9.51-14.76,22.41-20.85c11.41-4.6,27.05,3.94,27.05,3.94,0,0-1.89,11.64-19.35,18.22-11.62,4.38-23.44,1.47-30.1-1.31Z"/><path class="uuid-328bf2e6-ff02-44a9-b6bc-c31f84570182" d="M450.29,346.64s6.09-24.76-5.32-34.52c-11.4-9.76-15.85-12.06-15.85-12.06,0,0-4.53,19.15,.47,29.5,5,10.34,20.7,17.08,20.7,17.08Z"/><path class="uuid-328bf2e6-ff02-44a9-b6bc-c31f84570182" d="M471.27,363.96s15.07-14.46,26.34-14.47c11.28-.02,22.96,5.03,22.96,5.03,0,0-7.07,14.43-24.56,14.86-17.49,.43-24.74-5.42-24.74-5.42Z"/><path class="uuid-328bf2e6-ff02-44a9-b6bc-c31f84570182" d="M439.53,388.22s-3.07-19.17-17.43-22.97c-12.22-3.01-17.46-.19-17.46-.19,0,0,.59,9.38,7.78,17.23,7.2,7.85,27.11,5.94,27.11,5.94Z"/><path class="uuid-328bf2e6-ff02-44a9-b6bc-c31f84570182" d="M460.46,399.52s2.99-11.13,12.43-14.01c9.76-2.82,18.13,2.21,18.13,2.21,0,0-1.22,11.62-12.16,14.29-10.93,2.67-18.39-2.49-18.39-2.49Z"/><path class="uuid-328bf2e6-ff02-44a9-b6bc-c31f84570182" d="M467.25,302.41s6.41-18.2,2.39-27c-4.02-8.81-12.84-12.72-12.84-12.72,0,0-6.85,10.17-4.37,19.96,2.48,9.79,14.83,19.76,14.83,19.76Z"/></g></g><g><path class="uuid-1954e545-fb03-4bf4-b0b1-1521d09d2635" d="M187.37,282.05s24.85,19.96,47,53.38c22.15,33.42,30.96,75.98,30.96,75.98"/><path class="uuid-1954e545-fb03-4bf4-b0b1-1521d09d2635" d="M206.73,322.28s14.93,.04,21.75,4.66c-2.28-6.72-12.06-30.56-12.06-30.56"/><path class="uuid-1954e545-fb03-4bf4-b0b1-1521d09d2635" d="M227.69,358.8s13.75-1.91,20.3,1.38c.83-8.3-2.26-28.29-2.26-28.29"/><path class="uuid-1954e545-fb03-4bf4-b0b1-1521d09d2635" d="M250.14,388.51s6.72,1.57,10.12,3.97c2.24-7.72,9.73-23.18,9.73-23.18"/><g><path class="uuid-328bf2e6-ff02-44a9-b6bc-c31f84570182" d="M190.17,283.76s-16.77,4.74-27.61-4.45c-10.85-9.19-15.45-18.71-15.45-18.71,0,0,16.09-2.52,27.67,2.7,11.58,5.21,15.39,20.46,15.39,20.46Z"/><path class="uuid-328bf2e6-ff02-44a9-b6bc-c31f84570182" d="M206.73,322.28s-13.51-11.22-27.64-13.15c-12.27-.96-24.61,11.89-24.61,11.89,0,0,5.3,10.53,23.93,11.56,12.4,.68,22.8-5.65,28.32-10.3Z"/><path class="uuid-328bf2e6-ff02-44a9-b6bc-c31f84570182" d="M245.94,335.49s-13.25-21.78-5.31-34.53c7.94-12.74,11.5-16.27,11.5-16.27,0,0,10.08,16.91,8.42,28.28-1.66,11.37-14.61,22.52-14.61,22.52Z"/><path class="uuid-328bf2e6-ff02-44a9-b6bc-c31f84570182" d="M231.14,358.32s-18.72-9.26-29.48-5.88c-10.76,3.38-20.39,11.7-20.39,11.7,0,0,11.08,11.64,27.9,6.79,16.81-4.85,21.97-12.61,21.97-12.61Z"/><path class="uuid-328bf2e6-ff02-44a9-b6bc-c31f84570182" d="M268.7,371.91s-2.84-19.21,9.71-27.15c10.75-6.55,16.6-5.43,16.6-5.43,0,0,2.26,9.12-2.24,18.77-4.51,9.65-24.07,13.81-24.07,13.81Z"/><path class="uuid-328bf2e6-ff02-44a9-b6bc-c31f84570182" d="M252.13,388.98s-6.2-9.72-16.06-9.63c-10.15,.25-16.62,7.55-16.62,7.55,0,0,4.66,10.72,15.89,9.98,11.23-.74,16.79-7.9,16.79-7.9Z"/><path class="uuid-328bf2e6-ff02-44a9-b6bc-c31f84570182" d="M216.47,298.4s-11.58-15.43-10.4-25.04c1.18-9.61,8.43-15.99,8.43-15.99,0,0,9.59,7.64,10.17,17.72,.58,10.08-8.2,23.31-8.2,23.31Z"/></g></g><g><path class="uuid-1cd8f08c-a848-41fa-9ea5-13571b0e8727" d="M454.36,539.58s-37.16,23.84-70.57,16.81c-33.4-7.03-59.86-24.46-59.86-24.46,0,0,26.98-21.21,48.19-24.16,21.21-2.95,46.46,13.26,45.86,11.44-.6-1.82-31.89-22.89-40.3-41.09-8.41-18.2-12.01-56.61-12.01-56.61,0,0,33.14,10.79,45.2,24.16,12.06,13.37,29.14,45.41,29.14,45.41,0,0-13.98-28.37-10.72-57.19,3.26-28.82,26.68-59.52,26.68-59.52,0,0,22.24,26.61,23.56,59.8,1.33,33.2-13.24,60.52-13.24,60.52,0,0,22.17-32.14,39.53-41.64,17.36-9.5,48.58-2.6,48.58-2.6,0,0-15.78,38.34-34.12,50.74-18.34,12.41-39.59,16.95-39.59,16.95,0,0,28.18-9.48,48.63-4.2,20.45,5.29,42.67,23.3,42.67,23.3,0,0-37.38,18.51-66.43,14.76-29.06-3.75-51.19-12.43-51.19-12.43Z"/><path class="uuid-5e0fcbc6-7c9e-4ad2-8768-9ee30f86568c" d="M489.33,515.76c-5.24,1.26-8.65,2.39-8.65,2.39,0,0,3.41-.74,8.65-2.39Z"/><path class="uuid-a56b9625-9605-42b7-97d1-233d986538b3" d="M379.28,441.06s28.31,63.86,71.7,88.01c-7.81-8.3-25.39-21.03-40.11-42.07-14.73-21.04-31.59-45.94-31.59-45.94Z"/><path class="uuid-00ea11c7-0b89-43fe-86f5-ce81808b3df2" d="M451.12,532.12s-64.06,3.84-90.22,1.37c-19.25-1.35-28.33-2.29-28.33-2.29,0,0,16.24,5.79,57.12,6.85,40.88,1.07,61.44-5.94,61.44-5.94Z"/></g><g><path class="uuid-a4d449ca-45f4-4243-89bd-f58e40b10c64" d="M236.12,449.74s40.9-16.62,54.41-47.97c13.51-31.35,14.53-63.01,14.53-63.01,0,0-32.89,9.81-47.52,25.44-14.63,15.63-15.95,45.6-17.09,44.06-1.14-1.54-.32-39.25-10.35-56.62-10.03-17.36-39.33-42.45-39.33-42.45,0,0-10.29,33.3-6.32,50.86,3.97,17.56,20.31,49.99,20.31,49.99,0,0-15.12-27.78-40.55-41.73-25.43-13.95-64.01-12.52-64.01-12.52,0,0,8.92,33.51,35.28,53.73,26.36,20.22,57.08,24.07,57.08,24.07,0,0-39.04-.41-56.81,8.29-17.77,8.71-30.13,38.2-30.13,38.2,0,0,40.42,9.21,61.13,1.38,20.71-7.83,36.67-22.57,36.67-22.57,0,0-23.99,17.55-31.46,37.31-7.47,19.76-5.56,48.29-5.56,48.29,0,0,36.67-19.87,50.36-45.77,13.69-25.9,19.35-48.99,19.35-48.99Z"/><path class="uuid-c7e0452c-02ef-40dd-baae-5cfd95825d6b" d="M196.49,464.58c4.06-3.55,6.94-5.68,6.94-5.68,0,0-2.57,2.36-6.94,5.68Z"/></g><g><path class="uuid-96893d5a-270c-40b7-9c8e-732320278560" d="M271.2,537.98s39.15,20.41,71.79,10.41c32.64-10,57.43-29.73,57.43-29.73,0,0-28.77-18.71-50.16-19.74-21.39-1.03-45.08,17.37-44.65,15.5,.43-1.87,29.71-25.66,36.45-44.54,6.74-18.88,6.89-57.46,6.89-57.46,0,0-32.04,13.72-42.86,28.12-10.81,14.4-24.95,47.84-24.95,47.84,0,0,11.38-29.51,5.55-57.92-5.83-28.41-31.9-56.89-31.9-56.89,0,0-19.76,28.49-18.1,61.67,1.65,33.18,18.62,59.09,18.62,59.09,0,0-24.96-30.02-43.1-37.93-18.14-7.91-48.62,1.77-48.62,1.77,0,0,19.15,36.77,38.53,47.48,19.37,10.71,40.95,13.33,40.95,13.33,0,0-28.91-6.92-48.81,.18-19.89,7.1-40.4,27.03-40.4,27.03,0,0,38.89,15.08,67.49,8.75,28.61-6.34,49.87-16.97,49.87-16.97Z"/><path class="uuid-3a66ca13-1cc9-4f8a-9e0f-65777a531189" d="M254.79,373.58s26.07,28.48,31.9,56.89c5.83,28.41-5.55,57.92-5.55,57.92,0,0,14.14-33.45,24.95-47.84,10.81-14.4,42.86-28.12,42.86-28.12,0,0-.14,38.58-6.89,57.46-6.74,18.88-36.02,42.68-36.45,44.54-.43,1.87,23.26-16.54,44.65-15.5,21.39,1.03,50.16,19.74,50.16,19.74,0,0-24.79,19.73-57.43,29.73-32.64,10-71.79-10.41-71.79-10.41,0,0-.37,.18-1.05,.51,3.32-72.43-15.36-164.91-15.36-164.91Z"/><path class="uuid-3abef7d4-0067-4913-902a-2a11beb1c4c7" d="M234.23,517.39c5.33,.79,8.82,1.61,8.82,1.61,0,0-3.47-.43-8.82-1.61Z"/><path class="uuid-93970ba4-a4f3-410c-8391-0cf5f271e9a2" d="M337.14,433.12s-22.47,66.14-63.52,94.08c7.03-8.96,23.4-23.22,36.18-45.49,12.78-22.28,27.34-48.59,27.34-48.59Z"/><path class="uuid-86613765-67f9-4eef-b8bc-f71ac9086606" d="M273.76,530.26s64.15-1.92,89.98-6.72c19.05-3.07,28.01-4.82,28.01-4.82,0,0-15.65,7.22-56.27,11.95-40.62,4.73-61.72-.41-61.72-.41Z"/><path class="uuid-d87894b4-6345-4ae5-b201-f73b52952cbc" d="M267.8,528.81s-24.21-25.12-46.73-41.56c-22.51-16.45-48.18-25.53-48.18-25.53,0,0,33.71,20.19,46.35,29.27,12.64,9.08,48.57,37.82,48.57,37.82Z"/></g><g><path d="M265.15,226.91s4.36,21.59-17.93,33.39c-7.46,2.58-21.36,2.83-29.09-4.55,11.34,5.51,21.44,6.43,28.9,3.52,4.24-3.53,16.42-8.16,18.12-32.37Z"/><path d="M253.21,229.14s4.87,18.47-6.28,30.7c-11.07-2.44-20.24-10.9-22.92-16.91,3.59,4.13,13.38,13.87,22.4,16.06,4.23-7.12,8.41-16.1,6.8-29.85Z"/><path d="M245.65,239.33s5.64,12.82,1.67,20.06c-2.11-1.23-12.28-10.44-15.16-24.52,4.22,7.86,5.71,14.87,14.53,22.48,1.12-4.81-.67-16.1-1.05-18.02Z"/><path class="uuid-0bf99b4b-464a-4caf-89c0-bf32158a72a5" d="M265.42,231.61s3.24-1.9,3.59-6.76c.36-4.86-2.52-6.6-4.03-4.52-.65-1.47-1.31-.74-1.32,.21-.91-.92-2.7-.97-2.93,1.15-.23,2.12,1.61,9.48,4.69,9.92Z"/><path class="uuid-5b40f002-697e-43cd-8666-c44a5b93439a" d="M253.52,232.93s3.69-2.32,2-7.75c-1.05-2.8-2.49-3.01-2.82-2.27-.41-.33-2.13-.59-2.22,.89-.86-.46-2.35,.77-1.94,2.49,.4,1.73,1.35,5.81,4.98,6.64Z"/><path class="uuid-8bf54ef3-914a-407a-81a4-38a5a3018274" d="M246.69,243.76s2.93-1.95,1.22-6.61c-1.09-3.16-2.63-2.1-2.65-1.43-.59-.89-1.59-.72-1.7,.07-.86-.41-1.93,.82-1.53,2.53,.4,1.71,1.68,5.21,4.66,5.44Z"/><path class="uuid-881019d9-2c93-4ffd-ae56-332f80b923a9" d="M233.82,239.26s2.82-1.35,2.05-5.7c-.77-4.35-3.17-7.1-4.05-5.35-.87-.66-2.34-1.93-3.67,.58-1.59,.37-1.33,2.84-.63,4.65,.7,1.81,3.28,5.96,6.3,5.83Z"/><path class="uuid-87afde99-f076-491d-a774-df5da13734df" d="M223.31,258.82s.84-3.02-2.94-5.3c-3.78-2.28-7.43-2.29-6.7-.47-1.07,.22-2.99,.49-1.98,3.15-.77,1.44,1.26,2.87,3.09,3.53,1.82,.66,6.65,1.45,8.54-.91Z"/><path class="uuid-a37ecfe1-e3ac-46ce-b280-6ed46ccf6cdd" d="M226.44,245.85s1.36-1.38-.33-4.36c-1.1-2.23-4.52-5.99-5.06-3.1-1.59,.03-3.41-.39-2.65,2.84-1.45,.84-.16,2.37,1.31,3.86,1.47,1.49,5.29,1.99,6.72,.76Z"/><path d="M247.94,258.02s.06,.11,.18,.34c1.96,3.77,19.45,38.11,12.43,48.75,.69-5.42-.16-12.2-4.96-25.87-4.8-13.67-9.17-22.25-9.17-22.25l1.59-.85"/></g><g><path d="M419.56,234.37s-4.36,21.59,17.93,33.39c7.46,2.58,21.36,2.83,29.09-4.55-11.34,5.51-21.44,6.43-28.9,3.52-4.24-3.53-16.42-8.16-18.12-32.37Z"/><path d="M431.5,236.6s-4.87,18.47,6.28,30.7c11.07-2.44,20.24-10.9,22.92-16.91-3.59,4.13-13.38,13.87-22.4,16.06-4.23-7.12-8.41-16.1-6.8-29.85Z"/><path d="M439.06,246.79s-5.64,12.82-1.67,20.06c2.11-1.23,12.28-10.44,15.16-24.52-4.22,7.86-5.71,14.87-14.53,22.48-1.12-4.81,.67-16.1,1.05-18.02Z"/><path class="uuid-456a935b-1fc6-4f18-8c78-15f87787e61e" d="M419.29,239.06s-3.24-1.9-3.59-6.76c-.36-4.86,2.52-6.6,4.03-4.52,.65-1.47,1.31-.74,1.32,.21,.91-.92,2.7-.97,2.93,1.15,.23,2.12-1.62,9.48-4.69,9.92Z"/><path class="uuid-c91f1181-1313-442e-809e-2bd6944f6147" d="M431.19,240.38s-3.69-2.32-2-7.75c1.05-2.8,2.49-3.01,2.82-2.27,.41-.33,2.13-.59,2.22,.89,.86-.46,2.35,.77,1.94,2.49-.4,1.73-1.35,5.81-4.98,6.64Z"/><path class="uuid-087bef48-1b86-4d8f-bb4b-0d80d5847160" d="M438.02,251.21s-2.93-1.95-1.22-6.6c1.09-3.16,2.63-2.1,2.65-1.43,.59-.89,1.59-.72,1.7,.07,.86-.41,1.93,.82,1.53,2.53-.4,1.71-1.68,5.21-4.66,5.44Z"/><path class="uuid-1f053bbd-f676-4b39-9648-22897a2d3be6" d="M450.89,246.71s-2.82-1.35-2.05-5.7c.77-4.35,3.16-7.1,4.05-5.35,.87-.66,2.34-1.93,3.67,.58,1.59,.37,1.33,2.84,.63,4.65-.7,1.81-3.28,5.96-6.3,5.83Z"/><path class="uuid-f749e1df-cfc2-41a6-85c3-614dd1e71b37" d="M461.4,266.27s-.84-3.02,2.94-5.3c3.78-2.28,7.43-2.29,6.7-.47,1.07,.22,2.99,.49,1.98,3.15,.77,1.44-1.26,2.87-3.09,3.53s-6.65,1.45-8.54-.91Z"/><path class="uuid-2660cb69-91fa-4a6c-a1ef-1f049904c713" d="M458.27,253.3s-1.36-1.38,.33-4.36c1.1-2.23,4.52-5.99,5.06-3.1,1.59,.03,3.41-.39,2.65,2.84,1.45,.84,.16,2.37-1.31,3.86-1.47,1.49-5.29,1.99-6.72,.76Z"/><path d="M436.77,265.47s-.06,.11-.18,.34c-1.96,3.77-19.45,38.11-12.43,48.75-.69-5.42,.16-12.2,4.96-25.87,4.8-13.67,9.17-22.25,9.17-22.25l-1.59-.85"/></g></g></g><ellipse class="uuid-0208718a-9cb3-4ce4-a468-9411de507339" cx="354.9" cy="560.43" rx="305.07" ry="24.03"/><g><path class="uuid-4be0b126-d549-47fd-b67f-98f195bb6715" d="M339.03,228.31l-33.52,57.83s41.07,36.04,48.61,32.69c7.54-3.35,44.42-17.6,44.42-17.6,0,0,.84-20.95-1.68-27.66-2.51-6.7-33.52-55.31-36.04-53.64s-21.79,8.38-21.79,8.38Z"/><path class="uuid-eff6f1c1-2ea7-4c22-8b9b-2087cf18c897" d="M210.22,488.63c1.68,1.12,14.81,19,32.97,31.57,18.16,12.57,42.74,24.86,42.74,24.86l136.89,2.23s30.73-13.13,49.73-29.33c19-16.2,23.19-28.5,23.19-28.5l-113.42,8.66-1.12-1.12-56.99,.56"/><path class="uuid-e749e69a-e96b-4094-b7ac-460229dd5cd0" d="M313.87,190.17s3.54,24.96,12.66,35.95c9.13,10.99,18.44,17.69,25.52,17.69s21.23-8.38,27.56-20.67c6.33-12.29,9.13-32.59,9.13-32.59,0,0,14.71-35.57-17.13-39.48-31.85-3.91-49.73-10.06-52.15-2.79-2.42,7.26-5.59,41.91-5.59,41.91Z"/><path d="M373.47,160.18c.31-.5,15.09,23.47,13.41,36.69-1.68,13.22-6.33,26.26-9.5,30.36-3.17,4.1-11.73,11.17-11.73,11.17,0,0-.75,18.81,6.52,28.5,7.26,9.68,20.86,15.83,27.01,16.39,6.15,.56,11.73,1.3,11.17,1.3s-8.75-25.33-5.59-43.21c3.17-17.88-.74-68.35-7.64-87.16-6.89-18.81-11.36-20.3-11.36-20.3,0,0-18.81-17.69-56.99-5.21-22.04,7.2-27.01,32.03-26.82,59.04,.19,27.01,2.98,48.61-4.47,69.66-7.45,21.05-5.96,27.38-5.96,27.38,0,0,28.31-.56,36.69-9.13,8.38-8.57,10.43-14.71,10.99-21.6,.56-6.89,1.12-14.71,1.12-14.71,0,0-14.16-8.01-19.37-23.47-5.21-15.46-5.59-16.76-5.59-16.76,0,0,10.8-5.03,23.65-17.51,12.85-12.48,14.15-15.09,14.15-15.09l-8.75,13.78s16.95-.93,29.05-20.11Z"/><path class="uuid-9405f893-7036-4d16-a23d-d145bf7956bf" d="M306.05,283.57s-21.23,0-26.54,7.26c-5.31,7.26-36.32,94.15-34.92,99.73s49.17,68.17,49.17,68.17c0,0,1.4-33.8,1.12-35.48s-25.7-39.39-25.7-40.23,24.31-44.98,24.31-44.98l12.57-54.48Z"/><path class="uuid-6e7c9be0-440e-4cf7-88a3-76d42d3bfa57" d="M399.08,283.57s21.23,0,26.54,7.26c5.31,7.26,36.32,94.15,34.92,99.73-1.4,5.59-49.17,68.17-49.17,68.17,0,0-1.4-33.8-1.12-35.48,.28-1.68,25.7-39.39,25.7-40.23s-24.31-44.98-24.31-44.98l-12.57-54.48Z"/><path class="uuid-70bbb52d-9f33-4305-a7db-48cac3cdfd56" d="M396.56,282.45s-12.57,18.16-41.63,19.56c-29.05,1.4-44.14-19-44.14-19l-4.75,.56s-11.73,25.14-12.85,42.18c-1.12,17.04,1.96,24.86,6.15,32.97,4.19,8.1,7.82,8.94,7.82,8.94l1.68,114.54s77.66,8.38,77.39,7.54,15.64-121.25,15.64-122.36,9.22-19.84,9.78-33.52-8.94-49.73-8.94-49.73l-6.15-1.68Z"/><path class="uuid-d77fcc69-6e3d-41f9-977c-03a767de2fc7" d="M275.04,499.8s-12.57-114.82-12.29-115.94-1.12-5.59,14.53-5.31c15.64,.28,159.8,0,159.8,0,0,0,8.66-1.68,7.82,9.78-.84,11.45-6.15,106.72-6.15,106.72l-163.71,4.75Z"/><circle class="uuid-3beb1581-7ee3-4d68-8c24-38f83b555ea9" cx="351.86" cy="432.47" r="12.01"/><path class="uuid-e1d5062b-4ecd-4527-a12f-ba9427319099" d="M374.4,519.64c-.52-1.8-35.48-17.32-45.26-25.42-9.78-8.1-38.27-24.31-61.46-32.69-23.19-8.38-43.3-18.16-48.05-19.56-4.75-1.4-13.69-2.51-22.35,8.94-8.66,11.45-7.82,20.95-.28,28.5,7.54,7.54,36.88,33.24,63.42,40.79,26.54,7.54,45.54,11.45,66.21,17.32,20.67,5.87,33.52,10.06,33.52,10.06,0,0,19.28-10.62,14.25-27.94Z"/><path class="uuid-2a340316-67cf-4295-99f6-f1af5220a444" d="M363.04,546.18s9.5,.84,12.57,3.07c3.07,2.23,8.94,5.59,12.01,5.59s13.97,1.68,21.51,5.03c7.54,3.35,24.31,12.85,28.22,11.17l3.91-1.68s2.79,0,4.47-1.4c1.68-1.4,1.96-2.79,1.96-2.79,0,0,3.07,0,4.47-1.4s1.4-3.91,1.4-3.91c0,0,2.51,.28,3.35-1.4l.84-1.68s3.07-1.96,4.19-4.19c1.12-2.23,1.12-2.51,.56-3.35s-11.73-8.38-14.25-8.38-14.81-1.4-21.51-3.35c-6.7-1.96-11.17-2.51-24.03-4.19-12.85-1.68-39.67,12.85-39.67,12.85Z"/><g><path class="uuid-6d62e4d0-3bc2-4206-96d2-74253e0ce912" d="M337.89,520.75c.52-1.8,35.48-17.32,45.26-25.42,9.78-8.1,38.27-24.31,61.46-32.69,23.19-8.38,43.3-18.16,48.05-19.56,4.75-1.4,13.69-2.51,22.35,8.94,8.66,11.45,7.82,20.95,.28,28.5-7.54,7.54-36.88,33.24-63.42,40.79-26.54,7.54-45.54,11.45-66.21,17.32s-33.52,10.06-33.52,10.06c0,0-19.28-10.62-14.25-27.94Z"/><path class="uuid-08dc8f9d-86ee-4c17-8647-58625943da15" d="M337.52,522.43s-30.92,15.27-36.32,15.27-6.71-1.86-9.31-2.98-7.64-.56-14.9,2.79-12.48,6.33-17.32,5.96c-4.84-.37-14.71-3.35-20.3-.56-5.59,2.79-16.02,12.85-12.29,16.76,3.73,3.91,13.41,8.2,17.51,5.96,4.1-2.23,15.46-2.79,24.77-1.86,9.31,.93,19.74,3.91,27.01,1.3,7.26-2.61,20.11-10.06,31.1-12.85s22.16-4.84,22.16-4.84c0,0-14.53-7.26-12.11-24.96Z"/></g><path class="uuid-8980a7b2-1d3e-4e86-87a2-741e15cffac0" d="M444.94,386.67c-.09-9.61-7.87-8.12-7.87-8.12,0,0-144.15,.28-159.8,0-15.64-.28-14.25,4.19-14.53,5.31-.02,.09,.03,.86,.15,2.2,1.3-1.86,2.89-4.99,11.92-4.99h161.29s5.68-.28,8.84,5.6Z"/></g></svg>