<?xml version="1.0" encoding="UTF-8"?><svg id="uuid-e39ce4b6-06f6-4563-b8af-2b298a0a0961" xmlns="http://www.w3.org/2000/svg" viewBox="0 0 40.09 61.84"><defs><style>.uuid-b3c95da5-c1b3-4c78-93c5-16e42a56e411{fill:#378eff;}.uuid-635229c2-d10f-4181-b613-b4878374885d{fill:#8ab0e3;}</style></defs><g><path class="uuid-635229c2-d10f-4181-b613-b4878374885d" d="M10.67,50.88H.5C.22,50.88,0,50.66,0,50.38V9.21c0-.28,.22-.5,.5-.5H10.67c.28,0,.5,.22,.5,.5V50.38c0,.28-.22,.5-.5,.5Zm-9.67-1H10.17V9.71H1V49.88Z"/><path class="uuid-b3c95da5-c1b3-4c78-93c5-16e42a56e411" d="M10.67,7.45H.5C.22,7.45,0,7.23,0,6.95V2.32C0,1.04,1.04,0,2.32,0h6.54c1.28,0,2.32,1.04,2.32,2.32V6.95c0,.28-.22,.5-.5,.5ZM1,6.45H10.17V2.32c0-.73-.59-1.32-1.32-1.32H2.32c-.73,0-1.32,.59-1.32,1.32V6.45Z"/><path class="uuid-635229c2-d10f-4181-b613-b4878374885d" d="M5.58,61.84c-.19,0-.37-.11-.45-.29L.05,50.59c-.12-.25,0-.55,.24-.66,.25-.12,.55,0,.66,.24l4.63,9.98,4.63-9.98c.12-.25,.41-.36,.66-.24,.25,.12,.36,.41,.24,.66l-5.08,10.96c-.08,.18-.26,.29-.45,.29Z"/><path class="uuid-635229c2-d10f-4181-b613-b4878374885d" d="M7.01,58.76h-2.86c-.28,0-.5-.22-.5-.5s.22-.5,.5-.5h2.86c.28,0,.5,.22,.5,.5s-.22,.5-.5,.5Z"/><g><path class="uuid-635229c2-d10f-4181-b613-b4878374885d" d="M7.23,50.88c-.28,0-.5-.22-.5-.5V15.31c0-.28,.22-.5,.5-.5s.5,.22,.5,.5V50.38c0,.28-.22,.5-.5,.5Z"/><path class="uuid-635229c2-d10f-4181-b613-b4878374885d" d="M3.94,50.88c-.28,0-.5-.22-.5-.5V15.31c0-.28,.22-.5,.5-.5s.5,.22,.5,.5V50.38c0,.28-.22,.5-.5,.5Z"/></g></g><g><g><path class="uuid-b3c95da5-c1b3-4c78-93c5-16e42a56e411" d="M19.62,35.02c-.28,0-.5-.22-.5-.5v-2.74c0-.28,.22-.5,.5-.5s.5,.22,.5,.5v2.74c0,.28-.22,.5-.5,.5Z"/><path class="uuid-b3c95da5-c1b3-4c78-93c5-16e42a56e411" d="M29.62,35.02c-.28,0-.5-.22-.5-.5v-2.74c0-.28,.22-.5,.5-.5s.5,.22,.5,.5v2.74c0,.28-.22,.5-.5,.5Z"/><path class="uuid-b3c95da5-c1b3-4c78-93c5-16e42a56e411" d="M25.87,41.56c-.28,0-.5-.22-.5-.5v-2.74c0-.28,.22-.5,.5-.5s.5,.22,.5,.5v2.74c0,.28-.22,.5-.5,.5Z"/><path class="uuid-b3c95da5-c1b3-4c78-93c5-16e42a56e411" d="M36.62,35.02c-.28,0-.5-.22-.5-.5v-2.74c0-.28,.22-.5,.5-.5s.5,.22,.5,.5v2.74c0,.28-.22,.5-.5,.5Z"/><path class="uuid-b3c95da5-c1b3-4c78-93c5-16e42a56e411" d="M33.23,35.02c-.28,0-.5-.22-.5-.5v-2.74c0-.28,.22-.5,.5-.5s.5,.22,.5,.5v2.74c0,.28-.22,.5-.5,.5Z"/><path class="uuid-b3c95da5-c1b3-4c78-93c5-16e42a56e411" d="M36.62,41.56c-.28,0-.5-.22-.5-.5v-2.74c0-.28,.22-.5,.5-.5s.5,.22,.5,.5v2.74c0,.28-.22,.5-.5,.5Z"/><path class="uuid-b3c95da5-c1b3-4c78-93c5-16e42a56e411" d="M25.87,35.02h-2.74c-.28,0-.5-.22-.5-.5v-2.74c0-.28,.22-.5,.5-.5h2.74c.28,0,.5,.22,.5,.5v2.74c0,.28-.22,.5-.5,.5Zm-2.24-1h1.74v-1.74h-1.74v1.74Z"/><path class="uuid-b3c95da5-c1b3-4c78-93c5-16e42a56e411" d="M36.62,47.76c-.28,0-.5-.22-.5-.5v-2.74c0-.28,.22-.5,.5-.5s.5,.22,.5,.5v2.74c0,.28-.22,.5-.5,.5Z"/><path class="uuid-b3c95da5-c1b3-4c78-93c5-16e42a56e411" d="M26.62,47.76c-.28,0-.5-.22-.5-.5v-2.74c0-.28,.22-.5,.5-.5s.5,.22,.5,.5v2.74c0,.28-.22,.5-.5,.5Z"/><path class="uuid-b3c95da5-c1b3-4c78-93c5-16e42a56e411" d="M32.5,53.87c-.28,0-.5-.22-.5-.5v-2.74c0-.28,.22-.5,.5-.5s.5,.22,.5,.5v2.74c0,.28-.22,.5-.5,.5Z"/><path class="uuid-b3c95da5-c1b3-4c78-93c5-16e42a56e411" d="M36.62,53.87c-.28,0-.5-.22-.5-.5v-2.74c0-.28,.22-.5,.5-.5s.5,.22,.5,.5v2.74c0,.28-.22,.5-.5,.5Z"/><path class="uuid-b3c95da5-c1b3-4c78-93c5-16e42a56e411" d="M19.62,47.76c-.28,0-.5-.22-.5-.5v-2.74c0-.28,.22-.5,.5-.5s.5,.22,.5,.5v2.74c0,.28-.22,.5-.5,.5Z"/><path class="uuid-b3c95da5-c1b3-4c78-93c5-16e42a56e411" d="M23.01,47.76c-.28,0-.5-.22-.5-.5v-2.74c0-.28,.22-.5,.5-.5s.5,.22,.5,.5v2.74c0,.28-.22,.5-.5,.5Z"/><path class="uuid-b3c95da5-c1b3-4c78-93c5-16e42a56e411" d="M33.11,47.76h-2.74c-.28,0-.5-.22-.5-.5v-2.74c0-.28,.22-.5,.5-.5h2.74c.28,0,.5,.22,.5,.5v2.74c0,.28-.22,.5-.5,.5Zm-2.24-1h1.74v-1.74h-1.74v1.74Z"/><path class="uuid-b3c95da5-c1b3-4c78-93c5-16e42a56e411" d="M22.36,53.87h-2.74c-.28,0-.5-.22-.5-.5v-2.74c0-.28,.22-.5,.5-.5h2.74c.28,0,.5,.22,.5,.5v2.74c0,.28-.22,.5-.5,.5Zm-2.24-1h1.74v-1.74h-1.74v1.74Z"/><path class="uuid-b3c95da5-c1b3-4c78-93c5-16e42a56e411" d="M28.8,53.87h-2.74c-.28,0-.5-.22-.5-.5v-2.74c0-.28,.22-.5,.5-.5h2.74c.28,0,.5,.22,.5,.5v2.74c0,.28-.22,.5-.5,.5Zm-2.24-1h1.74v-1.74h-1.74v1.74Z"/><path class="uuid-b3c95da5-c1b3-4c78-93c5-16e42a56e411" d="M22.36,41.56h-2.74c-.28,0-.5-.22-.5-.5v-2.74c0-.28,.22-.5,.5-.5h2.74c.28,0,.5,.22,.5,.5v2.74c0,.28-.22,.5-.5,.5Zm-2.24-1h1.74v-1.74h-1.74v1.74Z"/><path class="uuid-b3c95da5-c1b3-4c78-93c5-16e42a56e411" d="M32.36,41.56h-2.74c-.28,0-.5-.22-.5-.5v-2.74c0-.28,.22-.5,.5-.5h2.74c.28,0,.5,.22,.5,.5v2.74c0,.28-.22,.5-.5,.5Zm-2.24-1h1.74v-1.74h-1.74v1.74Z"/></g><path class="uuid-635229c2-d10f-4181-b613-b4878374885d" d="M39.59,57.64H16.65c-.28,0-.5-.22-.5-.5V28.01c0-.28,.22-.5,.5-.5h22.93c.28,0,.5,.22,.5,.5v29.13c0,.28-.22,.5-.5,.5Zm-22.43-1h21.93V28.51H17.15v28.13Z"/></g><path class="uuid-635229c2-d10f-4181-b613-b4878374885d" d="M28.8,61.84H5.58c-.28,0-.5-.22-.5-.5s.22-.5,.5-.5H28.3v-3.7c0-.28,.22-.5,.5-.5s.5,.22,.5,.5v4.2c0,.28-.22,.5-.5,.5Z"/></svg>