<?xml version="1.0" encoding="UTF-8"?><svg id="uuid-75878575-378e-4850-b7da-b6a5b09f9bf7" xmlns="http://www.w3.org/2000/svg" viewBox="0 0 68.93 49.86"><defs><style>.uuid-89796667-b156-4ca2-a097-6d2e0035d6b3{fill:#bd81b8;}.uuid-1f8c2156-a5c1-4c46-b7dd-7222029bde48{fill:#455daa;}</style></defs><g><path class="uuid-1f8c2156-a5c1-4c46-b7dd-7222029bde48" d="M68.43,49.86H.5c-.28,0-.5-.22-.5-.5V1.71C0,.77,.77,0,1.71,0H67.22c.94,0,1.71,.77,1.71,1.71V49.36c0,.28-.22,.5-.5,.5ZM1,48.86H67.93V1.71c0-.39-.32-.71-.71-.71H1.71c-.39,0-.71,.32-.71,.71V48.86Z"/><path class="uuid-1f8c2156-a5c1-4c46-b7dd-7222029bde48" d="M68.43,7.27h-14.64c-.28,0-.5-.22-.5-.5s.22-.5,.5-.5h14.64c.28,0,.5,.22,.5,.5s-.22,.5-.5,.5Z"/><path class="uuid-1f8c2156-a5c1-4c46-b7dd-7222029bde48" d="M46.46,7.27H27.81c-.28,0-.5-.22-.5-.5s.22-.5,.5-.5h18.65c.28,0,.5,.22,.5,.5s-.22,.5-.5,.5Z"/><path class="uuid-1f8c2156-a5c1-4c46-b7dd-7222029bde48" d="M20.28,7.27H.5c-.28,0-.5-.22-.5-.5s.22-.5,.5-.5H20.28c.28,0,.5,.22,.5,.5s-.22,.5-.5,.5Z"/><g><path class="uuid-89796667-b156-4ca2-a097-6d2e0035d6b3" d="M4.12,4.72c-.28,0-.5-.22-.5-.5v-1.4c0-.28,.22-.5,.5-.5s.5,.22,.5,.5v1.4c0,.28-.22,.5-.5,.5Z"/><path class="uuid-89796667-b156-4ca2-a097-6d2e0035d6b3" d="M6.43,4.72c-.28,0-.5-.22-.5-.5v-1.4c0-.28,.22-.5,.5-.5s.5,.22,.5,.5v1.4c0,.28-.22,.5-.5,.5Z"/><path class="uuid-89796667-b156-4ca2-a097-6d2e0035d6b3" d="M8.74,4.72c-.28,0-.5-.22-.5-.5v-1.4c0-.28,.22-.5,.5-.5s.5,.22,.5,.5v1.4c0,.28-.22,.5-.5,.5Z"/></g></g><g><path class="uuid-89796667-b156-4ca2-a097-6d2e0035d6b3" d="M36.34,45.45h-3.75c-.28,0-.5-.22-.5-.5v-2.41c-1.01-.16-1.99-.42-2.91-.77l-1.2,2.08c-.07,.12-.18,.2-.3,.23-.13,.03-.26,.02-.38-.05l-3.25-1.88c-.24-.14-.32-.44-.18-.68l1.21-2.09c-.78-.64-1.49-1.35-2.13-2.13l-2.09,1.21c-.12,.07-.25,.08-.38,.05-.13-.04-.24-.12-.3-.23l-1.88-3.25c-.07-.12-.08-.25-.05-.38,.03-.13,.12-.24,.23-.3l2.08-1.2c-.35-.92-.61-1.9-.77-2.91h-2.41c-.28,0-.5-.22-.5-.5v-3.75c0-.28,.22-.5,.5-.5h2.41c.16-1.01,.42-1.98,.77-2.91l-2.08-1.2c-.24-.14-.32-.44-.18-.68l1.88-3.25c.07-.11,.18-.2,.3-.23,.13-.03,.26-.02,.38,.05l2.09,1.21c.64-.78,1.35-1.49,2.13-2.13l-1.21-2.09c-.07-.11-.08-.25-.05-.38s.12-.24,.23-.3l3.25-1.88c.24-.14,.54-.06,.68,.18l1.2,2.08c.92-.35,1.9-.61,2.91-.77v-2.41c0-.28,.22-.5,.5-.5h3.75c.28,0,.5,.22,.5,.5v2.41c1.01,.16,1.99,.42,2.91,.77l1.2-2.08c.14-.24,.44-.32,.68-.18l3.25,1.88c.11,.07,.2,.18,.23,.3s.02,.26-.05,.38l-1.21,2.09c.78,.64,1.49,1.35,2.13,2.13l2.09-1.21c.11-.07,.25-.08,.38-.05,.13,.03,.24,.12,.3,.23l1.88,3.25c.14,.24,.06,.54-.18,.68l-2.08,1.2c.35,.93,.61,1.9,.77,2.91h2.41c.28,0,.5,.22,.5,.5v3.75c0,.28-.22,.5-.5,.5h-2.41c-.16,1.01-.42,1.99-.77,2.91l2.08,1.2c.11,.07,.2,.17,.23,.3,.03,.13,.02,.26-.05,.38l-1.88,3.25c-.07,.12-.18,.2-.3,.23-.13,.03-.26,.02-.38-.05l-2.09-1.21c-.63,.78-1.35,1.49-2.13,2.13l1.21,2.09c.14,.24,.06,.54-.18,.68l-3.25,1.88c-.12,.07-.25,.08-.38,.05-.13-.04-.24-.12-.3-.23l-1.2-2.08c-.92,.35-1.9,.61-2.91,.77v2.41c0,.28-.22,.5-.5,.5Zm-3.25-1h2.75v-2.34c0-.25,.19-.46,.44-.5,1.23-.16,2.41-.47,3.5-.93,.23-.09,.5,0,.62,.21l1.17,2.02,2.38-1.38-1.17-2.03c-.13-.22-.07-.49,.13-.65,.96-.74,1.82-1.6,2.56-2.56,.15-.2,.43-.26,.65-.13l2.03,1.17,1.38-2.38-2.02-1.17c-.22-.12-.31-.39-.21-.62,.45-1.09,.77-2.27,.93-3.5,.03-.25,.24-.44,.5-.44h2.35v-2.75h-2.35c-.25,0-.46-.19-.5-.44-.16-1.23-.47-2.41-.93-3.5-.1-.23,0-.5,.21-.62l2.02-1.17-1.38-2.38-2.03,1.17c-.22,.13-.49,.07-.65-.13-.74-.96-1.6-1.82-2.56-2.56-.2-.15-.25-.43-.13-.65l1.17-2.03-2.38-1.38-1.17,2.02c-.13,.22-.4,.31-.62,.21-1.09-.45-2.27-.77-3.5-.93-.25-.03-.44-.24-.44-.5v-2.35h-2.75v2.35c0,.25-.19,.46-.44,.5-1.23,.16-2.41,.47-3.5,.93-.23,.1-.5,0-.62-.21l-1.17-2.02-2.38,1.38,1.17,2.03c.13,.22,.07,.49-.13,.65-.96,.74-1.82,1.6-2.56,2.56-.15,.2-.43,.25-.65,.13l-2.03-1.17-1.38,2.38,2.02,1.17c.22,.13,.31,.39,.21,.62-.45,1.1-.77,2.27-.93,3.5-.03,.25-.24,.44-.5,.44h-2.35v2.75h2.35c.25,0,.46,.19,.5,.44,.16,1.23,.47,2.41,.93,3.5,.1,.23,0,.5-.21,.62l-2.02,1.17,1.38,2.38,2.03-1.17c.22-.13,.49-.07,.65,.13,.74,.96,1.6,1.82,2.56,2.56,.2,.15,.25,.43,.13,.65l-1.17,2.03,2.38,1.38,1.17-2.02c.13-.22,.39-.31,.62-.21,1.09,.45,2.27,.76,3.5,.93,.25,.03,.44,.25,.44,.5v2.34Z"/><path class="uuid-89796667-b156-4ca2-a097-6d2e0035d6b3" d="M34.46,35.02c-3.94,0-7.15-3.21-7.15-7.15,0-.74,.11-1.48,.34-2.18,.08-.26,.36-.41,.63-.32,.26,.08,.41,.37,.32,.63-.19,.61-.29,1.24-.29,1.88,0,3.39,2.76,6.15,6.15,6.15s6.15-2.76,6.15-6.15-2.76-6.15-6.15-6.15c-1.1,0-2.17,.29-3.11,.84-.24,.14-.54,.06-.68-.18-.14-.24-.06-.54,.18-.68,1.09-.64,2.34-.98,3.62-.98,3.94,0,7.15,3.21,7.15,7.15s-3.21,7.15-7.15,7.15Z"/></g></svg>