<?xml version="1.0" encoding="UTF-8"?><svg id="uuid-cb6d9fb9-2f53-4a07-93f6-8d2fa2b11b6c" xmlns="http://www.w3.org/2000/svg" viewBox="0 0 61.87 64.1"><defs><style>.uuid-4bd20dfa-ca75-4ed4-a8a7-9b03ec046103{fill:#378eff;}.uuid-888c5a4b-050f-4861-a845-3dbaa9d0a553{fill:#8ab0e3;}</style></defs><g><g><g><path class="uuid-888c5a4b-050f-4861-a845-3dbaa9d0a553" d="M30.94,55.11c-12.71,0-23.06-10.34-23.06-23.06,0-4.69,1.4-9.2,4.04-13.05,.16-.23,.47-.29,.7-.13,.23,.16,.29,.47,.13,.7-2.53,3.68-3.87,8-3.87,12.48,0,12.16,9.9,22.06,22.06,22.06s22.06-9.9,22.06-22.06S43.1,9.99,30.94,9.99c-4.53,0-8.88,1.36-12.58,3.94-.23,.16-.54,.1-.7-.12-.16-.23-.1-.54,.12-.7,3.87-2.69,8.42-4.12,13.15-4.12,12.71,0,23.06,10.34,23.06,23.06s-10.34,23.06-23.06,23.06Z"/><path class="uuid-888c5a4b-050f-4861-a845-3dbaa9d0a553" d="M53.5,32.55H8.38c-.28,0-.5-.22-.5-.5s.22-.5,.5-.5H53.5c.28,0,.5,.22,.5,.5s-.22,.5-.5,.5Z"/><path class="uuid-888c5a4b-050f-4861-a845-3dbaa9d0a553" d="M30.94,55.11c-.28,0-.5-.22-.5-.5V9.49c0-.28,.22-.5,.5-.5s.5,.22,.5,.5V54.61c0,.28-.22,.5-.5,.5Z"/><path class="uuid-888c5a4b-050f-4861-a845-3dbaa9d0a553" d="M30.94,55.11c-7.37,0-13.36-10.34-13.36-23.06s6-23.06,13.36-23.06,13.36,10.34,13.36,23.06c0,3.23-.38,6.35-1.12,9.28-.07,.27-.34,.43-.61,.36-.27-.07-.43-.34-.36-.61,.72-2.85,1.09-5.89,1.09-9.04,0-12.16-5.55-22.06-12.36-22.06s-12.36,9.89-12.36,22.06,5.55,22.06,12.36,22.06c3.04,0,5.97-2.01,8.25-5.67,.15-.24,.46-.3,.69-.16,.23,.15,.31,.45,.16,.69-2.47,3.96-5.7,6.14-9.1,6.14Z"/></g><path class="uuid-888c5a4b-050f-4861-a845-3dbaa9d0a553" d="M61.37,32.55h-4.35c-.28,0-.5-.22-.5-.5s.22-.5,.5-.5h3.85V1H31.44V9.49c0,.28-.22,.5-.5,.5s-.5-.22-.5-.5V.5c0-.28,.22-.5,.5-.5h30.44c.28,0,.5,.22,.5,.5v31.55c0,.28-.22,.5-.5,.5Z"/><path class="uuid-888c5a4b-050f-4861-a845-3dbaa9d0a553" d="M30.94,64.1H.5c-.28,0-.5-.22-.5-.5v-31.55c0-.28,.22-.5,.5-.5H4.85c.28,0,.5,.22,.5,.5s-.22,.5-.5,.5H1v30.55H30.44v-8.49c0-.28,.22-.5,.5-.5s.5,.22,.5,.5v8.99c0,.28-.22,.5-.5,.5Z"/></g><path class="uuid-4bd20dfa-ca75-4ed4-a8a7-9b03ec046103" d="M19.62,1H.5c-.28,0-.5-.22-.5-.5S.22,0,.5,0H19.62c.28,0,.5,.22,.5,.5s-.22,.5-.5,.5Z"/><path class="uuid-4bd20dfa-ca75-4ed4-a8a7-9b03ec046103" d="M15,6.04H.5c-.28,0-.5-.22-.5-.5s.22-.5,.5-.5H15c.28,0,.5,.22,.5,.5s-.22,.5-.5,.5Z"/><path class="uuid-4bd20dfa-ca75-4ed4-a8a7-9b03ec046103" d="M9.34,11.08H.5c-.28,0-.5-.22-.5-.5s.22-.5,.5-.5H9.34c.28,0,.5,.22,.5,.5s-.22,.5-.5,.5Z"/><path class="uuid-4bd20dfa-ca75-4ed4-a8a7-9b03ec046103" d="M10.59,16.12H.5c-.28,0-.5-.22-.5-.5s.22-.5,.5-.5H10.59c.28,0,.5,.22,.5,.5s-.22,.5-.5,.5Z"/><path class="uuid-4bd20dfa-ca75-4ed4-a8a7-9b03ec046103" d="M5.31,21.17H.5c-.28,0-.5-.22-.5-.5s.22-.5,.5-.5H5.31c.28,0,.5,.22,.5,.5s-.22,.5-.5,.5Z"/></g><g><path class="uuid-4bd20dfa-ca75-4ed4-a8a7-9b03ec046103" d="M50.23,64.1s-.1,0-.15-.02c-.26-.08-.41-.36-.33-.63l3.3-10.43c.08-.26,.36-.41,.63-.33,.26,.08,.41,.36,.33,.63l-3.3,10.43c-.07,.21-.26,.35-.48,.35Z"/><g><path class="uuid-4bd20dfa-ca75-4ed4-a8a7-9b03ec046103" d="M45.55,62.05c-.13,0-.26-.05-.35-.15l-3.17-3.17c-.2-.2-.2-.51,0-.71l3.17-3.17c.2-.2,.51-.2,.71,0s.2,.51,0,.71l-2.81,2.81,2.81,2.81c.2,.2,.2,.51,0,.71-.1,.1-.23,.15-.35,.15Z"/><path class="uuid-4bd20dfa-ca75-4ed4-a8a7-9b03ec046103" d="M58.21,62.05c-.13,0-.26-.05-.35-.15-.2-.2-.2-.51,0-.71l2.81-2.81-2.81-2.81c-.2-.2-.2-.51,0-.71s.51-.2,.71,0l3.17,3.17c.2,.2,.2,.51,0,.71l-3.17,3.17c-.1,.1-.23,.15-.35,.15Z"/></g></g></svg>